<?xml version="1.0" encoding="UTF-8"?>
<svg width="159px" height="16px" viewBox="0 0 159 16" version="1.1" xmlns="http://www.w3.org/2000/svg" xmlns:xlink="http://www.w3.org/1999/xlink">
    <!-- Generator: Sketch 44.1 (41455) - http://www.bohemiancoding.com/sketch -->
    <title>Group</title>
    <desc>Created with Sketch.</desc>
    <defs></defs>
    <g id="index-v3" stroke="none" stroke-width="1" fill="none" fill-rule="evenodd">
        <g transform="translate(-641.000000, -3338.000000)" id="Group-10">
            <g transform="translate(412.000000, 3338.000000)">
                <g id="Group" transform="translate(229.000000, 0.000000)">
                    <polygon id="Fill-1" fill="#AA00FF" points="0 0.584482173 0 12.6961969 2.71705762 12.6961969 2.71705762 8.16886248 7.19464902 8.16886248 7.19464902 5.70910017 2.70007389 5.70910017 2.70007389 3.14679117 7.80946016 3.14679117 7.80946016 0.584482173"></polygon>
                    <path d="M14.2678304,6.76835314 C13.9774085,6.70010187 13.7039704,6.68312394 13.4475161,6.68312394 C12.4053942,6.68312394 11.4655144,7.29806452 11.4655144,8.98906621 L11.4655144,12.6960272 L8.86802228,12.6960272 L8.86802228,4.20604414 L11.3799164,4.20604414 L11.3799164,5.3506961 C11.8242109,4.39382003 12.9006399,4.12047538 13.584405,4.12047538 C13.8405197,4.12047538 14.096974,4.1547708 14.2678304,4.20604414 L14.2678304,6.76835314 Z" id="Fill-2" fill="#AA00FF"></path>
                    <path d="M15.8390295,12.6957555 L18.4365216,12.6957555 L18.4365216,4.2057725 L15.8390295,4.2057725 L15.8390295,12.6957555 Z M17.120622,0.0889643463 C17.9749038,0.0889643463 18.6586689,0.772495756 18.6586689,1.60950764 C18.6586689,2.44651952 17.9749038,3.12971138 17.120622,3.12971138 C16.3003077,3.12971138 15.6168823,2.44651952 15.6168823,1.60950764 C15.6168823,0.772495756 16.3003077,0.0889643463 17.120622,0.0889643463 L17.120622,0.0889643463 Z" id="Fill-4" fill="#AA00FF"></path>
                    <path d="M26.0741744,7.43456706 C26.0398672,6.78567063 25.5955728,5.99959253 24.3652711,5.99959253 C23.2718584,5.99959253 22.7249822,6.80264856 22.6736913,7.43456706 L26.0741744,7.43456706 Z M28.4321959,10.2532428 C28.0222085,11.7225127 26.6723414,12.9523939 24.5191438,12.9523939 C22.178106,12.9523939 20.0931829,11.2780306 20.0931829,8.42539898 C20.0931829,5.69229202 22.1268151,3.94967742 24.3313037,3.94967742 C26.9627633,3.94967742 28.5860685,5.5727674 28.5860685,8.3055348 C28.5860685,8.66444822 28.5517613,9.05731749 28.5347776,9.10893039 L22.6224004,9.10893039 C22.6736913,10.0654669 23.5449568,10.7486587 24.5531112,10.7486587 C25.4933307,10.7486587 26.0228835,10.3045161 26.2620144,9.63830221 L28.4321959,10.2532428 Z" id="Fill-6" fill="#AA00FF"></path>
                    <path d="M32.8568999,12.6960611 L30.2594078,12.6960611 L30.2594078,4.2060781 L32.7716416,4.2060781 L32.7716416,5.17959253 C33.2329198,4.37687606 34.2750416,3.98400679 35.1466468,3.98400679 C37.2828608,3.98400679 38.2397243,5.50421053 38.2397243,7.36634975 L38.2397243,12.6960611 L35.6422321,12.6960611 L35.6422321,7.81049236 C35.6422321,6.97314092 35.1979377,6.34122241 34.2580579,6.34122241 C33.4037761,6.34122241 32.8568999,6.97314092 32.8568999,7.82747029 L32.8568999,12.6960611 Z" id="Fill-7" fill="#AA00FF"></path>
                    <path d="M44.3386508,10.5608829 C45.3468052,10.5608829 46.2527175,9.84339559 46.2527175,8.44271647 C46.2527175,7.02471986 45.3468052,6.34118846 44.3386508,6.34118846 C43.3304964,6.34118846 42.4249237,7.02471986 42.4249237,8.44271647 C42.4249237,9.84339559 43.3304964,10.5608829 44.3386508,10.5608829 L44.3386508,10.5608829 Z M48.7815954,11.1758234 C48.7815954,11.9442445 48.8328862,12.5079117 48.8502096,12.6960272 L46.3552993,12.6960272 C46.3379758,12.5934805 46.286685,12.2179287 46.286685,11.8759932 C45.8936814,12.4569779 45.0393996,12.8841426 44.0139218,12.8841426 C41.6215932,12.8841426 39.8101082,11.0389813 39.8101082,8.42539898 C39.8101082,5.8973854 41.5190114,4.00095076 43.9283238,4.00095076 C45.3811123,4.00095076 46.0132469,4.54764007 46.2184104,4.87225806 L46.2184104,0.328285229 L48.7815954,0.328285229 L48.7815954,11.1758234 Z" id="Fill-8" fill="#AA00FF"></path>
                    <path d="M52.625184,9.89436333 C52.6594911,10.475348 53.0694785,11.0390153 53.9580674,11.0390153 C54.6245091,11.0390153 54.949238,10.6801019 54.949238,10.3045501 C54.949238,9.99724958 54.7440746,9.74088285 54.11194,9.60438031 L53.1377531,9.38196944 C51.3262681,8.98910017 50.6085355,7.96397284 50.6085355,6.7683871 C50.6085355,5.21388795 51.9757261,3.94971138 53.8724694,3.94971138 C56.3334123,3.94971138 57.1876941,5.4872326 57.2732921,6.47772496 L55.1200944,6.87093379 C55.0518198,6.30726655 54.6927837,5.82882852 53.9067765,5.82882852 C53.4111912,5.82882852 52.9838805,6.1191511 52.9838805,6.56329372 C52.9838805,6.92220713 53.274642,7.12730051 53.6506618,7.19555178 L54.7783817,7.41762309 C56.5385758,7.77619694 57.3928576,8.83528014 57.3928576,10.0824788 C57.3928576,11.5344312 56.2821214,12.9524278 54.0093583,12.9524278 C51.3435915,12.9524278 50.4889701,11.2271307 50.4206955,10.2872326 L52.625184,9.89436333 Z" id="Fill-9" fill="#AA00FF"></path>
                    <path d="M62.7061166,7.77609508 L65.6453214,7.77609508 L64.1925329,3.59103565 L62.7061166,7.77609508 Z M66.4996032,10.2361969 L61.8175277,10.2361969 L60.9459225,12.6959593 L58.1092994,12.6959593 L62.6718094,0.584584041 L65.7988544,0.584584041 L70.3104132,12.6959593 L67.3712084,12.6959593 L66.4996032,10.2361969 Z" id="Fill-10" fill="#4A138C"></path>
                    <path d="M74.204987,12.6960611 L71.6074949,12.6960611 L71.6074949,4.2060781 L74.1197287,4.2060781 L74.1197287,5.17959253 C74.5810069,4.37687606 75.6231288,3.98400679 76.4947339,3.98400679 C78.6309479,3.98400679 79.5878114,5.50421053 79.5878114,7.36634975 L79.5878114,12.6960611 L76.9903193,12.6960611 L76.9903193,7.81049236 C76.9903193,6.97314092 76.5460248,6.34122241 75.606145,6.34122241 C74.7518632,6.34122241 74.204987,6.97314092 74.204987,7.82747029 L74.204987,12.6960611 Z" id="Fill-11" fill="#4A138C"></path>
                    <path d="M87.5836511,8.4426146 C87.5836511,7.00730051 86.660755,6.34142615 85.6695843,6.34142615 C84.6957371,6.34142615 83.7555176,7.00730051 83.7555176,8.4426146 C83.7555176,9.86027165 84.6957371,10.560781 85.6695843,10.560781 C86.660755,10.560781 87.5836511,9.87758913 87.5836511,8.4426146 M90.1808035,8.4426146 C90.1808035,11.0731749 88.2157856,12.952292 85.6695843,12.952292 C83.1407065,12.952292 81.1583652,11.0731749 81.1583652,8.4426146 C81.1583652,5.81171477 83.1407065,3.94991511 85.6695843,3.94991511 C88.2157856,3.94991511 90.1808035,5.81171477 90.1808035,8.4426146" id="Fill-12" fill="#4A138C"></path>
                    <path d="M94.4517708,12.6960611 L91.8546184,12.6960611 L91.8546184,4.2060781 L94.3661728,4.2060781 L94.3661728,5.17959253 C94.827451,4.37687606 95.8702522,3.98400679 96.7415177,3.98400679 C98.877392,3.98400679 99.8345952,5.50421053 99.8345952,7.36634975 L99.8345952,12.6960611 L97.2371031,12.6960611 L97.2371031,7.81049236 C97.2371031,6.97314092 96.7931483,6.34122241 95.8529288,6.34122241 C94.9983074,6.34122241 94.4517708,6.97314092 94.4517708,7.82747029 L94.4517708,12.6960611 Z" id="Fill-13" fill="#4A138C"></path>
                    <polygon id="Fill-14" fill="#4A138C" points="102.379743 15.9586757 104.310794 11.551545 100.739115 4.20587436 103.644352 4.20587436 105.711952 8.75018676 107.591711 4.20587436 110.342737 4.20587436 105.113785 15.9586757"></polygon>
                    <path d="M111.657413,12.6960611 L111.657413,4.2060781 L114.135,4.2060781 L114.135,5.17959253 C114.562311,4.42814941 115.655724,3.94971138 116.57862,3.94971138 C117.792277,3.94971138 118.663543,4.44512733 119.090854,5.28213922 C119.757295,4.32560272 120.57761,3.94971138 121.722313,3.94971138 C123.328635,3.94971138 124.866682,4.88926995 124.866682,7.19555178 L124.866682,12.6960611 L122.354448,12.6960611 L122.354448,7.77619694 C122.354448,6.97314092 121.927137,6.34122241 121.00492,6.34122241 C120.082024,6.34122241 119.586439,7.04173175 119.586439,7.79351443 L119.586439,12.6960611 L117.022914,12.6960611 L117.022914,7.77619694 C117.022914,6.97314092 116.595943,6.34122241 115.655724,6.34122241 C114.750151,6.34122241 114.254566,7.04173175 114.254566,7.81049236 L114.254566,12.6960611 L111.657413,12.6960611 Z" id="Fill-15" fill="#4A138C"></path>
                    <path d="M132.86157,8.4426146 C132.86157,7.00730051 131.938674,6.34142615 130.947504,6.34142615 C129.973656,6.34142615 129.033437,7.00730051 129.033437,8.4426146 C129.033437,9.86027165 129.973656,10.560781 130.947504,10.560781 C131.938674,10.560781 132.86157,9.87758913 132.86157,8.4426146 M135.458723,8.4426146 C135.458723,11.0731749 133.493705,12.952292 130.947504,12.952292 C128.418626,12.952292 126.436284,11.0731749 126.436284,8.4426146 C126.436284,5.81171477 128.418626,3.94991511 130.947504,3.94991511 C133.493705,3.94991511 135.458723,5.81171477 135.458723,8.4426146" id="Fill-16" fill="#4A138C"></path>
                    <path d="M138.431352,9.34787776 C139.388215,9.34787776 140.191546,10.1336163 140.191546,11.0904924 C140.191546,12.0297114 139.388215,12.8497453 138.431352,12.8497453 C137.474488,12.8497453 136.688141,12.0297114 136.688141,11.0904924 C136.688141,10.1336163 137.474488,9.34787776 138.431352,9.34787776" id="Fill-17" fill="#4A138C"></path>
                    <path d="M147.778043,11.8418336 C147.333749,12.5762988 146.359562,12.8839389 145.50528,12.8839389 C143.437681,12.8839389 142.275653,11.3807131 142.275653,9.57018676 L142.275653,4.20584041 L144.872806,4.20584041 L144.872806,9.02315789 C144.872806,9.84319185 145.31744,10.4920883 146.240336,10.4920883 C147.111602,10.4920883 147.658138,9.8944652 147.658138,9.04047538 L147.658138,4.20584041 L150.25597,4.20584041 L150.25597,11.1756197 C150.25597,11.9443803 150.324245,12.5593209 150.341228,12.696163 L147.846318,12.696163 C147.81235,12.542343 147.778043,12.0639049 147.778043,11.8418336" id="Fill-18" fill="#4A138C"></path>
                    <path d="M154.048098,9.89436333 C154.082405,10.475348 154.492392,11.0390153 155.380981,11.0390153 C156.047423,11.0390153 156.372152,10.6801019 156.372152,10.3045501 C156.372152,9.99724958 156.166988,9.74088285 155.534854,9.60438031 L154.560667,9.38196944 C152.749522,8.98910017 152.031449,7.96397284 152.031449,6.7683871 C152.031449,5.21388795 153.39864,3.94971138 155.295723,3.94971138 C157.756326,3.94971138 158.610948,5.4872326 158.696206,6.47772496 L156.543008,6.87093379 C156.474734,6.30726655 156.115698,5.82882852 155.32969,5.82882852 C154.834105,5.82882852 154.407134,6.1191511 154.407134,6.56329372 C154.407134,6.92220713 154.697556,7.12730051 155.073576,7.19555178 L156.201296,7.41762309 C157.96149,7.77619694 158.815771,8.83528014 158.815771,10.0824788 C158.815771,11.5344312 157.705035,12.9524278 155.432272,12.9524278 C152.766505,12.9524278 151.911884,11.2271307 151.843609,10.2872326 L154.048098,9.89436333 Z" id="Fill-19" fill="#4A138C"></path>
                </g>
            </g>
        </g>
    </g>
</svg>