<?xml version="1.0" encoding="UTF-8"?>
<svg width="210px" height="136px" viewBox="0 0 210 136" version="1.1" xmlns="http://www.w3.org/2000/svg" xmlns:xlink="http://www.w3.org/1999/xlink">
    <!-- Generator: Sketch 44.1 (41455) - http://www.bohemiancoding.com/sketch -->
    <title>Page 1</title>
    <desc>Created with Sketch.</desc>
    <defs></defs>
    <g id="index-v3" stroke="none" stroke-width="1" fill="none" fill-rule="evenodd">
        <g transform="translate(-615.000000, -56.000000)" id="Page-1">
            <g transform="translate(615.280000, 56.000000)">
                <g id="Group-28" transform="translate(0.000000, 0.419184)">
                    <g id="Group" transform="translate(0.000000, 54.400000)">
                        <polygon id="Fill-1" fill="#AA00FF" points="0 0.770055263 0 16.7272395 3.57972342 16.7272395 3.57972342 10.7624763 9.47895009 10.7624763 9.47895009 7.52173947 3.55734735 7.52173947 3.55734735 4.14589737 10.2889638 4.14589737 10.2889638 0.770055263"></polygon>
                        <path d="M18.7978665,8.91730526 C18.4152358,8.82738421 18.0549811,8.80501579 17.7171024,8.80501579 C16.3441069,8.80501579 15.1058152,9.6152 15.1058152,11.8430947 L15.1058152,16.7270158 L11.6836194,16.7270158 L11.6836194,5.54146316 L14.9930399,5.54146316 L14.9930399,7.04954211 C15.5783978,5.78885789 16.996593,5.42872632 17.8974535,5.42872632 C18.2348846,5.42872632 18.5727633,5.47391053 18.7978665,5.54146316 L18.7978665,8.91730526 Z" id="Fill-2" fill="#AA00FF"></path>
                        <path d="M20.8679214,16.7266579 L24.2901173,16.7266579 L24.2901173,5.54110526 L20.8679214,5.54110526 L20.8679214,16.7266579 Z M22.5564195,0.117210526 C23.6819357,0.117210526 24.5827962,1.01776316 24.5827962,2.12052632 C24.5827962,3.22328947 23.6819357,4.12339474 22.5564195,4.12339474 C21.4756554,4.12339474 20.5752424,3.22328947 20.5752424,2.12052632 C20.5752424,1.01776316 21.4756554,0.117210526 22.5564195,0.117210526 L22.5564195,0.117210526 Z" id="Fill-4" fill="#AA00FF"></path>
                        <path d="M34.3527247,9.79504211 C34.3075251,8.94012105 33.7221671,7.90446316 32.1012447,7.90446316 C30.6606734,7.90446316 29.940164,8.96248947 29.8725883,9.79504211 L34.3527247,9.79504211 Z M37.4594181,13.5086474 C36.9192598,15.4444105 35.1408098,17.0647789 32.3039719,17.0647789 C29.2196546,17.0647789 26.4727685,14.8588053 26.4727685,11.1004632 C26.4727685,7.49959474 29.1520789,5.2037 32.0564926,5.2037 C35.5234406,5.2037 37.6621452,7.34212105 37.6621452,10.9425421 C37.6621452,11.4154105 37.6169456,11.9330158 37.5945695,12.0010158 L29.8050126,12.0010158 C29.8725883,13.2612526 31.0204806,14.1613579 32.348724,14.1613579 C33.5874632,14.1613579 34.285149,13.5762 34.600204,12.6984632 L37.4594181,13.5086474 Z" id="Fill-6" fill="#AA00FF"></path>
                        <path d="M43.2889656,16.7270605 L39.8667697,16.7270605 L39.8667697,5.54150789 L43.1766378,5.54150789 L43.1766378,6.82411316 C43.7843718,5.76653421 45.1573674,5.24892895 46.3057072,5.24892895 C49.1201691,5.24892895 50.3808368,7.25179737 50.3808368,9.70516579 L50.3808368,16.7270605 L46.9586409,16.7270605 L46.9586409,10.2903237 C46.9586409,9.18711316 46.3732829,8.35456053 45.1349913,8.35456053 C44.009475,8.35456053 43.2889656,9.18711316 43.2889656,10.3126921 L43.2889656,16.7270605 Z" id="Fill-7" fill="#AA00FF"></path>
                        <path d="M58.4161724,13.9139632 C59.7444158,13.9139632 60.9379553,12.9686737 60.9379553,11.1232789 C60.9379553,9.25506842 59.7444158,8.35451579 58.4161724,8.35451579 C57.087929,8.35451579 55.894837,9.25506842 55.894837,11.1232789 C55.894837,12.9686737 57.087929,13.9139632 58.4161724,13.9139632 L58.4161724,13.9139632 Z M64.2697519,14.7241474 C64.2697519,15.7365421 64.3373276,16.4791737 64.3601512,16.7270158 L61.0731068,16.7270158 C61.0502832,16.5919105 60.9827075,16.0971211 60.9827075,15.6466211 C60.4649252,16.4120684 59.339409,16.9748579 57.988342,16.9748579 C54.836449,16.9748579 52.4498175,14.5438579 52.4498175,11.1004632 C52.4498175,7.76980526 54.7012975,5.27125263 57.8755666,5.27125263 C59.7896155,5.27125263 60.6224528,5.99151579 60.8927557,6.4192 L60.8927557,0.432515789 L64.2697519,0.432515789 L64.2697519,14.7241474 Z" id="Fill-8" fill="#AA00FF"></path>
                        <path d="M69.3336799,13.0358237 C69.3788796,13.8012711 69.9190379,14.5439026 71.0897538,14.5439026 C71.9677907,14.5439026 72.3956211,14.0710342 72.3956211,13.5762447 C72.3956211,13.1713763 72.1253182,12.8336132 71.292481,12.6537711 L70.0089897,12.3607447 C67.6223582,11.8431395 66.6767456,10.4925342 66.6767456,8.91735 C66.6767456,6.86929737 68.4780191,5.20374474 70.9769784,5.20374474 C74.2192707,5.20374474 75.3447869,7.22942895 75.4575623,8.53440263 L72.6207244,9.05245526 C72.5307726,8.30982368 72.0577425,7.67948158 71.0221781,7.67948158 C70.3692444,7.67948158 69.8062625,8.06198158 69.8062625,8.64713947 C69.8062625,9.12000789 70.1893408,9.39021842 70.6847469,9.48013947 L72.1705179,9.77271842 C74.4895736,10.2451395 75.6150898,11.6404816 75.6150898,13.2836658 C75.6150898,15.1966132 74.151695,17.0648237 71.1573295,17.0648237 C67.6451818,17.0648237 66.5192181,14.7917447 66.4292663,13.5534289 L69.3336799,13.0358237 Z" id="Fill-9" fill="#AA00FF"></path>
                        <path d="M82.6153086,10.2450053 L86.487711,10.2450053 L84.5736621,4.73118947 L82.6153086,10.2450053 Z M87.6132272,13.4861895 L81.4445927,13.4861895 L80.2962529,16.7269263 L76.5590019,16.7269263 L82.5701089,0.770189474 L86.6899906,0.770189474 L92.6339694,16.7269263 L88.761567,16.7269263 L87.6132272,13.4861895 Z" id="Fill-10" fill="#4A138C"></path>
                        <path d="M97.7650704,16.7270605 L94.3428745,16.7270605 L94.3428745,5.54150789 L97.6527426,5.54150789 L97.6527426,6.82411316 C98.2604766,5.76653421 99.6334721,5.24892895 100.781812,5.24892895 C103.596274,5.24892895 104.856942,7.25179737 104.856942,9.70516579 L104.856942,16.7270605 L101.434746,16.7270605 L101.434746,10.2903237 C101.434746,9.18711316 100.849388,8.35456053 99.6110961,8.35456053 C98.4855798,8.35456053 97.7650704,9.18711316 97.7650704,10.3126921 L97.7650704,16.7270605 Z" id="Fill-11" fill="#4A138C"></path>
                        <path d="M115.39146,11.1231447 C115.39146,9.23211842 114.175545,8.35482895 112.869677,8.35482895 C111.586634,8.35482895 110.347894,9.23211842 110.347894,11.1231447 C110.347894,12.9909079 111.586634,13.9138289 112.869677,13.9138289 C114.175545,13.9138289 115.39146,13.0137237 115.39146,11.1231447 M118.813209,11.1231447 C118.813209,14.5889079 116.224298,17.0646447 112.869677,17.0646447 C109.537881,17.0646447 106.926146,14.5889079 106.926146,11.1231447 C106.926146,7.65693421 109.537881,5.20401316 112.869677,5.20401316 C116.224298,5.20401316 118.813209,7.65693421 118.813209,11.1231447" id="Fill-12" fill="#4A138C"></path>
                        <path d="M124.440208,16.7270605 L121.01846,16.7270605 L121.01846,5.54150789 L124.327433,5.54150789 L124.327433,6.82411316 C124.935167,5.76653421 126.309057,5.24892895 127.45695,5.24892895 C130.270964,5.24892895 131.532079,7.25179737 131.532079,9.70516579 L131.532079,16.7270605 L128.109883,16.7270605 L128.109883,10.2903237 C128.109883,9.18711316 127.524973,8.35456053 126.286234,8.35456053 C125.16027,8.35456053 124.440208,9.18711316 124.440208,10.3126921 L124.440208,16.7270605 Z" id="Fill-13" fill="#4A138C"></path>
                        <polygon id="Fill-14" fill="#4A138C" points="134.885312 21.0255553 137.429471 15.2191605 132.723784 5.54123947 136.551434 5.54123947 139.275497 11.5283711 141.75208 5.54123947 145.376555 5.54123947 138.487412 21.0255553"></polygon>
                        <path d="M147.108642,16.7270605 L147.108642,5.54150789 L150.372863,5.54150789 L150.372863,6.82411316 C150.935845,5.83408684 152.376416,5.20374474 153.592332,5.20374474 C155.191326,5.20374474 156.339218,5.85645526 156.9022,6.95921842 C157.780237,5.69898158 158.861001,5.20374474 160.369148,5.20374474 C162.485476,5.20374474 164.511853,6.44161316 164.511853,9.48013947 L164.511853,16.7270605 L161.201985,16.7270605 L161.201985,10.2451395 C161.201985,9.18711316 160.639003,8.35456053 159.423983,8.35456053 C158.208067,8.35456053 157.555133,9.27748158 157.555133,10.2679553 L157.555133,16.7270605 L154.17769,16.7270605 L154.17769,10.2451395 C154.17769,9.18711316 153.615155,8.35456053 152.376416,8.35456053 C151.183324,8.35456053 150.530391,9.27748158 150.530391,10.2903237 L150.530391,16.7270605 L147.108642,16.7270605 Z" id="Fill-15" fill="#4A138C"></path>
                        <path d="M175.045119,11.1231447 C175.045119,9.23211842 173.829203,8.35482895 172.523336,8.35482895 C171.240292,8.35482895 170.001553,9.23211842 170.001553,11.1231447 C170.001553,12.9909079 171.240292,13.9138289 172.523336,13.9138289 C173.829203,13.9138289 175.045119,13.0137237 175.045119,11.1231447 M178.466867,11.1231447 C178.466867,14.5889079 175.877956,17.0646447 172.523336,17.0646447 C169.191539,17.0646447 166.579805,14.5889079 166.579805,11.1231447 C166.579805,7.65693421 169.191539,5.20401316 172.523336,5.20401316 C175.877956,5.20401316 178.466867,7.65693421 178.466867,11.1231447" id="Fill-16" fill="#4A138C"></path>
                        <path d="M182.383306,12.3158289 C183.643973,12.3158289 184.702361,13.3510395 184.702361,14.6117237 C184.702361,15.8491447 183.643973,16.9295395 182.383306,16.9295395 C181.122638,16.9295395 180.086626,15.8491447 180.086626,14.6117237 C180.086626,13.3510395 181.122638,12.3158289 182.383306,12.3158289" id="Fill-17" fill="#4A138C"></path>
                        <path d="M194.697572,15.6016158 C194.112214,16.5692737 192.828723,16.9745895 191.703207,16.9745895 C188.979144,16.9745895 187.448173,14.9940895 187.448173,12.6087211 L187.448173,5.54119474 L190.869922,5.54119474 L190.869922,11.8880105 C190.869922,12.9684053 191.455727,13.8233263 192.671643,13.8233263 C193.819535,13.8233263 194.539597,13.0359579 194.539597,11.9108263 L194.539597,5.54119474 L197.96224,5.54119474 L197.96224,14.7238789 C197.96224,15.7367211 198.052192,16.5469053 198.074568,16.7271947 L194.787524,16.7271947 C194.742772,16.5245368 194.697572,15.8941947 194.697572,15.6016158" id="Fill-18" fill="#4A138C"></path>
                        <path d="M202.958369,13.0358237 C203.003569,13.8012711 203.543727,14.5439026 204.714443,14.5439026 C205.59248,14.5439026 206.02031,14.0710342 206.02031,13.5762447 C206.02031,13.1713763 205.750007,12.8336132 204.91717,12.6537711 L203.633679,12.3607447 C201.247495,11.8431395 200.301435,10.4925342 200.301435,8.91735 C200.301435,6.86929737 202.102708,5.20374474 204.602115,5.20374474 C207.84396,5.20374474 208.969924,7.22942895 209.082251,8.53440263 L206.245413,9.05245526 C206.155462,8.30982368 205.682432,7.67948158 204.646867,7.67948158 C203.993933,7.67948158 203.431399,8.06198158 203.431399,8.64713947 C203.431399,9.12000789 203.81403,9.39021842 204.309436,9.48013947 L205.795207,9.77271842 C208.114263,10.2451395 209.239779,11.6404816 209.239779,13.2836658 C209.239779,15.1966132 207.776384,17.0648237 204.782019,17.0648237 C201.269871,17.0648237 200.143907,14.7917447 200.053955,13.5534289 L202.958369,13.0358237 Z" id="Fill-19" fill="#4A138C"></path>
                    </g>
                    <g id="Group-3" transform="translate(18.360000, 0.000000)">
                        <path d="M18.0207573,18.5009658 L13.5862681,18.5009658 C12.6120141,18.5009658 11.7120486,19.0203605 11.2251453,19.86365 L9.00767696,23.7029658 C8.52077371,24.5462553 8.52077371,25.5850447 9.00767696,26.4283342 L11.2251453,30.2672026 C11.7120486,31.1104921 12.6120141,31.6298868 13.5862681,31.6298868 L18.0207573,31.6298868 C18.9945638,31.6298868 19.8945293,31.1104921 20.3814325,30.2672026 L22.5989009,26.4283342 C23.0858041,25.5850447 23.0858041,24.5462553 22.5989009,23.7029658 L20.3814325,19.86365 C19.8945293,19.0203605 18.9945638,18.5009658 18.0207573,18.5009658" id="Fill-20" fill="#FF8A80"></path>
                        <path d="M118.819709,126.876637 L117.349602,126.876637 C116.375348,126.876637 115.475382,127.396032 114.988479,128.239321 L114.253649,129.512084 C113.766746,130.354926 113.766746,131.394163 114.253649,132.237005 L114.988479,133.509768 C115.475382,134.353058 116.375348,134.872453 117.349602,134.872453 L118.819709,134.872453 C119.793516,134.872453 120.693481,134.353058 121.180385,133.509768 L121.915662,132.237005 C122.402565,131.394163 122.402565,130.354926 121.915662,129.512084 L121.180385,128.239321 C120.693481,127.396032 119.793516,126.876637 118.819709,126.876637" id="Fill-21" fill="#B9F7CA"></path>
                        <path d="M104.881433,21.1646421 L105.692341,22.6463263 C105.807802,22.8579316 105.981888,23.0319579 106.194013,23.1478263 L107.675756,23.9580105 C108.551555,24.4366947 108.551555,25.6942474 107.675756,26.1729316 L106.194013,26.9831158 C105.981888,27.0989842 105.807802,27.2730105 105.692341,27.4846158 L104.881433,28.9663 C104.402585,29.8418 103.144602,29.8418 102.666202,28.9663 L101.855293,27.4846158 C101.739385,27.2730105 101.565299,27.0989842 101.353622,26.9831158 L99.8718784,26.1729316 C98.9960791,25.6942474 98.9960791,24.4366947 99.8718784,23.9580105 L101.353622,23.1478263 C101.565299,23.0319579 101.739385,22.8579316 101.855293,22.6463263 L102.666202,21.1646421 C103.144602,20.2891421 104.402585,20.2891421 104.881433,21.1646421" id="Fill-22" fill="#80D8FF"></path>
                        <path d="M8.21399781,106.688466 L9.31400533,108.698939 C9.47153285,108.986597 9.70782414,109.222808 9.99513285,109.380282 L12.0067414,110.479913 C13.1949106,111.129492 13.1949106,112.835755 12.0067414,113.485782 L9.99513285,114.585413 C9.70782414,114.742887 9.47153285,114.979097 9.31400533,115.266755 L8.21399781,117.277229 C7.56374926,118.464992 5.85690277,118.464992 5.20665422,117.277229 L4.1066467,115.266755 C3.9495667,114.979097 3.71327542,114.742887 3.42551918,114.585413 L1.41435815,113.485782 C0.225741402,112.835755 0.225741402,111.129492 1.41435815,110.479913 L3.42551918,109.380282 C3.71327542,109.222808 3.9495667,108.986597 4.1066467,108.698939 L5.20665422,106.688466 C5.85690277,105.500255 7.56374926,105.500255 8.21399781,106.688466" id="Fill-23" fill="#FFE57F"></path>
                        <path d="M67.7577003,94.7829632 C68.5815871,93.3563053 70.6419755,93.3563053 71.4658624,94.7829632 L73.3709608,98.0818579 L75.2765068,101.380753 C76.1008412,102.807411 75.070647,104.591516 73.4224258,104.591516 L69.6117813,104.591516 L65.8011369,104.591516 C64.1529157,104.591516 63.123169,102.807411 63.9470559,101.380753 L65.8521543,98.0818579 L67.7577003,94.7829632 Z" id="Fill-24" fill="#80D8FF"></path>
                        <path d="M171.066084,34.9804079 C171.459902,34.2981711 172.444897,34.2981711 172.839163,34.9804079 L173.749869,36.5573816 L174.660575,38.1348026 C175.054842,38.8170395 174.562121,39.6697237 173.774483,39.6697237 L171.952176,39.6697237 L170.130764,39.6697237 C169.342679,39.6697237 168.850405,38.8170395 169.244224,38.1348026 L170.155378,36.5573816 L171.066084,34.9804079 Z" id="Fill-25" fill="#FFE57F"></path>
                        <path d="M144.210863,93.7632763 L143.371313,92.9235658 C142.043965,91.5971184 142.043965,89.4466184 143.371313,88.1201711 L144.210863,87.2804605 C145.537764,85.9540132 147.688999,85.9540132 149.016348,87.2804605 L149.855898,88.1201711 C151.182799,89.4466184 151.182799,91.5971184 149.855898,92.9235658 L149.016348,93.7632763 C147.688999,95.0897237 145.537764,95.0897237 144.210863,93.7632763" id="Fill-26" fill="#FF8A80"></path>
                        <path d="M51.4159653,6.31214474 L51.1734087,6.06967105 C49.8465079,4.74322368 49.8465079,2.59227632 51.1734087,1.26582895 L51.4159653,1.02335526 C52.7428662,-0.303539474 54.8941014,-0.303539474 56.2214497,1.02335526 L56.4640063,1.26582895 C57.7909072,2.59227632 57.7909072,4.74322368 56.4640063,6.06967105 L56.2214497,6.31214474 C54.8941014,7.63859211 52.7428662,7.63859211 51.4159653,6.31214474" id="Fill-27" fill="#B9F7CA"></path>
                    </g>
                </g>
            </g>
        </g>
    </g>
</svg>