<svg width="1650" height="1050" viewBox="0 0 1650 1050" fill="none" xmlns="http://www.w3.org/2000/svg">
<rect width="1650" height="1050" fill="white"/>
<g clip-path="url(#clip0_306_2)">
<rect x="120.5" y="173" width="68" height="68" fill="#263030"/>
<rect x="120.5" y="173" width="68" height="68" stroke="#263030" stroke-width="2"/>
<path fill-rule="evenodd" clip-rule="evenodd" d="M147.057 203.216L147.06 203.209C147.44 202.135 147.935 201.134 148.544 200.208L148.546 200.205L148.547 200.203C149.163 199.279 149.847 198.429 150.6 197.655L150.6 197.654C151.35 196.883 152.113 196.173 152.89 195.526C153.676 194.867 154.444 194.27 155.194 193.734L157.318 192.217C157.687 191.953 158.198 192.02 158.487 192.371L158.615 192.527C158.908 192.883 159.201 193.248 159.493 193.624C159.801 193.994 160.1 194.354 160.388 194.704L160.537 194.885C160.859 195.276 160.777 195.858 160.361 196.146L160.167 196.279C159.567 196.693 158.926 197.137 158.243 197.613C157.852 197.886 157.467 198.159 157.09 198.432C156.792 198.647 156.884 199.12 157.228 199.246C157.333 199.285 157.438 199.326 157.542 199.369C158.511 199.771 159.363 200.331 160.087 201.052C160.832 201.752 161.418 202.581 161.845 203.531C162.284 204.507 162.5 205.55 162.5 206.649C162.5 207.748 162.284 208.798 161.849 209.789L161.847 209.793L161.845 209.798C161.418 210.747 160.833 211.584 160.094 212.302C159.373 213.021 158.525 213.591 157.562 214.014L157.556 214.016L157.55 214.019C156.583 214.43 155.557 214.633 154.484 214.633C153.571 214.633 152.658 214.477 151.748 214.174C150.81 213.861 149.949 213.381 149.166 212.741L149.153 212.73L149.139 212.718C148.365 212.04 147.733 211.213 147.241 210.251L147.234 210.237L147.227 210.223C146.729 209.179 146.5 207.987 146.5 206.68C146.5 205.471 146.683 204.316 147.055 203.222L147.057 203.216ZM157.227 207.833L157.235 207.816C157.397 207.463 157.479 207.088 157.479 206.68C157.479 206.272 157.397 205.897 157.235 205.544L157.227 205.527L157.22 205.509C157.066 205.139 156.853 204.823 156.582 204.551C156.311 204.28 155.994 204.068 155.624 203.914C155.263 203.763 154.876 203.686 154.453 203.686C154.06 203.686 153.685 203.76 153.321 203.91C152.98 204.06 152.689 204.265 152.439 204.529C152.181 204.803 151.971 205.126 151.811 205.509C151.661 205.87 151.583 206.257 151.583 206.68C151.583 207.103 151.661 207.49 151.811 207.851C151.971 208.234 152.181 208.557 152.439 208.831C152.694 209.1 152.993 209.32 153.346 209.492C153.673 209.631 154.038 209.706 154.453 209.706C154.869 209.706 155.251 209.63 155.607 209.485C155.985 209.309 156.307 209.084 156.582 208.809C156.853 208.538 157.066 208.221 157.22 207.851L157.227 207.833Z" fill="white"/>
<path d="M147.58 217.192C147.103 217.192 146.716 217.579 146.716 218.056V221.08C146.716 221.557 147.103 221.944 147.58 221.944H161.403C161.88 221.944 162.267 221.557 162.267 221.08V218.056C162.267 217.579 161.88 217.192 161.403 217.192H147.58Z" fill="white"/>
<rect x="188.5" y="173" width="1341" height="68" stroke="#263030" stroke-width="2"/>
<rect x="120.5" y="241" width="164" height="68" stroke="#263030" stroke-width="2"/>
<path d="M154.88 274.46V272.94C154.88 272.4 154.68 272.2 154.12 272.2H150.06C149.52 272.2 149.32 272.4 149.32 272.94V281.06C149.32 281.6 149.52 281.8 150.06 281.8H154.12C154.68 281.8 154.88 281.6 154.88 281.06V278.5H151.78V276.38H157.28V281.2C157.28 283.1 156.38 284 154.48 284H149.72C147.82 284 146.92 283.1 146.92 281.2V272.8C146.92 270.9 147.82 270 149.72 270H154.48C156.38 270 157.28 270.9 157.28 272.8V274.46H154.88ZM175.669 282.02V284H169.889V282.02H171.529L170.789 279.82H165.689L164.949 282.02H166.549V284H160.889V282.02H162.509L166.009 271.98H164.389V270H169.849L174.049 282.02H175.669ZM170.109 277.78L168.249 272.16L166.369 277.78H170.109ZM194.254 271.98V282.02H196.094V284H189.954V282.02H191.894V274.04L188.374 281.86H186.534L183.014 274.04V282.02H184.954V284H178.874V282.02H180.714V271.98H178.874V270H183.454L187.514 278.94L191.574 270H196.094V271.98H194.254ZM210.722 270V274.08H208.582V272.06H203.922V275.8H209.142V277.96H203.922V281.94H208.582V279.92H210.722V284H199.682V282.02H201.522V271.98H199.682V270H210.722ZM236.322 271.98H234.562V284H232.122L226.142 273.56V282.02H228.162V284H222.022V282.02H223.862V271.98H222.022V270H226.502L232.282 280.1V271.98H230.262V270H236.322V271.98ZM247.849 284H243.009C241.109 284 240.209 283.1 240.209 281.2V272.8C240.209 270.9 241.109 270 243.009 270H247.849C249.749 270 250.649 270.9 250.649 272.8V281.2C250.649 283.1 249.749 284 247.849 284ZM242.609 272.94V281.06C242.609 281.6 242.809 281.8 243.349 281.8H247.509C248.049 281.8 248.249 281.6 248.249 281.06V272.94C248.249 272.4 248.049 272.2 247.509 272.2H243.349C242.809 272.2 242.609 272.4 242.609 272.94ZM257.974 284H255.194V281.24H257.974V284Z" fill="#263030"/>
<rect x="284.5" y="241" width="158" height="68" stroke="#263030" stroke-width="2"/>
<rect x="442.5" y="241" width="114" height="68" stroke="#263030" stroke-width="2"/>
<path d="M475.92 279.14V282.02H477.88V284H471.54V282.02H473.52V279.14L469.54 271.98H467.92V270H473.38V271.98H472.14L474.74 276.8L477.34 271.98H476.08V270H481.5V271.98H479.88L475.92 279.14ZM495.734 270V274.08H493.594V272.06H488.934V275.8H494.154V277.96H488.934V281.94H493.594V279.92H495.734V284H484.694V282.02H486.534V271.98H484.694V270H495.734ZM514.141 282.02V284H508.361V282.02H510.001L509.261 279.82H504.161L503.421 282.02H505.021V284H499.361V282.02H500.981L504.481 271.98H502.861V270H508.321L512.521 282.02H514.141ZM508.581 277.78L506.721 272.16L504.841 277.78H508.581ZM530.426 282.02V284H527.006L524.266 278.42H521.586V282.02H523.646V284H517.346V282.02H519.186V271.98H517.346V270H526.206C528.106 270 529.006 270.9 529.006 272.8V275.5C529.006 277.2 528.286 278.08 526.806 278.26L528.606 282.02H530.426ZM521.586 276.3H525.846C526.406 276.3 526.606 276.1 526.606 275.56V272.9C526.606 272.34 526.406 272.14 525.846 272.14H521.586V276.3Z" fill="#263030"/>
<rect x="556.5" y="241" width="158" height="68" stroke="#263030" stroke-width="2"/>
<rect x="714.5" y="241" width="135" height="68" stroke="#263030" stroke-width="2"/>
<path d="M755.66 271.98V282.02H757.5V284H751.36V282.02H753.3V274.04L749.78 281.86H747.94L744.42 274.04V282.02H746.36V284H740.28V282.02H742.12V271.98H740.28V270H744.86L748.92 278.94L752.98 270H757.5V271.98H755.66ZM769.134 284H764.294C762.394 284 761.494 283.1 761.494 281.2V272.8C761.494 270.9 762.394 270 764.294 270H769.134C771.034 270 771.934 270.9 771.934 272.8V281.2C771.934 283.1 771.034 284 769.134 284ZM763.894 272.94V281.06C763.894 281.6 764.094 281.8 764.634 281.8H768.794C769.334 281.8 769.534 281.6 769.534 281.06V272.94C769.534 272.4 769.334 272.2 768.794 272.2H764.634C764.094 272.2 763.894 272.4 763.894 272.94ZM790.221 271.98H788.461V284H786.021L780.041 273.56V282.02H782.061V284H775.921V282.02H777.761V271.98H775.921V270H780.401L786.181 280.1V271.98H784.161V270H790.221V271.98ZM805.622 270V274.62H803.482V272.04H800.822V282.02H803.022V284H796.202V282.02H798.422V272.04H795.762V274.62H793.622V270H805.622ZM821.4 271.98V282.02H823.24V284H817.18V282.02H819V277.9H813.34V282.02H815.16V284H809.1V282.02H810.94V271.98H809.1V270H815.16V271.98H813.34V275.72H819V271.98H817.18V270H823.24V271.98H821.4Z" fill="#263030"/>
<rect x="849.5" y="241" width="158" height="68" stroke="#263030" stroke-width="2"/>
<rect x="1007.5" y="241" width="96" height="68" stroke="#263030" stroke-width="2"/>
<path d="M1033.28 282.02H1035.12V271.98H1033.28V270H1042.52C1044.42 270 1045.32 270.9 1045.32 272.8V281.2C1045.32 283.1 1044.42 284 1042.52 284H1033.28V282.02ZM1037.52 281.8H1042.16C1042.72 281.8 1042.92 281.6 1042.92 281.06V272.94C1042.92 272.4 1042.72 272.2 1042.16 272.2H1037.52V281.8ZM1063.49 282.02V284H1057.71V282.02H1059.35L1058.61 279.82H1053.51L1052.77 282.02H1054.37V284H1048.71V282.02H1050.33L1053.83 271.98H1052.21V270H1057.67L1061.87 282.02H1063.49ZM1057.93 277.78L1056.07 272.16L1054.19 277.78H1057.93ZM1071.93 279.14V282.02H1073.89V284H1067.55V282.02H1069.53V279.14L1065.55 271.98H1063.93V270H1069.39V271.98H1068.15L1070.75 276.8L1073.35 271.98H1072.09V270H1077.51V271.98H1075.89L1071.93 279.14Z" fill="#263030"/>
<rect x="1103.5" y="241" width="158" height="68" stroke="#263030" stroke-width="2"/>
<rect x="1261.5" y="241" width="110" height="68" stroke="#263030" stroke-width="2"/>
<path d="M1299.2 270V274.62H1297.06V272.04H1294.4V282.02H1296.6V284H1289.78V282.02H1292V272.04H1289.34V274.62H1287.2V270H1299.2ZM1307.12 271.98V282.02H1309.06V284H1302.76V282.02H1304.72V271.98H1302.76V270H1309.06V271.98H1307.12ZM1328.09 271.98V282.02H1329.93V284H1323.79V282.02H1325.73V274.04L1322.21 281.86H1320.37L1316.85 274.04V282.02H1318.79V284H1312.71V282.02H1314.55V271.98H1312.71V270H1317.29L1321.35 278.94L1325.41 270H1329.93V271.98H1328.09ZM1344.55 270V274.08H1342.41V272.06H1337.75V275.8H1342.97V277.96H1337.75V281.94H1342.41V279.92H1344.55V284H1333.51V282.02H1335.35V271.98H1333.51V270H1344.55Z" fill="#263030"/>
<rect x="1371.5" y="241" width="158" height="68" stroke="#263030" stroke-width="2"/>
<rect x="120.5" y="309" width="131" height="68" stroke="#263030" stroke-width="2"/>
<path d="M159.36 350.02V352H155.94L153.2 346.42H150.52V350.02H152.58V352H146.28V350.02H148.12V339.98H146.28V338H155.14C157.04 338 157.94 338.9 157.94 340.8V343.5C157.94 345.2 157.22 346.08 155.74 346.26L157.54 350.02H159.36ZM150.52 344.3H154.78C155.34 344.3 155.54 344.1 155.54 343.56V340.9C155.54 340.34 155.34 340.14 154.78 340.14H150.52V344.3ZM170.564 352H165.724C163.824 352 162.924 351.1 162.924 349.2V340.8C162.924 338.9 163.824 338 165.724 338H170.564C172.464 338 173.364 338.9 173.364 340.8V349.2C173.364 351.1 172.464 352 170.564 352ZM165.324 340.94V349.06C165.324 349.6 165.524 349.8 166.064 349.8H170.224C170.764 349.8 170.964 349.6 170.964 349.06V340.94C170.964 340.4 170.764 340.2 170.224 340.2H166.064C165.524 340.2 165.324 340.4 165.324 340.94ZM190.97 339.98H189.23V349.2C189.23 351.1 188.33 352 186.43 352H181.81C179.91 352 179.01 351.1 179.01 349.2V339.98H177.27V338H183.25V339.98H181.41V349.06C181.41 349.6 181.61 349.8 182.15 349.8H186.09C186.63 349.8 186.83 349.6 186.83 349.06V339.98H184.99V338H190.97V339.98ZM208.748 339.98H206.988V352H204.548L198.568 341.56V350.02H200.588V352H194.448V350.02H196.288V339.98H194.448V338H198.928L204.708 348.1V339.98H202.688V338H208.748V339.98ZM212.229 350.02H214.069V339.98H212.229V338H221.469C223.369 338 224.269 338.9 224.269 340.8V349.2C224.269 351.1 223.369 352 221.469 352H212.229V350.02ZM216.469 349.8H221.109C221.669 349.8 221.869 349.6 221.869 349.06V340.94C221.869 340.4 221.669 340.2 221.109 340.2H216.469V349.8Z" fill="#263030"/>
<rect x="251.5" y="309" width="1278" height="68" stroke="#263030" stroke-width="2"/>
<path d="M285.88 342.46V340.94C285.88 340.4 285.68 340.2 285.12 340.2H281.06C280.52 340.2 280.32 340.4 280.32 340.94V349.06C280.32 349.6 280.52 349.8 281.06 349.8H285.12C285.68 349.8 285.88 349.6 285.88 349.06V346.5H282.78V344.38H288.28V349.2C288.28 351.1 287.38 352 285.48 352H280.72C278.82 352 277.92 351.1 277.92 349.2V340.8C277.92 338.9 278.82 338 280.72 338H285.48C287.38 338 288.28 338.9 288.28 340.8V342.46H285.88ZM300.724 352H295.884C293.984 352 293.084 351.1 293.084 349.2V340.8C293.084 338.9 293.984 338 295.884 338H300.724C302.624 338 303.524 338.9 303.524 340.8V349.2C303.524 351.1 302.624 352 300.724 352ZM295.484 340.94V349.06C295.484 349.6 295.684 349.8 296.224 349.8H300.384C300.924 349.8 301.124 349.6 301.124 349.06V340.94C301.124 340.4 300.924 340.2 300.384 340.2H296.224C295.684 340.2 295.484 340.4 295.484 340.94ZM321.716 350.02V352H315.936V350.02H317.576L316.836 347.82H311.736L310.996 350.02H312.596V352H306.936V350.02H308.556L312.056 339.98H310.436V338H315.896L320.096 350.02H321.716ZM316.156 345.78L314.296 340.16L312.416 345.78H316.156ZM335.881 352H324.921V350.02H326.761V339.98H324.921V338H331.321V339.98H329.161V349.94H333.701V346.98H335.881V352ZM347.164 342.3V340.9C347.164 340.34 346.964 340.14 346.404 340.14H342.804C342.264 340.14 342.064 340.34 342.064 340.9V342.38C342.064 343.02 342.324 343.24 343.004 343.38L346.844 344.2C348.544 344.56 349.724 345.18 349.724 347.08V349.2C349.724 351.1 348.824 352 346.924 352H342.424C340.524 352 339.624 351.1 339.624 349.2V347.56H341.964V349.1C341.964 349.66 342.164 349.86 342.724 349.86H346.584C347.124 349.86 347.324 349.66 347.324 349.1V347.42C347.324 346.78 347.064 346.58 346.404 346.44L342.544 345.6C340.844 345.24 339.664 344.62 339.664 342.72V340.8C339.664 338.9 340.564 338 342.464 338H346.704C348.604 338 349.504 338.9 349.504 340.8V342.3H347.164Z" fill="#263030"/>
<rect x="120.5" y="377" width="131" height="68" stroke="#263030" stroke-width="2"/>
<path d="M154.12 420H149.72C147.82 420 146.92 419.1 146.92 417.2V408.8C146.92 406.9 147.82 406 149.72 406H154.12C156.02 406 156.92 406.9 156.92 408.8V417.2C156.92 419.04 156.02 420 154.12 420ZM149.32 408.94V417.06C149.32 417.6 149.52 417.8 150.06 417.8H153.76C154.32 417.8 154.52 417.6 154.52 417.06V408.94C154.52 408.4 154.32 408.2 153.76 408.2H150.06C149.52 408.2 149.32 408.4 149.32 408.94ZM171.615 418.02V420H162.975V418.02H166.155V408.4L162.875 409.58V407.4L166.615 406H168.555V418.02H171.615Z" fill="#263030"/>
<rect x="251.5" y="377" width="358" height="68" stroke="#263030" stroke-width="2"/>
<path fill-rule="evenodd" clip-rule="evenodd" d="M285.5 390C273.902 390 264.5 399.402 264.5 411C264.5 422.598 273.902 432 285.5 432C297.098 432 306.5 422.598 306.5 411C306.5 399.402 297.098 390 285.5 390ZM266.5 411C266.5 400.507 275.007 392 285.5 392C290.422 392 294.906 393.871 298.281 396.941L271.441 423.781C268.371 420.406 266.5 415.922 266.5 411ZM272.863 425.188C276.221 428.181 280.648 430 285.5 430C295.993 430 304.5 421.493 304.5 411C304.5 406.148 302.681 401.721 299.688 398.363L272.863 425.188Z" fill="#263030"/>
<path fill-rule="evenodd" clip-rule="evenodd" d="M343.5 390C331.902 390 322.5 399.402 322.5 411C322.5 422.598 331.902 432 343.5 432C355.098 432 364.5 422.598 364.5 411C364.5 399.402 355.098 390 343.5 390ZM324.5 411C324.5 400.507 333.007 392 343.5 392C348.422 392 352.906 393.871 356.281 396.941L329.441 423.781C326.371 420.406 324.5 415.922 324.5 411ZM330.863 425.188C334.221 428.181 338.648 430 343.5 430C353.993 430 362.5 421.493 362.5 411C362.5 406.148 360.681 401.721 357.688 398.363L330.863 425.188Z" fill="#263030"/>
<path fill-rule="evenodd" clip-rule="evenodd" d="M401.5 390C389.902 390 380.5 399.402 380.5 411C380.5 422.598 389.902 432 401.5 432C413.098 432 422.5 422.598 422.5 411C422.5 399.402 413.098 390 401.5 390ZM382.5 411C382.5 400.507 391.007 392 401.5 392C406.422 392 410.906 393.871 414.281 396.941L387.441 423.781C384.371 420.406 382.5 415.922 382.5 411ZM388.863 425.188C392.221 428.181 396.648 430 401.5 430C411.993 430 420.5 421.493 420.5 411C420.5 406.148 418.681 401.721 415.688 398.363L388.863 425.188Z" fill="#263030"/>
<path fill-rule="evenodd" clip-rule="evenodd" d="M459.5 390C447.902 390 438.5 399.402 438.5 411C438.5 422.598 447.902 432 459.5 432C471.098 432 480.5 422.598 480.5 411C480.5 399.402 471.098 390 459.5 390ZM440.5 411C440.5 400.507 449.007 392 459.5 392C464.422 392 468.906 393.871 472.281 396.941L445.441 423.781C442.371 420.406 440.5 415.922 440.5 411ZM446.863 425.188C450.221 428.181 454.648 430 459.5 430C469.993 430 478.5 421.493 478.5 411C478.5 406.148 476.681 401.721 473.688 398.363L446.863 425.188Z" fill="#263030"/>
<path fill-rule="evenodd" clip-rule="evenodd" d="M517.5 390C505.902 390 496.5 399.402 496.5 411C496.5 422.598 505.902 432 517.5 432C529.098 432 538.5 422.598 538.5 411C538.5 399.402 529.098 390 517.5 390ZM498.5 411C498.5 400.507 507.007 392 517.5 392C522.422 392 526.906 393.871 530.281 396.941L503.441 423.781C500.371 420.406 498.5 415.922 498.5 411ZM504.863 425.188C508.221 428.181 512.648 430 517.5 430C527.993 430 536.5 421.493 536.5 411C536.5 406.148 534.681 401.721 531.688 398.363L504.863 425.188Z" fill="#263030"/>
<path fill-rule="evenodd" clip-rule="evenodd" d="M575.5 390C563.902 390 554.5 399.402 554.5 411C554.5 422.598 563.902 432 575.5 432C587.098 432 596.5 422.598 596.5 411C596.5 399.402 587.098 390 575.5 390ZM556.5 411C556.5 400.507 565.007 392 575.5 392C580.422 392 584.906 393.871 588.281 396.941L561.441 423.781C558.371 420.406 556.5 415.922 556.5 411ZM562.863 425.188C566.221 428.181 570.648 430 575.5 430C585.993 430 594.5 421.493 594.5 411C594.5 406.148 592.681 401.721 589.688 398.363L562.863 425.188Z" fill="#263030"/>
<rect x="609.5" y="377" width="300" height="68" stroke="#263030" stroke-width="2"/>
<path fill-rule="evenodd" clip-rule="evenodd" d="M643.5 390C631.902 390 622.5 399.402 622.5 411C622.5 422.598 631.902 432 643.5 432C655.098 432 664.5 422.598 664.5 411C664.5 399.402 655.098 390 643.5 390ZM624.5 411C624.5 400.507 633.007 392 643.5 392C648.422 392 652.906 393.871 656.281 396.941L629.441 423.781C626.371 420.406 624.5 415.922 624.5 411ZM630.863 425.188C634.221 428.181 638.648 430 643.5 430C653.993 430 662.5 421.493 662.5 411C662.5 406.148 660.681 401.721 657.688 398.363L630.863 425.188Z" fill="#263030"/>
<path fill-rule="evenodd" clip-rule="evenodd" d="M701.5 390C689.902 390 680.5 399.402 680.5 411C680.5 422.598 689.902 432 701.5 432C713.098 432 722.5 422.598 722.5 411C722.5 399.402 713.098 390 701.5 390ZM682.5 411C682.5 400.507 691.007 392 701.5 392C706.422 392 710.906 393.871 714.281 396.941L687.441 423.781C684.371 420.406 682.5 415.922 682.5 411ZM688.863 425.188C692.221 428.181 696.648 430 701.5 430C711.993 430 720.5 421.493 720.5 411C720.5 406.148 718.681 401.721 715.688 398.363L688.863 425.188Z" fill="#263030"/>
<path fill-rule="evenodd" clip-rule="evenodd" d="M759.5 390C747.902 390 738.5 399.402 738.5 411C738.5 422.598 747.902 432 759.5 432C771.098 432 780.5 422.598 780.5 411C780.5 399.402 771.098 390 759.5 390ZM740.5 411C740.5 400.507 749.007 392 759.5 392C764.422 392 768.906 393.871 772.281 396.941L745.441 423.781C742.371 420.406 740.5 415.922 740.5 411ZM746.863 425.188C750.221 428.181 754.648 430 759.5 430C769.993 430 778.5 421.493 778.5 411C778.5 406.148 776.681 401.721 773.688 398.363L746.863 425.188Z" fill="#263030"/>
<path fill-rule="evenodd" clip-rule="evenodd" d="M817.5 390C805.902 390 796.5 399.402 796.5 411C796.5 422.598 805.902 432 817.5 432C829.098 432 838.5 422.598 838.5 411C838.5 399.402 829.098 390 817.5 390ZM798.5 411C798.5 400.507 807.007 392 817.5 392C822.422 392 826.906 393.871 830.281 396.941L803.441 423.781C800.371 420.406 798.5 415.922 798.5 411ZM804.863 425.188C808.221 428.181 812.648 430 817.5 430C827.993 430 836.5 421.493 836.5 411C836.5 406.148 834.681 401.721 831.688 398.363L804.863 425.188Z" fill="#263030"/>
<path fill-rule="evenodd" clip-rule="evenodd" d="M875.5 390C863.902 390 854.5 399.402 854.5 411C854.5 422.598 863.902 432 875.5 432C887.098 432 896.5 422.598 896.5 411C896.5 399.402 887.098 390 875.5 390ZM856.5 411C856.5 400.507 865.007 392 875.5 392C880.422 392 884.906 393.871 888.281 396.941L861.441 423.781C858.371 420.406 856.5 415.922 856.5 411ZM862.863 425.188C866.221 428.181 870.648 430 875.5 430C885.993 430 894.5 421.493 894.5 411C894.5 406.148 892.681 401.721 889.688 398.363L862.863 425.188Z" fill="#263030"/>
<rect x="909.5" y="377" width="242" height="68" stroke="#263030" stroke-width="2"/>
<path fill-rule="evenodd" clip-rule="evenodd" d="M943.5 390C931.902 390 922.5 399.402 922.5 411C922.5 422.598 931.902 432 943.5 432C955.098 432 964.5 422.598 964.5 411C964.5 399.402 955.098 390 943.5 390ZM924.5 411C924.5 400.507 933.007 392 943.5 392C948.422 392 952.906 393.871 956.281 396.941L929.441 423.781C926.371 420.406 924.5 415.922 924.5 411ZM930.863 425.188C934.221 428.181 938.648 430 943.5 430C953.993 430 962.5 421.493 962.5 411C962.5 406.148 960.681 401.721 957.688 398.363L930.863 425.188Z" fill="#263030"/>
<path fill-rule="evenodd" clip-rule="evenodd" d="M1001.5 390C989.902 390 980.5 399.402 980.5 411C980.5 422.598 989.902 432 1001.5 432C1013.1 432 1022.5 422.598 1022.5 411C1022.5 399.402 1013.1 390 1001.5 390ZM982.5 411C982.5 400.507 991.007 392 1001.5 392C1006.42 392 1010.91 393.871 1014.28 396.941L987.441 423.781C984.371 420.406 982.5 415.922 982.5 411ZM988.863 425.188C992.221 428.181 996.648 430 1001.5 430C1011.99 430 1020.5 421.493 1020.5 411C1020.5 406.148 1018.68 401.721 1015.69 398.363L988.863 425.188Z" fill="#263030"/>
<path fill-rule="evenodd" clip-rule="evenodd" d="M1059.5 390C1047.9 390 1038.5 399.402 1038.5 411C1038.5 422.598 1047.9 432 1059.5 432C1071.1 432 1080.5 422.598 1080.5 411C1080.5 399.402 1071.1 390 1059.5 390ZM1040.5 411C1040.5 400.507 1049.01 392 1059.5 392C1064.42 392 1068.91 393.871 1072.28 396.941L1045.44 423.781C1042.37 420.406 1040.5 415.922 1040.5 411ZM1046.86 425.188C1050.22 428.181 1054.65 430 1059.5 430C1069.99 430 1078.5 421.493 1078.5 411C1078.5 406.148 1076.68 401.721 1073.69 398.363L1046.86 425.188Z" fill="#263030"/>
<path fill-rule="evenodd" clip-rule="evenodd" d="M1117.5 390C1105.9 390 1096.5 399.402 1096.5 411C1096.5 422.598 1105.9 432 1117.5 432C1129.1 432 1138.5 422.598 1138.5 411C1138.5 399.402 1129.1 390 1117.5 390ZM1098.5 411C1098.5 400.507 1107.01 392 1117.5 392C1122.42 392 1126.91 393.871 1130.28 396.941L1103.44 423.781C1100.37 420.406 1098.5 415.922 1098.5 411ZM1104.86 425.188C1108.22 428.181 1112.65 430 1117.5 430C1127.99 430 1136.5 421.493 1136.5 411C1136.5 406.148 1134.68 401.721 1131.69 398.363L1104.86 425.188Z" fill="#263030"/>
<rect x="1151.5" y="377" width="184" height="68" stroke="#263030" stroke-width="2"/>
<path fill-rule="evenodd" clip-rule="evenodd" d="M1185.5 390C1173.9 390 1164.5 399.402 1164.5 411C1164.5 422.598 1173.9 432 1185.5 432C1197.1 432 1206.5 422.598 1206.5 411C1206.5 399.402 1197.1 390 1185.5 390ZM1166.5 411C1166.5 400.507 1175.01 392 1185.5 392C1190.42 392 1194.91 393.871 1198.28 396.941L1171.44 423.781C1168.37 420.406 1166.5 415.922 1166.5 411ZM1172.86 425.188C1176.22 428.181 1180.65 430 1185.5 430C1195.99 430 1204.5 421.493 1204.5 411C1204.5 406.148 1202.68 401.721 1199.69 398.363L1172.86 425.188Z" fill="#263030"/>
<path fill-rule="evenodd" clip-rule="evenodd" d="M1243.5 390C1231.9 390 1222.5 399.402 1222.5 411C1222.5 422.598 1231.9 432 1243.5 432C1255.1 432 1264.5 422.598 1264.5 411C1264.5 399.402 1255.1 390 1243.5 390ZM1224.5 411C1224.5 400.507 1233.01 392 1243.5 392C1248.42 392 1252.91 393.871 1256.28 396.941L1229.44 423.781C1226.37 420.406 1224.5 415.922 1224.5 411ZM1230.86 425.188C1234.22 428.181 1238.65 430 1243.5 430C1253.99 430 1262.5 421.493 1262.5 411C1262.5 406.148 1260.68 401.721 1257.69 398.363L1230.86 425.188Z" fill="#263030"/>
<path fill-rule="evenodd" clip-rule="evenodd" d="M1301.5 390C1289.9 390 1280.5 399.402 1280.5 411C1280.5 422.598 1289.9 432 1301.5 432C1313.1 432 1322.5 422.598 1322.5 411C1322.5 399.402 1313.1 390 1301.5 390ZM1282.5 411C1282.5 400.507 1291.01 392 1301.5 392C1306.42 392 1310.91 393.871 1314.28 396.941L1287.44 423.781C1284.37 420.406 1282.5 415.922 1282.5 411ZM1288.86 425.188C1292.22 428.181 1296.65 430 1301.5 430C1311.99 430 1320.5 421.493 1320.5 411C1320.5 406.148 1318.68 401.721 1315.69 398.363L1288.86 425.188Z" fill="#263030"/>
<rect x="1335.5" y="377" width="126" height="68" stroke="#263030" stroke-width="2"/>
<path fill-rule="evenodd" clip-rule="evenodd" d="M1369.5 390C1357.9 390 1348.5 399.402 1348.5 411C1348.5 422.598 1357.9 432 1369.5 432C1381.1 432 1390.5 422.598 1390.5 411C1390.5 399.402 1381.1 390 1369.5 390ZM1350.5 411C1350.5 400.507 1359.01 392 1369.5 392C1374.42 392 1378.91 393.871 1382.28 396.941L1355.44 423.781C1352.37 420.406 1350.5 415.922 1350.5 411ZM1356.86 425.188C1360.22 428.181 1364.65 430 1369.5 430C1379.99 430 1388.5 421.493 1388.5 411C1388.5 406.148 1386.68 401.721 1383.69 398.363L1356.86 425.188Z" fill="#263030"/>
<path fill-rule="evenodd" clip-rule="evenodd" d="M1427.5 390C1415.9 390 1406.5 399.402 1406.5 411C1406.5 422.598 1415.9 432 1427.5 432C1439.1 432 1448.5 422.598 1448.5 411C1448.5 399.402 1439.1 390 1427.5 390ZM1408.5 411C1408.5 400.507 1417.01 392 1427.5 392C1432.42 392 1436.91 393.871 1440.28 396.941L1413.44 423.781C1410.37 420.406 1408.5 415.922 1408.5 411ZM1414.86 425.188C1418.22 428.181 1422.65 430 1427.5 430C1437.99 430 1446.5 421.493 1446.5 411C1446.5 406.148 1444.68 401.721 1441.69 398.363L1414.86 425.188Z" fill="#263030"/>
<rect x="1461.5" y="377" width="68" height="68" stroke="#263030" stroke-width="2"/>
<path fill-rule="evenodd" clip-rule="evenodd" d="M1495.5 390C1483.9 390 1474.5 399.402 1474.5 411C1474.5 422.598 1483.9 432 1495.5 432C1507.1 432 1516.5 422.598 1516.5 411C1516.5 399.402 1507.1 390 1495.5 390ZM1476.5 411C1476.5 400.507 1485.01 392 1495.5 392C1500.42 392 1504.91 393.871 1508.28 396.941L1481.44 423.781C1478.37 420.406 1476.5 415.922 1476.5 411ZM1482.86 425.188C1486.22 428.181 1490.65 430 1495.5 430C1505.99 430 1514.5 421.493 1514.5 411C1514.5 406.148 1512.68 401.721 1509.69 398.363L1482.86 425.188Z" fill="#263030"/>
<rect x="120.5" y="445" width="131" height="68" stroke="#263030" stroke-width="2"/>
<path d="M154.12 488H149.72C147.82 488 146.92 487.1 146.92 485.2V476.8C146.92 474.9 147.82 474 149.72 474H154.12C156.02 474 156.92 474.9 156.92 476.8V485.2C156.92 487.04 156.02 488 154.12 488ZM149.32 476.94V485.06C149.32 485.6 149.52 485.8 150.06 485.8H153.76C154.32 485.8 154.52 485.6 154.52 485.06V476.94C154.52 476.4 154.32 476.2 153.76 476.2H150.06C149.52 476.2 149.32 476.4 149.32 476.94ZM173.232 488H163.632V483.66C163.632 482.06 164.712 481.56 166.512 480.78L169.692 479.42C170.412 479.1 170.712 478.96 170.712 478.42V476.94C170.712 476.4 170.512 476.2 169.972 476.2H166.892C166.352 476.2 166.152 476.4 166.152 476.94V478.28H163.812V476.8C163.812 474.9 164.712 474 166.612 474H170.312C172.212 474 173.112 474.9 173.112 476.8V478.86C173.112 480.46 172.032 480.96 170.232 481.74L167.052 483.1C166.352 483.4 166.032 483.56 166.032 484.08V485.8H171.052V483.36H173.232V488Z" fill="#263030"/>
<rect x="251.5" y="445" width="358" height="68" stroke="#263030" stroke-width="2"/>
<path fill-rule="evenodd" clip-rule="evenodd" d="M285.5 458C273.902 458 264.5 467.402 264.5 479C264.5 490.598 273.902 500 285.5 500C297.098 500 306.5 490.598 306.5 479C306.5 467.402 297.098 458 285.5 458ZM266.5 479C266.5 468.507 275.007 460 285.5 460C290.422 460 294.906 461.871 298.281 464.941L271.441 491.781C268.371 488.406 266.5 483.922 266.5 479ZM272.863 493.188C276.221 496.181 280.648 498 285.5 498C295.993 498 304.5 489.493 304.5 479C304.5 474.148 302.681 469.721 299.688 466.363L272.863 493.188Z" fill="#263030"/>
<path fill-rule="evenodd" clip-rule="evenodd" d="M343.5 458C331.902 458 322.5 467.402 322.5 479C322.5 490.598 331.902 500 343.5 500C355.098 500 364.5 490.598 364.5 479C364.5 467.402 355.098 458 343.5 458ZM324.5 479C324.5 468.507 333.007 460 343.5 460C348.422 460 352.906 461.871 356.281 464.941L329.441 491.781C326.371 488.406 324.5 483.922 324.5 479ZM330.863 493.188C334.221 496.181 338.648 498 343.5 498C353.993 498 362.5 489.493 362.5 479C362.5 474.148 360.681 469.721 357.688 466.363L330.863 493.188Z" fill="#263030"/>
<path fill-rule="evenodd" clip-rule="evenodd" d="M401.5 458C389.902 458 380.5 467.402 380.5 479C380.5 490.598 389.902 500 401.5 500C413.098 500 422.5 490.598 422.5 479C422.5 467.402 413.098 458 401.5 458ZM382.5 479C382.5 468.507 391.007 460 401.5 460C406.422 460 410.906 461.871 414.281 464.941L387.441 491.781C384.371 488.406 382.5 483.922 382.5 479ZM388.863 493.188C392.221 496.181 396.648 498 401.5 498C411.993 498 420.5 489.493 420.5 479C420.5 474.148 418.681 469.721 415.688 466.363L388.863 493.188Z" fill="#263030"/>
<path fill-rule="evenodd" clip-rule="evenodd" d="M459.5 458C447.902 458 438.5 467.402 438.5 479C438.5 490.598 447.902 500 459.5 500C471.098 500 480.5 490.598 480.5 479C480.5 467.402 471.098 458 459.5 458ZM440.5 479C440.5 468.507 449.007 460 459.5 460C464.422 460 468.906 461.871 472.281 464.941L445.441 491.781C442.371 488.406 440.5 483.922 440.5 479ZM446.863 493.188C450.221 496.181 454.648 498 459.5 498C469.993 498 478.5 489.493 478.5 479C478.5 474.148 476.681 469.721 473.688 466.363L446.863 493.188Z" fill="#263030"/>
<path fill-rule="evenodd" clip-rule="evenodd" d="M517.5 458C505.902 458 496.5 467.402 496.5 479C496.5 490.598 505.902 500 517.5 500C529.098 500 538.5 490.598 538.5 479C538.5 467.402 529.098 458 517.5 458ZM498.5 479C498.5 468.507 507.007 460 517.5 460C522.422 460 526.906 461.871 530.281 464.941L503.441 491.781C500.371 488.406 498.5 483.922 498.5 479ZM504.863 493.188C508.221 496.181 512.648 498 517.5 498C527.993 498 536.5 489.493 536.5 479C536.5 474.148 534.681 469.721 531.688 466.363L504.863 493.188Z" fill="#263030"/>
<path fill-rule="evenodd" clip-rule="evenodd" d="M575.5 458C563.902 458 554.5 467.402 554.5 479C554.5 490.598 563.902 500 575.5 500C587.098 500 596.5 490.598 596.5 479C596.5 467.402 587.098 458 575.5 458ZM556.5 479C556.5 468.507 565.007 460 575.5 460C580.422 460 584.906 461.871 588.281 464.941L561.441 491.781C558.371 488.406 556.5 483.922 556.5 479ZM562.863 493.188C566.221 496.181 570.648 498 575.5 498C585.993 498 594.5 489.493 594.5 479C594.5 474.148 592.681 469.721 589.688 466.363L562.863 493.188Z" fill="#263030"/>
<rect x="609.5" y="445" width="300" height="68" stroke="#263030" stroke-width="2"/>
<path fill-rule="evenodd" clip-rule="evenodd" d="M643.5 458C631.902 458 622.5 467.402 622.5 479C622.5 490.598 631.902 500 643.5 500C655.098 500 664.5 490.598 664.5 479C664.5 467.402 655.098 458 643.5 458ZM624.5 479C624.5 468.507 633.007 460 643.5 460C648.422 460 652.906 461.871 656.281 464.941L629.441 491.781C626.371 488.406 624.5 483.922 624.5 479ZM630.863 493.188C634.221 496.181 638.648 498 643.5 498C653.993 498 662.5 489.493 662.5 479C662.5 474.148 660.681 469.721 657.688 466.363L630.863 493.188Z" fill="#263030"/>
<path fill-rule="evenodd" clip-rule="evenodd" d="M701.5 458C689.902 458 680.5 467.402 680.5 479C680.5 490.598 689.902 500 701.5 500C713.098 500 722.5 490.598 722.5 479C722.5 467.402 713.098 458 701.5 458ZM682.5 479C682.5 468.507 691.007 460 701.5 460C706.422 460 710.906 461.871 714.281 464.941L687.441 491.781C684.371 488.406 682.5 483.922 682.5 479ZM688.863 493.188C692.221 496.181 696.648 498 701.5 498C711.993 498 720.5 489.493 720.5 479C720.5 474.148 718.681 469.721 715.688 466.363L688.863 493.188Z" fill="#263030"/>
<path fill-rule="evenodd" clip-rule="evenodd" d="M759.5 458C747.902 458 738.5 467.402 738.5 479C738.5 490.598 747.902 500 759.5 500C771.098 500 780.5 490.598 780.5 479C780.5 467.402 771.098 458 759.5 458ZM740.5 479C740.5 468.507 749.007 460 759.5 460C764.422 460 768.906 461.871 772.281 464.941L745.441 491.781C742.371 488.406 740.5 483.922 740.5 479ZM746.863 493.188C750.221 496.181 754.648 498 759.5 498C769.993 498 778.5 489.493 778.5 479C778.5 474.148 776.681 469.721 773.688 466.363L746.863 493.188Z" fill="#263030"/>
<path fill-rule="evenodd" clip-rule="evenodd" d="M817.5 458C805.902 458 796.5 467.402 796.5 479C796.5 490.598 805.902 500 817.5 500C829.098 500 838.5 490.598 838.5 479C838.5 467.402 829.098 458 817.5 458ZM798.5 479C798.5 468.507 807.007 460 817.5 460C822.422 460 826.906 461.871 830.281 464.941L803.441 491.781C800.371 488.406 798.5 483.922 798.5 479ZM804.863 493.188C808.221 496.181 812.648 498 817.5 498C827.993 498 836.5 489.493 836.5 479C836.5 474.148 834.681 469.721 831.688 466.363L804.863 493.188Z" fill="#263030"/>
<path fill-rule="evenodd" clip-rule="evenodd" d="M875.5 458C863.902 458 854.5 467.402 854.5 479C854.5 490.598 863.902 500 875.5 500C887.098 500 896.5 490.598 896.5 479C896.5 467.402 887.098 458 875.5 458ZM856.5 479C856.5 468.507 865.007 460 875.5 460C880.422 460 884.906 461.871 888.281 464.941L861.441 491.781C858.371 488.406 856.5 483.922 856.5 479ZM862.863 493.188C866.221 496.181 870.648 498 875.5 498C885.993 498 894.5 489.493 894.5 479C894.5 474.148 892.681 469.721 889.688 466.363L862.863 493.188Z" fill="#263030"/>
<rect x="909.5" y="445" width="242" height="68" stroke="#263030" stroke-width="2"/>
<path fill-rule="evenodd" clip-rule="evenodd" d="M943.5 458C931.902 458 922.5 467.402 922.5 479C922.5 490.598 931.902 500 943.5 500C955.098 500 964.5 490.598 964.5 479C964.5 467.402 955.098 458 943.5 458ZM924.5 479C924.5 468.507 933.007 460 943.5 460C948.422 460 952.906 461.871 956.281 464.941L929.441 491.781C926.371 488.406 924.5 483.922 924.5 479ZM930.863 493.188C934.221 496.181 938.648 498 943.5 498C953.993 498 962.5 489.493 962.5 479C962.5 474.148 960.681 469.721 957.688 466.363L930.863 493.188Z" fill="#263030"/>
<path fill-rule="evenodd" clip-rule="evenodd" d="M1001.5 458C989.902 458 980.5 467.402 980.5 479C980.5 490.598 989.902 500 1001.5 500C1013.1 500 1022.5 490.598 1022.5 479C1022.5 467.402 1013.1 458 1001.5 458ZM982.5 479C982.5 468.507 991.007 460 1001.5 460C1006.42 460 1010.91 461.871 1014.28 464.941L987.441 491.781C984.371 488.406 982.5 483.922 982.5 479ZM988.863 493.188C992.221 496.181 996.648 498 1001.5 498C1011.99 498 1020.5 489.493 1020.5 479C1020.5 474.148 1018.68 469.721 1015.69 466.363L988.863 493.188Z" fill="#263030"/>
<path fill-rule="evenodd" clip-rule="evenodd" d="M1059.5 458C1047.9 458 1038.5 467.402 1038.5 479C1038.5 490.598 1047.9 500 1059.5 500C1071.1 500 1080.5 490.598 1080.5 479C1080.5 467.402 1071.1 458 1059.5 458ZM1040.5 479C1040.5 468.507 1049.01 460 1059.5 460C1064.42 460 1068.91 461.871 1072.28 464.941L1045.44 491.781C1042.37 488.406 1040.5 483.922 1040.5 479ZM1046.86 493.188C1050.22 496.181 1054.65 498 1059.5 498C1069.99 498 1078.5 489.493 1078.5 479C1078.5 474.148 1076.68 469.721 1073.69 466.363L1046.86 493.188Z" fill="#263030"/>
<path fill-rule="evenodd" clip-rule="evenodd" d="M1117.5 458C1105.9 458 1096.5 467.402 1096.5 479C1096.5 490.598 1105.9 500 1117.5 500C1129.1 500 1138.5 490.598 1138.5 479C1138.5 467.402 1129.1 458 1117.5 458ZM1098.5 479C1098.5 468.507 1107.01 460 1117.5 460C1122.42 460 1126.91 461.871 1130.28 464.941L1103.44 491.781C1100.37 488.406 1098.5 483.922 1098.5 479ZM1104.86 493.188C1108.22 496.181 1112.65 498 1117.5 498C1127.99 498 1136.5 489.493 1136.5 479C1136.5 474.148 1134.68 469.721 1131.69 466.363L1104.86 493.188Z" fill="#263030"/>
<rect x="1151.5" y="445" width="184" height="68" stroke="#263030" stroke-width="2"/>
<path fill-rule="evenodd" clip-rule="evenodd" d="M1185.5 458C1173.9 458 1164.5 467.402 1164.5 479C1164.5 490.598 1173.9 500 1185.5 500C1197.1 500 1206.5 490.598 1206.5 479C1206.5 467.402 1197.1 458 1185.5 458ZM1166.5 479C1166.5 468.507 1175.01 460 1185.5 460C1190.42 460 1194.91 461.871 1198.28 464.941L1171.44 491.781C1168.37 488.406 1166.5 483.922 1166.5 479ZM1172.86 493.188C1176.22 496.181 1180.65 498 1185.5 498C1195.99 498 1204.5 489.493 1204.5 479C1204.5 474.148 1202.68 469.721 1199.69 466.363L1172.86 493.188Z" fill="#263030"/>
<path fill-rule="evenodd" clip-rule="evenodd" d="M1243.5 458C1231.9 458 1222.5 467.402 1222.5 479C1222.5 490.598 1231.9 500 1243.5 500C1255.1 500 1264.5 490.598 1264.5 479C1264.5 467.402 1255.1 458 1243.5 458ZM1224.5 479C1224.5 468.507 1233.01 460 1243.5 460C1248.42 460 1252.91 461.871 1256.28 464.941L1229.44 491.781C1226.37 488.406 1224.5 483.922 1224.5 479ZM1230.86 493.188C1234.22 496.181 1238.65 498 1243.5 498C1253.99 498 1262.5 489.493 1262.5 479C1262.5 474.148 1260.68 469.721 1257.69 466.363L1230.86 493.188Z" fill="#263030"/>
<path fill-rule="evenodd" clip-rule="evenodd" d="M1301.5 458C1289.9 458 1280.5 467.402 1280.5 479C1280.5 490.598 1289.9 500 1301.5 500C1313.1 500 1322.5 490.598 1322.5 479C1322.5 467.402 1313.1 458 1301.5 458ZM1282.5 479C1282.5 468.507 1291.01 460 1301.5 460C1306.42 460 1310.91 461.871 1314.28 464.941L1287.44 491.781C1284.37 488.406 1282.5 483.922 1282.5 479ZM1288.86 493.188C1292.22 496.181 1296.65 498 1301.5 498C1311.99 498 1320.5 489.493 1320.5 479C1320.5 474.148 1318.68 469.721 1315.69 466.363L1288.86 493.188Z" fill="#263030"/>
<rect x="1335.5" y="445" width="126" height="68" stroke="#263030" stroke-width="2"/>
<path fill-rule="evenodd" clip-rule="evenodd" d="M1369.5 458C1357.9 458 1348.5 467.402 1348.5 479C1348.5 490.598 1357.9 500 1369.5 500C1381.1 500 1390.5 490.598 1390.5 479C1390.5 467.402 1381.1 458 1369.5 458ZM1350.5 479C1350.5 468.507 1359.01 460 1369.5 460C1374.42 460 1378.91 461.871 1382.28 464.941L1355.44 491.781C1352.37 488.406 1350.5 483.922 1350.5 479ZM1356.86 493.188C1360.22 496.181 1364.65 498 1369.5 498C1379.99 498 1388.5 489.493 1388.5 479C1388.5 474.148 1386.68 469.721 1383.69 466.363L1356.86 493.188Z" fill="#263030"/>
<path fill-rule="evenodd" clip-rule="evenodd" d="M1427.5 458C1415.9 458 1406.5 467.402 1406.5 479C1406.5 490.598 1415.9 500 1427.5 500C1439.1 500 1448.5 490.598 1448.5 479C1448.5 467.402 1439.1 458 1427.5 458ZM1408.5 479C1408.5 468.507 1417.01 460 1427.5 460C1432.42 460 1436.91 461.871 1440.28 464.941L1413.44 491.781C1410.37 488.406 1408.5 483.922 1408.5 479ZM1414.86 493.188C1418.22 496.181 1422.65 498 1427.5 498C1437.99 498 1446.5 489.493 1446.5 479C1446.5 474.148 1444.68 469.721 1441.69 466.363L1414.86 493.188Z" fill="#263030"/>
<rect x="1461.5" y="445" width="68" height="68" stroke="#263030" stroke-width="2"/>
<path fill-rule="evenodd" clip-rule="evenodd" d="M1495.5 458C1483.9 458 1474.5 467.402 1474.5 479C1474.5 490.598 1483.9 500 1495.5 500C1507.1 500 1516.5 490.598 1516.5 479C1516.5 467.402 1507.1 458 1495.5 458ZM1476.5 479C1476.5 468.507 1485.01 460 1495.5 460C1500.42 460 1504.91 461.871 1508.28 464.941L1481.44 491.781C1478.37 488.406 1476.5 483.922 1476.5 479ZM1482.86 493.188C1486.22 496.181 1490.65 498 1495.5 498C1505.99 498 1514.5 489.493 1514.5 479C1514.5 474.148 1512.68 469.721 1509.69 466.363L1482.86 493.188Z" fill="#263030"/>
<rect x="120.5" y="513" width="131" height="68" stroke="#263030" stroke-width="2"/>
<path d="M154.12 556H149.72C147.82 556 146.92 555.1 146.92 553.2V544.8C146.92 542.9 147.82 542 149.72 542H154.12C156.02 542 156.92 542.9 156.92 544.8V553.2C156.92 555.04 156.02 556 154.12 556ZM149.32 544.94V553.06C149.32 553.6 149.52 553.8 150.06 553.8H153.76C154.32 553.8 154.52 553.6 154.52 553.06V544.94C154.52 544.4 154.32 544.2 153.76 544.2H150.06C149.52 544.2 149.32 544.4 149.32 544.94ZM165.752 551.8V552.88C165.752 553.62 165.952 553.82 166.492 553.82H170.112C170.652 553.82 170.852 553.62 170.852 551.86C170.852 550.1 170.652 549.9 170.112 549.9H166.632V547.76H169.952C170.492 547.76 170.692 547.56 170.692 545.96C170.692 544.38 170.492 544.18 169.952 544.18H166.652C166.112 544.18 165.912 544.38 165.912 545.12V546.2H163.512V545C163.512 542.9 164.412 542 166.312 542H170.292C172.212 542 173.112 542.9 173.112 545.74C173.112 547.66 172.712 548.36 171.812 548.82C172.832 549.26 173.272 550 173.272 552.08C173.272 555.1 172.372 556 170.452 556H166.152C164.252 556 163.352 555.1 163.352 553V551.8H165.752Z" fill="#263030"/>
<rect x="251.5" y="513" width="358" height="68" stroke="#263030" stroke-width="2"/>
<path fill-rule="evenodd" clip-rule="evenodd" d="M285.5 526C273.902 526 264.5 535.402 264.5 547C264.5 558.598 273.902 568 285.5 568C297.098 568 306.5 558.598 306.5 547C306.5 535.402 297.098 526 285.5 526ZM266.5 547C266.5 536.507 275.007 528 285.5 528C290.422 528 294.906 529.871 298.281 532.941L271.441 559.781C268.371 556.406 266.5 551.922 266.5 547ZM272.863 561.188C276.221 564.181 280.648 566 285.5 566C295.993 566 304.5 557.493 304.5 547C304.5 542.148 302.681 537.721 299.688 534.363L272.863 561.188Z" fill="#263030"/>
<path fill-rule="evenodd" clip-rule="evenodd" d="M343.5 526C331.902 526 322.5 535.402 322.5 547C322.5 558.598 331.902 568 343.5 568C355.098 568 364.5 558.598 364.5 547C364.5 535.402 355.098 526 343.5 526ZM324.5 547C324.5 536.507 333.007 528 343.5 528C348.422 528 352.906 529.871 356.281 532.941L329.441 559.781C326.371 556.406 324.5 551.922 324.5 547ZM330.863 561.188C334.221 564.181 338.648 566 343.5 566C353.993 566 362.5 557.493 362.5 547C362.5 542.148 360.681 537.721 357.688 534.363L330.863 561.188Z" fill="#263030"/>
<path fill-rule="evenodd" clip-rule="evenodd" d="M401.5 526C389.902 526 380.5 535.402 380.5 547C380.5 558.598 389.902 568 401.5 568C413.098 568 422.5 558.598 422.5 547C422.5 535.402 413.098 526 401.5 526ZM382.5 547C382.5 536.507 391.007 528 401.5 528C406.422 528 410.906 529.871 414.281 532.941L387.441 559.781C384.371 556.406 382.5 551.922 382.5 547ZM388.863 561.188C392.221 564.181 396.648 566 401.5 566C411.993 566 420.5 557.493 420.5 547C420.5 542.148 418.681 537.721 415.688 534.363L388.863 561.188Z" fill="#263030"/>
<path fill-rule="evenodd" clip-rule="evenodd" d="M459.5 526C447.902 526 438.5 535.402 438.5 547C438.5 558.598 447.902 568 459.5 568C471.098 568 480.5 558.598 480.5 547C480.5 535.402 471.098 526 459.5 526ZM440.5 547C440.5 536.507 449.007 528 459.5 528C464.422 528 468.906 529.871 472.281 532.941L445.441 559.781C442.371 556.406 440.5 551.922 440.5 547ZM446.863 561.188C450.221 564.181 454.648 566 459.5 566C469.993 566 478.5 557.493 478.5 547C478.5 542.148 476.681 537.721 473.688 534.363L446.863 561.188Z" fill="#263030"/>
<path fill-rule="evenodd" clip-rule="evenodd" d="M517.5 526C505.902 526 496.5 535.402 496.5 547C496.5 558.598 505.902 568 517.5 568C529.098 568 538.5 558.598 538.5 547C538.5 535.402 529.098 526 517.5 526ZM498.5 547C498.5 536.507 507.007 528 517.5 528C522.422 528 526.906 529.871 530.281 532.941L503.441 559.781C500.371 556.406 498.5 551.922 498.5 547ZM504.863 561.188C508.221 564.181 512.648 566 517.5 566C527.993 566 536.5 557.493 536.5 547C536.5 542.148 534.681 537.721 531.688 534.363L504.863 561.188Z" fill="#263030"/>
<path fill-rule="evenodd" clip-rule="evenodd" d="M575.5 526C563.902 526 554.5 535.402 554.5 547C554.5 558.598 563.902 568 575.5 568C587.098 568 596.5 558.598 596.5 547C596.5 535.402 587.098 526 575.5 526ZM556.5 547C556.5 536.507 565.007 528 575.5 528C580.422 528 584.906 529.871 588.281 532.941L561.441 559.781C558.371 556.406 556.5 551.922 556.5 547ZM562.863 561.188C566.221 564.181 570.648 566 575.5 566C585.993 566 594.5 557.493 594.5 547C594.5 542.148 592.681 537.721 589.688 534.363L562.863 561.188Z" fill="#263030"/>
<rect x="609.5" y="513" width="300" height="68" stroke="#263030" stroke-width="2"/>
<path fill-rule="evenodd" clip-rule="evenodd" d="M643.5 526C631.902 526 622.5 535.402 622.5 547C622.5 558.598 631.902 568 643.5 568C655.098 568 664.5 558.598 664.5 547C664.5 535.402 655.098 526 643.5 526ZM624.5 547C624.5 536.507 633.007 528 643.5 528C648.422 528 652.906 529.871 656.281 532.941L629.441 559.781C626.371 556.406 624.5 551.922 624.5 547ZM630.863 561.188C634.221 564.181 638.648 566 643.5 566C653.993 566 662.5 557.493 662.5 547C662.5 542.148 660.681 537.721 657.688 534.363L630.863 561.188Z" fill="#263030"/>
<path fill-rule="evenodd" clip-rule="evenodd" d="M701.5 526C689.902 526 680.5 535.402 680.5 547C680.5 558.598 689.902 568 701.5 568C713.098 568 722.5 558.598 722.5 547C722.5 535.402 713.098 526 701.5 526ZM682.5 547C682.5 536.507 691.007 528 701.5 528C706.422 528 710.906 529.871 714.281 532.941L687.441 559.781C684.371 556.406 682.5 551.922 682.5 547ZM688.863 561.188C692.221 564.181 696.648 566 701.5 566C711.993 566 720.5 557.493 720.5 547C720.5 542.148 718.681 537.721 715.688 534.363L688.863 561.188Z" fill="#263030"/>
<path fill-rule="evenodd" clip-rule="evenodd" d="M759.5 526C747.902 526 738.5 535.402 738.5 547C738.5 558.598 747.902 568 759.5 568C771.098 568 780.5 558.598 780.5 547C780.5 535.402 771.098 526 759.5 526ZM740.5 547C740.5 536.507 749.007 528 759.5 528C764.422 528 768.906 529.871 772.281 532.941L745.441 559.781C742.371 556.406 740.5 551.922 740.5 547ZM746.863 561.188C750.221 564.181 754.648 566 759.5 566C769.993 566 778.5 557.493 778.5 547C778.5 542.148 776.681 537.721 773.688 534.363L746.863 561.188Z" fill="#263030"/>
<path fill-rule="evenodd" clip-rule="evenodd" d="M817.5 526C805.902 526 796.5 535.402 796.5 547C796.5 558.598 805.902 568 817.5 568C829.098 568 838.5 558.598 838.5 547C838.5 535.402 829.098 526 817.5 526ZM798.5 547C798.5 536.507 807.007 528 817.5 528C822.422 528 826.906 529.871 830.281 532.941L803.441 559.781C800.371 556.406 798.5 551.922 798.5 547ZM804.863 561.188C808.221 564.181 812.648 566 817.5 566C827.993 566 836.5 557.493 836.5 547C836.5 542.148 834.681 537.721 831.688 534.363L804.863 561.188Z" fill="#263030"/>
<path fill-rule="evenodd" clip-rule="evenodd" d="M875.5 526C863.902 526 854.5 535.402 854.5 547C854.5 558.598 863.902 568 875.5 568C887.098 568 896.5 558.598 896.5 547C896.5 535.402 887.098 526 875.5 526ZM856.5 547C856.5 536.507 865.007 528 875.5 528C880.422 528 884.906 529.871 888.281 532.941L861.441 559.781C858.371 556.406 856.5 551.922 856.5 547ZM862.863 561.188C866.221 564.181 870.648 566 875.5 566C885.993 566 894.5 557.493 894.5 547C894.5 542.148 892.681 537.721 889.688 534.363L862.863 561.188Z" fill="#263030"/>
<rect x="909.5" y="513" width="242" height="68" stroke="#263030" stroke-width="2"/>
<path fill-rule="evenodd" clip-rule="evenodd" d="M943.5 526C931.902 526 922.5 535.402 922.5 547C922.5 558.598 931.902 568 943.5 568C955.098 568 964.5 558.598 964.5 547C964.5 535.402 955.098 526 943.5 526ZM924.5 547C924.5 536.507 933.007 528 943.5 528C948.422 528 952.906 529.871 956.281 532.941L929.441 559.781C926.371 556.406 924.5 551.922 924.5 547ZM930.863 561.188C934.221 564.181 938.648 566 943.5 566C953.993 566 962.5 557.493 962.5 547C962.5 542.148 960.681 537.721 957.688 534.363L930.863 561.188Z" fill="#263030"/>
<path fill-rule="evenodd" clip-rule="evenodd" d="M1001.5 526C989.902 526 980.5 535.402 980.5 547C980.5 558.598 989.902 568 1001.5 568C1013.1 568 1022.5 558.598 1022.5 547C1022.5 535.402 1013.1 526 1001.5 526ZM982.5 547C982.5 536.507 991.007 528 1001.5 528C1006.42 528 1010.91 529.871 1014.28 532.941L987.441 559.781C984.371 556.406 982.5 551.922 982.5 547ZM988.863 561.188C992.221 564.181 996.648 566 1001.5 566C1011.99 566 1020.5 557.493 1020.5 547C1020.5 542.148 1018.68 537.721 1015.69 534.363L988.863 561.188Z" fill="#263030"/>
<path fill-rule="evenodd" clip-rule="evenodd" d="M1059.5 526C1047.9 526 1038.5 535.402 1038.5 547C1038.5 558.598 1047.9 568 1059.5 568C1071.1 568 1080.5 558.598 1080.5 547C1080.5 535.402 1071.1 526 1059.5 526ZM1040.5 547C1040.5 536.507 1049.01 528 1059.5 528C1064.42 528 1068.91 529.871 1072.28 532.941L1045.44 559.781C1042.37 556.406 1040.5 551.922 1040.5 547ZM1046.86 561.188C1050.22 564.181 1054.65 566 1059.5 566C1069.99 566 1078.5 557.493 1078.5 547C1078.5 542.148 1076.68 537.721 1073.69 534.363L1046.86 561.188Z" fill="#263030"/>
<path fill-rule="evenodd" clip-rule="evenodd" d="M1117.5 526C1105.9 526 1096.5 535.402 1096.5 547C1096.5 558.598 1105.9 568 1117.5 568C1129.1 568 1138.5 558.598 1138.5 547C1138.5 535.402 1129.1 526 1117.5 526ZM1098.5 547C1098.5 536.507 1107.01 528 1117.5 528C1122.42 528 1126.91 529.871 1130.28 532.941L1103.44 559.781C1100.37 556.406 1098.5 551.922 1098.5 547ZM1104.86 561.188C1108.22 564.181 1112.65 566 1117.5 566C1127.99 566 1136.5 557.493 1136.5 547C1136.5 542.148 1134.68 537.721 1131.69 534.363L1104.86 561.188Z" fill="#263030"/>
<rect x="1151.5" y="513" width="184" height="68" stroke="#263030" stroke-width="2"/>
<path fill-rule="evenodd" clip-rule="evenodd" d="M1185.5 526C1173.9 526 1164.5 535.402 1164.5 547C1164.5 558.598 1173.9 568 1185.5 568C1197.1 568 1206.5 558.598 1206.5 547C1206.5 535.402 1197.1 526 1185.5 526ZM1166.5 547C1166.5 536.507 1175.01 528 1185.5 528C1190.42 528 1194.91 529.871 1198.28 532.941L1171.44 559.781C1168.37 556.406 1166.5 551.922 1166.5 547ZM1172.86 561.188C1176.22 564.181 1180.65 566 1185.5 566C1195.99 566 1204.5 557.493 1204.5 547C1204.5 542.148 1202.68 537.721 1199.69 534.363L1172.86 561.188Z" fill="#263030"/>
<path fill-rule="evenodd" clip-rule="evenodd" d="M1243.5 526C1231.9 526 1222.5 535.402 1222.5 547C1222.5 558.598 1231.9 568 1243.5 568C1255.1 568 1264.5 558.598 1264.5 547C1264.5 535.402 1255.1 526 1243.5 526ZM1224.5 547C1224.5 536.507 1233.01 528 1243.5 528C1248.42 528 1252.91 529.871 1256.28 532.941L1229.44 559.781C1226.37 556.406 1224.5 551.922 1224.5 547ZM1230.86 561.188C1234.22 564.181 1238.65 566 1243.5 566C1253.99 566 1262.5 557.493 1262.5 547C1262.5 542.148 1260.68 537.721 1257.69 534.363L1230.86 561.188Z" fill="#263030"/>
<path fill-rule="evenodd" clip-rule="evenodd" d="M1301.5 526C1289.9 526 1280.5 535.402 1280.5 547C1280.5 558.598 1289.9 568 1301.5 568C1313.1 568 1322.5 558.598 1322.5 547C1322.5 535.402 1313.1 526 1301.5 526ZM1282.5 547C1282.5 536.507 1291.01 528 1301.5 528C1306.42 528 1310.91 529.871 1314.28 532.941L1287.44 559.781C1284.37 556.406 1282.5 551.922 1282.5 547ZM1288.86 561.188C1292.22 564.181 1296.65 566 1301.5 566C1311.99 566 1320.5 557.493 1320.5 547C1320.5 542.148 1318.68 537.721 1315.69 534.363L1288.86 561.188Z" fill="#263030"/>
<rect x="1335.5" y="513" width="126" height="68" stroke="#263030" stroke-width="2"/>
<path fill-rule="evenodd" clip-rule="evenodd" d="M1369.5 526C1357.9 526 1348.5 535.402 1348.5 547C1348.5 558.598 1357.9 568 1369.5 568C1381.1 568 1390.5 558.598 1390.5 547C1390.5 535.402 1381.1 526 1369.5 526ZM1350.5 547C1350.5 536.507 1359.01 528 1369.5 528C1374.42 528 1378.91 529.871 1382.28 532.941L1355.44 559.781C1352.37 556.406 1350.5 551.922 1350.5 547ZM1356.86 561.188C1360.22 564.181 1364.65 566 1369.5 566C1379.99 566 1388.5 557.493 1388.5 547C1388.5 542.148 1386.68 537.721 1383.69 534.363L1356.86 561.188Z" fill="#263030"/>
<path fill-rule="evenodd" clip-rule="evenodd" d="M1427.5 526C1415.9 526 1406.5 535.402 1406.5 547C1406.5 558.598 1415.9 568 1427.5 568C1439.1 568 1448.5 558.598 1448.5 547C1448.5 535.402 1439.1 526 1427.5 526ZM1408.5 547C1408.5 536.507 1417.01 528 1427.5 528C1432.42 528 1436.91 529.871 1440.28 532.941L1413.44 559.781C1410.37 556.406 1408.5 551.922 1408.5 547ZM1414.86 561.188C1418.22 564.181 1422.65 566 1427.5 566C1437.99 566 1446.5 557.493 1446.5 547C1446.5 542.148 1444.68 537.721 1441.69 534.363L1414.86 561.188Z" fill="#263030"/>
<rect x="1461.5" y="513" width="68" height="68" stroke="#263030" stroke-width="2"/>
<path fill-rule="evenodd" clip-rule="evenodd" d="M1495.5 526C1483.9 526 1474.5 535.402 1474.5 547C1474.5 558.598 1483.9 568 1495.5 568C1507.1 568 1516.5 558.598 1516.5 547C1516.5 535.402 1507.1 526 1495.5 526ZM1476.5 547C1476.5 536.507 1485.01 528 1495.5 528C1500.42 528 1504.91 529.871 1508.28 532.941L1481.44 559.781C1478.37 556.406 1476.5 551.922 1476.5 547ZM1482.86 561.188C1486.22 564.181 1490.65 566 1495.5 566C1505.99 566 1514.5 557.493 1514.5 547C1514.5 542.148 1512.68 537.721 1509.69 534.363L1482.86 561.188Z" fill="#263030"/>
<rect x="120.5" y="581" width="131" height="68" stroke="#263030" stroke-width="2"/>
<path d="M154.12 624H149.72C147.82 624 146.92 623.1 146.92 621.2V612.8C146.92 610.9 147.82 610 149.72 610H154.12C156.02 610 156.92 610.9 156.92 612.8V621.2C156.92 623.04 156.02 624 154.12 624ZM149.32 612.94V621.06C149.32 621.6 149.52 621.8 150.06 621.8H153.76C154.32 621.8 154.52 621.6 154.52 621.06V612.94C154.52 612.4 154.32 612.2 153.76 612.2H150.06C149.52 612.2 149.32 612.4 149.32 612.94ZM172.452 620.18V622.02H174.172V624H168.232V622.02H170.112V620.18H163.332L162.872 618.44L169.892 610H172.452V618.16H174.192V620.18H172.452ZM170.112 618.16V612.9L165.712 618.16H170.112Z" fill="#263030"/>
<rect x="251.5" y="581" width="358" height="68" stroke="#263030" stroke-width="2"/>
<path fill-rule="evenodd" clip-rule="evenodd" d="M285.5 594C273.902 594 264.5 603.402 264.5 615C264.5 626.598 273.902 636 285.5 636C297.098 636 306.5 626.598 306.5 615C306.5 603.402 297.098 594 285.5 594ZM266.5 615C266.5 604.507 275.007 596 285.5 596C290.422 596 294.906 597.871 298.281 600.941L271.441 627.781C268.371 624.406 266.5 619.922 266.5 615ZM272.863 629.188C276.221 632.181 280.648 634 285.5 634C295.993 634 304.5 625.493 304.5 615C304.5 610.148 302.681 605.721 299.688 602.363L272.863 629.188Z" fill="#263030"/>
<path fill-rule="evenodd" clip-rule="evenodd" d="M343.5 594C331.902 594 322.5 603.402 322.5 615C322.5 626.598 331.902 636 343.5 636C355.098 636 364.5 626.598 364.5 615C364.5 603.402 355.098 594 343.5 594ZM324.5 615C324.5 604.507 333.007 596 343.5 596C348.422 596 352.906 597.871 356.281 600.941L329.441 627.781C326.371 624.406 324.5 619.922 324.5 615ZM330.863 629.188C334.221 632.181 338.648 634 343.5 634C353.993 634 362.5 625.493 362.5 615C362.5 610.148 360.681 605.721 357.688 602.363L330.863 629.188Z" fill="#263030"/>
<path fill-rule="evenodd" clip-rule="evenodd" d="M401.5 594C389.902 594 380.5 603.402 380.5 615C380.5 626.598 389.902 636 401.5 636C413.098 636 422.5 626.598 422.5 615C422.5 603.402 413.098 594 401.5 594ZM382.5 615C382.5 604.507 391.007 596 401.5 596C406.422 596 410.906 597.871 414.281 600.941L387.441 627.781C384.371 624.406 382.5 619.922 382.5 615ZM388.863 629.188C392.221 632.181 396.648 634 401.5 634C411.993 634 420.5 625.493 420.5 615C420.5 610.148 418.681 605.721 415.688 602.363L388.863 629.188Z" fill="#263030"/>
<path fill-rule="evenodd" clip-rule="evenodd" d="M459.5 594C447.902 594 438.5 603.402 438.5 615C438.5 626.598 447.902 636 459.5 636C471.098 636 480.5 626.598 480.5 615C480.5 603.402 471.098 594 459.5 594ZM440.5 615C440.5 604.507 449.007 596 459.5 596C464.422 596 468.906 597.871 472.281 600.941L445.441 627.781C442.371 624.406 440.5 619.922 440.5 615ZM446.863 629.188C450.221 632.181 454.648 634 459.5 634C469.993 634 478.5 625.493 478.5 615C478.5 610.148 476.681 605.721 473.688 602.363L446.863 629.188Z" fill="#263030"/>
<path fill-rule="evenodd" clip-rule="evenodd" d="M517.5 594C505.902 594 496.5 603.402 496.5 615C496.5 626.598 505.902 636 517.5 636C529.098 636 538.5 626.598 538.5 615C538.5 603.402 529.098 594 517.5 594ZM498.5 615C498.5 604.507 507.007 596 517.5 596C522.422 596 526.906 597.871 530.281 600.941L503.441 627.781C500.371 624.406 498.5 619.922 498.5 615ZM504.863 629.188C508.221 632.181 512.648 634 517.5 634C527.993 634 536.5 625.493 536.5 615C536.5 610.148 534.681 605.721 531.688 602.363L504.863 629.188Z" fill="#263030"/>
<path fill-rule="evenodd" clip-rule="evenodd" d="M575.5 594C563.902 594 554.5 603.402 554.5 615C554.5 626.598 563.902 636 575.5 636C587.098 636 596.5 626.598 596.5 615C596.5 603.402 587.098 594 575.5 594ZM556.5 615C556.5 604.507 565.007 596 575.5 596C580.422 596 584.906 597.871 588.281 600.941L561.441 627.781C558.371 624.406 556.5 619.922 556.5 615ZM562.863 629.188C566.221 632.181 570.648 634 575.5 634C585.993 634 594.5 625.493 594.5 615C594.5 610.148 592.681 605.721 589.688 602.363L562.863 629.188Z" fill="#263030"/>
<rect x="609.5" y="581" width="300" height="68" stroke="#263030" stroke-width="2"/>
<path fill-rule="evenodd" clip-rule="evenodd" d="M643.5 594C631.902 594 622.5 603.402 622.5 615C622.5 626.598 631.902 636 643.5 636C655.098 636 664.5 626.598 664.5 615C664.5 603.402 655.098 594 643.5 594ZM624.5 615C624.5 604.507 633.007 596 643.5 596C648.422 596 652.906 597.871 656.281 600.941L629.441 627.781C626.371 624.406 624.5 619.922 624.5 615ZM630.863 629.188C634.221 632.181 638.648 634 643.5 634C653.993 634 662.5 625.493 662.5 615C662.5 610.148 660.681 605.721 657.688 602.363L630.863 629.188Z" fill="#263030"/>
<path fill-rule="evenodd" clip-rule="evenodd" d="M701.5 594C689.902 594 680.5 603.402 680.5 615C680.5 626.598 689.902 636 701.5 636C713.098 636 722.5 626.598 722.5 615C722.5 603.402 713.098 594 701.5 594ZM682.5 615C682.5 604.507 691.007 596 701.5 596C706.422 596 710.906 597.871 714.281 600.941L687.441 627.781C684.371 624.406 682.5 619.922 682.5 615ZM688.863 629.188C692.221 632.181 696.648 634 701.5 634C711.993 634 720.5 625.493 720.5 615C720.5 610.148 718.681 605.721 715.688 602.363L688.863 629.188Z" fill="#263030"/>
<path fill-rule="evenodd" clip-rule="evenodd" d="M759.5 594C747.902 594 738.5 603.402 738.5 615C738.5 626.598 747.902 636 759.5 636C771.098 636 780.5 626.598 780.5 615C780.5 603.402 771.098 594 759.5 594ZM740.5 615C740.5 604.507 749.007 596 759.5 596C764.422 596 768.906 597.871 772.281 600.941L745.441 627.781C742.371 624.406 740.5 619.922 740.5 615ZM746.863 629.188C750.221 632.181 754.648 634 759.5 634C769.993 634 778.5 625.493 778.5 615C778.5 610.148 776.681 605.721 773.688 602.363L746.863 629.188Z" fill="#263030"/>
<path fill-rule="evenodd" clip-rule="evenodd" d="M817.5 594C805.902 594 796.5 603.402 796.5 615C796.5 626.598 805.902 636 817.5 636C829.098 636 838.5 626.598 838.5 615C838.5 603.402 829.098 594 817.5 594ZM798.5 615C798.5 604.507 807.007 596 817.5 596C822.422 596 826.906 597.871 830.281 600.941L803.441 627.781C800.371 624.406 798.5 619.922 798.5 615ZM804.863 629.188C808.221 632.181 812.648 634 817.5 634C827.993 634 836.5 625.493 836.5 615C836.5 610.148 834.681 605.721 831.688 602.363L804.863 629.188Z" fill="#263030"/>
<path fill-rule="evenodd" clip-rule="evenodd" d="M875.5 594C863.902 594 854.5 603.402 854.5 615C854.5 626.598 863.902 636 875.5 636C887.098 636 896.5 626.598 896.5 615C896.5 603.402 887.098 594 875.5 594ZM856.5 615C856.5 604.507 865.007 596 875.5 596C880.422 596 884.906 597.871 888.281 600.941L861.441 627.781C858.371 624.406 856.5 619.922 856.5 615ZM862.863 629.188C866.221 632.181 870.648 634 875.5 634C885.993 634 894.5 625.493 894.5 615C894.5 610.148 892.681 605.721 889.688 602.363L862.863 629.188Z" fill="#263030"/>
<rect x="909.5" y="581" width="242" height="68" stroke="#263030" stroke-width="2"/>
<path fill-rule="evenodd" clip-rule="evenodd" d="M943.5 594C931.902 594 922.5 603.402 922.5 615C922.5 626.598 931.902 636 943.5 636C955.098 636 964.5 626.598 964.5 615C964.5 603.402 955.098 594 943.5 594ZM924.5 615C924.5 604.507 933.007 596 943.5 596C948.422 596 952.906 597.871 956.281 600.941L929.441 627.781C926.371 624.406 924.5 619.922 924.5 615ZM930.863 629.188C934.221 632.181 938.648 634 943.5 634C953.993 634 962.5 625.493 962.5 615C962.5 610.148 960.681 605.721 957.688 602.363L930.863 629.188Z" fill="#263030"/>
<path fill-rule="evenodd" clip-rule="evenodd" d="M1001.5 594C989.902 594 980.5 603.402 980.5 615C980.5 626.598 989.902 636 1001.5 636C1013.1 636 1022.5 626.598 1022.5 615C1022.5 603.402 1013.1 594 1001.5 594ZM982.5 615C982.5 604.507 991.007 596 1001.5 596C1006.42 596 1010.91 597.871 1014.28 600.941L987.441 627.781C984.371 624.406 982.5 619.922 982.5 615ZM988.863 629.188C992.221 632.181 996.648 634 1001.5 634C1011.99 634 1020.5 625.493 1020.5 615C1020.5 610.148 1018.68 605.721 1015.69 602.363L988.863 629.188Z" fill="#263030"/>
<path fill-rule="evenodd" clip-rule="evenodd" d="M1059.5 594C1047.9 594 1038.5 603.402 1038.5 615C1038.5 626.598 1047.9 636 1059.5 636C1071.1 636 1080.5 626.598 1080.5 615C1080.5 603.402 1071.1 594 1059.5 594ZM1040.5 615C1040.5 604.507 1049.01 596 1059.5 596C1064.42 596 1068.91 597.871 1072.28 600.941L1045.44 627.781C1042.37 624.406 1040.5 619.922 1040.5 615ZM1046.86 629.188C1050.22 632.181 1054.65 634 1059.5 634C1069.99 634 1078.5 625.493 1078.5 615C1078.5 610.148 1076.68 605.721 1073.69 602.363L1046.86 629.188Z" fill="#263030"/>
<path fill-rule="evenodd" clip-rule="evenodd" d="M1117.5 594C1105.9 594 1096.5 603.402 1096.5 615C1096.5 626.598 1105.9 636 1117.5 636C1129.1 636 1138.5 626.598 1138.5 615C1138.5 603.402 1129.1 594 1117.5 594ZM1098.5 615C1098.5 604.507 1107.01 596 1117.5 596C1122.42 596 1126.91 597.871 1130.28 600.941L1103.44 627.781C1100.37 624.406 1098.5 619.922 1098.5 615ZM1104.86 629.188C1108.22 632.181 1112.65 634 1117.5 634C1127.99 634 1136.5 625.493 1136.5 615C1136.5 610.148 1134.68 605.721 1131.69 602.363L1104.86 629.188Z" fill="#263030"/>
<rect x="1151.5" y="581" width="184" height="68" stroke="#263030" stroke-width="2"/>
<path fill-rule="evenodd" clip-rule="evenodd" d="M1185.5 594C1173.9 594 1164.5 603.402 1164.5 615C1164.5 626.598 1173.9 636 1185.5 636C1197.1 636 1206.5 626.598 1206.5 615C1206.5 603.402 1197.1 594 1185.5 594ZM1166.5 615C1166.5 604.507 1175.01 596 1185.5 596C1190.42 596 1194.91 597.871 1198.28 600.941L1171.44 627.781C1168.37 624.406 1166.5 619.922 1166.5 615ZM1172.86 629.188C1176.22 632.181 1180.65 634 1185.5 634C1195.99 634 1204.5 625.493 1204.5 615C1204.5 610.148 1202.68 605.721 1199.69 602.363L1172.86 629.188Z" fill="#263030"/>
<path fill-rule="evenodd" clip-rule="evenodd" d="M1243.5 594C1231.9 594 1222.5 603.402 1222.5 615C1222.5 626.598 1231.9 636 1243.5 636C1255.1 636 1264.5 626.598 1264.5 615C1264.5 603.402 1255.1 594 1243.5 594ZM1224.5 615C1224.5 604.507 1233.01 596 1243.5 596C1248.42 596 1252.91 597.871 1256.28 600.941L1229.44 627.781C1226.37 624.406 1224.5 619.922 1224.5 615ZM1230.86 629.188C1234.22 632.181 1238.65 634 1243.5 634C1253.99 634 1262.5 625.493 1262.5 615C1262.5 610.148 1260.68 605.721 1257.69 602.363L1230.86 629.188Z" fill="#263030"/>
<path fill-rule="evenodd" clip-rule="evenodd" d="M1301.5 594C1289.9 594 1280.5 603.402 1280.5 615C1280.5 626.598 1289.9 636 1301.5 636C1313.1 636 1322.5 626.598 1322.5 615C1322.5 603.402 1313.1 594 1301.5 594ZM1282.5 615C1282.5 604.507 1291.01 596 1301.5 596C1306.42 596 1310.91 597.871 1314.28 600.941L1287.44 627.781C1284.37 624.406 1282.5 619.922 1282.5 615ZM1288.86 629.188C1292.22 632.181 1296.65 634 1301.5 634C1311.99 634 1320.5 625.493 1320.5 615C1320.5 610.148 1318.68 605.721 1315.69 602.363L1288.86 629.188Z" fill="#263030"/>
<rect x="1335.5" y="581" width="126" height="68" stroke="#263030" stroke-width="2"/>
<path fill-rule="evenodd" clip-rule="evenodd" d="M1369.5 594C1357.9 594 1348.5 603.402 1348.5 615C1348.5 626.598 1357.9 636 1369.5 636C1381.1 636 1390.5 626.598 1390.5 615C1390.5 603.402 1381.1 594 1369.5 594ZM1350.5 615C1350.5 604.507 1359.01 596 1369.5 596C1374.42 596 1378.91 597.871 1382.28 600.941L1355.44 627.781C1352.37 624.406 1350.5 619.922 1350.5 615ZM1356.86 629.188C1360.22 632.181 1364.65 634 1369.5 634C1379.99 634 1388.5 625.493 1388.5 615C1388.5 610.148 1386.68 605.721 1383.69 602.363L1356.86 629.188Z" fill="#263030"/>
<path fill-rule="evenodd" clip-rule="evenodd" d="M1427.5 594C1415.9 594 1406.5 603.402 1406.5 615C1406.5 626.598 1415.9 636 1427.5 636C1439.1 636 1448.5 626.598 1448.5 615C1448.5 603.402 1439.1 594 1427.5 594ZM1408.5 615C1408.5 604.507 1417.01 596 1427.5 596C1432.42 596 1436.91 597.871 1440.28 600.941L1413.44 627.781C1410.37 624.406 1408.5 619.922 1408.5 615ZM1414.86 629.188C1418.22 632.181 1422.65 634 1427.5 634C1437.99 634 1446.5 625.493 1446.5 615C1446.5 610.148 1444.68 605.721 1441.69 602.363L1414.86 629.188Z" fill="#263030"/>
<rect x="1461.5" y="581" width="68" height="68" stroke="#263030" stroke-width="2"/>
<path fill-rule="evenodd" clip-rule="evenodd" d="M1495.5 594C1483.9 594 1474.5 603.402 1474.5 615C1474.5 626.598 1483.9 636 1495.5 636C1507.1 636 1516.5 626.598 1516.5 615C1516.5 603.402 1507.1 594 1495.5 594ZM1476.5 615C1476.5 604.507 1485.01 596 1495.5 596C1500.42 596 1504.91 597.871 1508.28 600.941L1481.44 627.781C1478.37 624.406 1476.5 619.922 1476.5 615ZM1482.86 629.188C1486.22 632.181 1490.65 634 1495.5 634C1505.99 634 1514.5 625.493 1514.5 615C1514.5 610.148 1512.68 605.721 1509.69 602.363L1482.86 629.188Z" fill="#263030"/>
<rect x="120.5" y="649" width="131" height="68" stroke="#263030" stroke-width="2"/>
<path d="M154.12 692H149.72C147.82 692 146.92 691.1 146.92 689.2V680.8C146.92 678.9 147.82 678 149.72 678H154.12C156.02 678 156.92 678.9 156.92 680.8V689.2C156.92 691.04 156.02 692 154.12 692ZM149.32 680.94V689.06C149.32 689.6 149.52 689.8 150.06 689.8H153.76C154.32 689.8 154.52 689.6 154.52 689.06V680.94C154.52 680.4 154.32 680.2 153.76 680.2H150.06C149.52 680.2 149.32 680.4 149.32 680.94ZM166.252 680.2V684.44C167.032 683.5 167.832 682.8 169.832 682.8C172.252 682.8 173.152 683.7 173.152 685.6V689.14C173.152 691.04 172.192 692 170.292 692H166.472C164.572 692 163.672 691.1 163.672 689.2V687.78H166.072V689.06C166.072 689.6 166.272 689.8 166.812 689.8H170.012C170.552 689.8 170.752 689.6 170.752 689.06V685.7C170.752 685.16 170.552 684.96 169.512 684.96C167.972 684.96 167.152 685.28 166.252 685.82L163.852 685.18V678H172.812V680.2H166.252Z" fill="#263030"/>
<rect x="251.5" y="649" width="358" height="68" stroke="#263030" stroke-width="2"/>
<path fill-rule="evenodd" clip-rule="evenodd" d="M285.5 662C273.902 662 264.5 671.402 264.5 683C264.5 694.598 273.902 704 285.5 704C297.098 704 306.5 694.598 306.5 683C306.5 671.402 297.098 662 285.5 662ZM266.5 683C266.5 672.507 275.007 664 285.5 664C290.422 664 294.906 665.871 298.281 668.941L271.441 695.781C268.371 692.406 266.5 687.922 266.5 683ZM272.863 697.188C276.221 700.181 280.648 702 285.5 702C295.993 702 304.5 693.493 304.5 683C304.5 678.148 302.681 673.721 299.688 670.363L272.863 697.188Z" fill="#263030"/>
<path fill-rule="evenodd" clip-rule="evenodd" d="M343.5 662C331.902 662 322.5 671.402 322.5 683C322.5 694.598 331.902 704 343.5 704C355.098 704 364.5 694.598 364.5 683C364.5 671.402 355.098 662 343.5 662ZM324.5 683C324.5 672.507 333.007 664 343.5 664C348.422 664 352.906 665.871 356.281 668.941L329.441 695.781C326.371 692.406 324.5 687.922 324.5 683ZM330.863 697.188C334.221 700.181 338.648 702 343.5 702C353.993 702 362.5 693.493 362.5 683C362.5 678.148 360.681 673.721 357.688 670.363L330.863 697.188Z" fill="#263030"/>
<path fill-rule="evenodd" clip-rule="evenodd" d="M401.5 662C389.902 662 380.5 671.402 380.5 683C380.5 694.598 389.902 704 401.5 704C413.098 704 422.5 694.598 422.5 683C422.5 671.402 413.098 662 401.5 662ZM382.5 683C382.5 672.507 391.007 664 401.5 664C406.422 664 410.906 665.871 414.281 668.941L387.441 695.781C384.371 692.406 382.5 687.922 382.5 683ZM388.863 697.188C392.221 700.181 396.648 702 401.5 702C411.993 702 420.5 693.493 420.5 683C420.5 678.148 418.681 673.721 415.688 670.363L388.863 697.188Z" fill="#263030"/>
<path fill-rule="evenodd" clip-rule="evenodd" d="M459.5 662C447.902 662 438.5 671.402 438.5 683C438.5 694.598 447.902 704 459.5 704C471.098 704 480.5 694.598 480.5 683C480.5 671.402 471.098 662 459.5 662ZM440.5 683C440.5 672.507 449.007 664 459.5 664C464.422 664 468.906 665.871 472.281 668.941L445.441 695.781C442.371 692.406 440.5 687.922 440.5 683ZM446.863 697.188C450.221 700.181 454.648 702 459.5 702C469.993 702 478.5 693.493 478.5 683C478.5 678.148 476.681 673.721 473.688 670.363L446.863 697.188Z" fill="#263030"/>
<path fill-rule="evenodd" clip-rule="evenodd" d="M517.5 662C505.902 662 496.5 671.402 496.5 683C496.5 694.598 505.902 704 517.5 704C529.098 704 538.5 694.598 538.5 683C538.5 671.402 529.098 662 517.5 662ZM498.5 683C498.5 672.507 507.007 664 517.5 664C522.422 664 526.906 665.871 530.281 668.941L503.441 695.781C500.371 692.406 498.5 687.922 498.5 683ZM504.863 697.188C508.221 700.181 512.648 702 517.5 702C527.993 702 536.5 693.493 536.5 683C536.5 678.148 534.681 673.721 531.688 670.363L504.863 697.188Z" fill="#263030"/>
<path fill-rule="evenodd" clip-rule="evenodd" d="M575.5 662C563.902 662 554.5 671.402 554.5 683C554.5 694.598 563.902 704 575.5 704C587.098 704 596.5 694.598 596.5 683C596.5 671.402 587.098 662 575.5 662ZM556.5 683C556.5 672.507 565.007 664 575.5 664C580.422 664 584.906 665.871 588.281 668.941L561.441 695.781C558.371 692.406 556.5 687.922 556.5 683ZM562.863 697.188C566.221 700.181 570.648 702 575.5 702C585.993 702 594.5 693.493 594.5 683C594.5 678.148 592.681 673.721 589.688 670.363L562.863 697.188Z" fill="#263030"/>
<rect x="609.5" y="649" width="300" height="68" stroke="#263030" stroke-width="2"/>
<path fill-rule="evenodd" clip-rule="evenodd" d="M643.5 662C631.902 662 622.5 671.402 622.5 683C622.5 694.598 631.902 704 643.5 704C655.098 704 664.5 694.598 664.5 683C664.5 671.402 655.098 662 643.5 662ZM624.5 683C624.5 672.507 633.007 664 643.5 664C648.422 664 652.906 665.871 656.281 668.941L629.441 695.781C626.371 692.406 624.5 687.922 624.5 683ZM630.863 697.188C634.221 700.181 638.648 702 643.5 702C653.993 702 662.5 693.493 662.5 683C662.5 678.148 660.681 673.721 657.688 670.363L630.863 697.188Z" fill="#263030"/>
<path fill-rule="evenodd" clip-rule="evenodd" d="M701.5 662C689.902 662 680.5 671.402 680.5 683C680.5 694.598 689.902 704 701.5 704C713.098 704 722.5 694.598 722.5 683C722.5 671.402 713.098 662 701.5 662ZM682.5 683C682.5 672.507 691.007 664 701.5 664C706.422 664 710.906 665.871 714.281 668.941L687.441 695.781C684.371 692.406 682.5 687.922 682.5 683ZM688.863 697.188C692.221 700.181 696.648 702 701.5 702C711.993 702 720.5 693.493 720.5 683C720.5 678.148 718.681 673.721 715.688 670.363L688.863 697.188Z" fill="#263030"/>
<path fill-rule="evenodd" clip-rule="evenodd" d="M759.5 662C747.902 662 738.5 671.402 738.5 683C738.5 694.598 747.902 704 759.5 704C771.098 704 780.5 694.598 780.5 683C780.5 671.402 771.098 662 759.5 662ZM740.5 683C740.5 672.507 749.007 664 759.5 664C764.422 664 768.906 665.871 772.281 668.941L745.441 695.781C742.371 692.406 740.5 687.922 740.5 683ZM746.863 697.188C750.221 700.181 754.648 702 759.5 702C769.993 702 778.5 693.493 778.5 683C778.5 678.148 776.681 673.721 773.688 670.363L746.863 697.188Z" fill="#263030"/>
<path fill-rule="evenodd" clip-rule="evenodd" d="M817.5 662C805.902 662 796.5 671.402 796.5 683C796.5 694.598 805.902 704 817.5 704C829.098 704 838.5 694.598 838.5 683C838.5 671.402 829.098 662 817.5 662ZM798.5 683C798.5 672.507 807.007 664 817.5 664C822.422 664 826.906 665.871 830.281 668.941L803.441 695.781C800.371 692.406 798.5 687.922 798.5 683ZM804.863 697.188C808.221 700.181 812.648 702 817.5 702C827.993 702 836.5 693.493 836.5 683C836.5 678.148 834.681 673.721 831.688 670.363L804.863 697.188Z" fill="#263030"/>
<path fill-rule="evenodd" clip-rule="evenodd" d="M875.5 662C863.902 662 854.5 671.402 854.5 683C854.5 694.598 863.902 704 875.5 704C887.098 704 896.5 694.598 896.5 683C896.5 671.402 887.098 662 875.5 662ZM856.5 683C856.5 672.507 865.007 664 875.5 664C880.422 664 884.906 665.871 888.281 668.941L861.441 695.781C858.371 692.406 856.5 687.922 856.5 683ZM862.863 697.188C866.221 700.181 870.648 702 875.5 702C885.993 702 894.5 693.493 894.5 683C894.5 678.148 892.681 673.721 889.688 670.363L862.863 697.188Z" fill="#263030"/>
<rect x="909.5" y="649" width="242" height="68" stroke="#263030" stroke-width="2"/>
<path fill-rule="evenodd" clip-rule="evenodd" d="M943.5 662C931.902 662 922.5 671.402 922.5 683C922.5 694.598 931.902 704 943.5 704C955.098 704 964.5 694.598 964.5 683C964.5 671.402 955.098 662 943.5 662ZM924.5 683C924.5 672.507 933.007 664 943.5 664C948.422 664 952.906 665.871 956.281 668.941L929.441 695.781C926.371 692.406 924.5 687.922 924.5 683ZM930.863 697.188C934.221 700.181 938.648 702 943.5 702C953.993 702 962.5 693.493 962.5 683C962.5 678.148 960.681 673.721 957.688 670.363L930.863 697.188Z" fill="#263030"/>
<path fill-rule="evenodd" clip-rule="evenodd" d="M1001.5 662C989.902 662 980.5 671.402 980.5 683C980.5 694.598 989.902 704 1001.5 704C1013.1 704 1022.5 694.598 1022.5 683C1022.5 671.402 1013.1 662 1001.5 662ZM982.5 683C982.5 672.507 991.007 664 1001.5 664C1006.42 664 1010.91 665.871 1014.28 668.941L987.441 695.781C984.371 692.406 982.5 687.922 982.5 683ZM988.863 697.188C992.221 700.181 996.648 702 1001.5 702C1011.99 702 1020.5 693.493 1020.5 683C1020.5 678.148 1018.68 673.721 1015.69 670.363L988.863 697.188Z" fill="#263030"/>
<path fill-rule="evenodd" clip-rule="evenodd" d="M1059.5 662C1047.9 662 1038.5 671.402 1038.5 683C1038.5 694.598 1047.9 704 1059.5 704C1071.1 704 1080.5 694.598 1080.5 683C1080.5 671.402 1071.1 662 1059.5 662ZM1040.5 683C1040.5 672.507 1049.01 664 1059.5 664C1064.42 664 1068.91 665.871 1072.28 668.941L1045.44 695.781C1042.37 692.406 1040.5 687.922 1040.5 683ZM1046.86 697.188C1050.22 700.181 1054.65 702 1059.5 702C1069.99 702 1078.5 693.493 1078.5 683C1078.5 678.148 1076.68 673.721 1073.69 670.363L1046.86 697.188Z" fill="#263030"/>
<path fill-rule="evenodd" clip-rule="evenodd" d="M1117.5 662C1105.9 662 1096.5 671.402 1096.5 683C1096.5 694.598 1105.9 704 1117.5 704C1129.1 704 1138.5 694.598 1138.5 683C1138.5 671.402 1129.1 662 1117.5 662ZM1098.5 683C1098.5 672.507 1107.01 664 1117.5 664C1122.42 664 1126.91 665.871 1130.28 668.941L1103.44 695.781C1100.37 692.406 1098.5 687.922 1098.5 683ZM1104.86 697.188C1108.22 700.181 1112.65 702 1117.5 702C1127.99 702 1136.5 693.493 1136.5 683C1136.5 678.148 1134.68 673.721 1131.69 670.363L1104.86 697.188Z" fill="#263030"/>
<rect x="1151.5" y="649" width="184" height="68" stroke="#263030" stroke-width="2"/>
<path fill-rule="evenodd" clip-rule="evenodd" d="M1185.5 662C1173.9 662 1164.5 671.402 1164.5 683C1164.5 694.598 1173.9 704 1185.5 704C1197.1 704 1206.5 694.598 1206.5 683C1206.5 671.402 1197.1 662 1185.5 662ZM1166.5 683C1166.5 672.507 1175.01 664 1185.5 664C1190.42 664 1194.91 665.871 1198.28 668.941L1171.44 695.781C1168.37 692.406 1166.5 687.922 1166.5 683ZM1172.86 697.188C1176.22 700.181 1180.65 702 1185.5 702C1195.99 702 1204.5 693.493 1204.5 683C1204.5 678.148 1202.68 673.721 1199.69 670.363L1172.86 697.188Z" fill="#263030"/>
<path fill-rule="evenodd" clip-rule="evenodd" d="M1243.5 662C1231.9 662 1222.5 671.402 1222.5 683C1222.5 694.598 1231.9 704 1243.5 704C1255.1 704 1264.5 694.598 1264.5 683C1264.5 671.402 1255.1 662 1243.5 662ZM1224.5 683C1224.5 672.507 1233.01 664 1243.5 664C1248.42 664 1252.91 665.871 1256.28 668.941L1229.44 695.781C1226.37 692.406 1224.5 687.922 1224.5 683ZM1230.86 697.188C1234.22 700.181 1238.65 702 1243.5 702C1253.99 702 1262.5 693.493 1262.5 683C1262.5 678.148 1260.68 673.721 1257.69 670.363L1230.86 697.188Z" fill="#263030"/>
<path fill-rule="evenodd" clip-rule="evenodd" d="M1301.5 662C1289.9 662 1280.5 671.402 1280.5 683C1280.5 694.598 1289.9 704 1301.5 704C1313.1 704 1322.5 694.598 1322.5 683C1322.5 671.402 1313.1 662 1301.5 662ZM1282.5 683C1282.5 672.507 1291.01 664 1301.5 664C1306.42 664 1310.91 665.871 1314.28 668.941L1287.44 695.781C1284.37 692.406 1282.5 687.922 1282.5 683ZM1288.86 697.188C1292.22 700.181 1296.65 702 1301.5 702C1311.99 702 1320.5 693.493 1320.5 683C1320.5 678.148 1318.68 673.721 1315.69 670.363L1288.86 697.188Z" fill="#263030"/>
<rect x="1335.5" y="649" width="126" height="68" stroke="#263030" stroke-width="2"/>
<path fill-rule="evenodd" clip-rule="evenodd" d="M1369.5 662C1357.9 662 1348.5 671.402 1348.5 683C1348.5 694.598 1357.9 704 1369.5 704C1381.1 704 1390.5 694.598 1390.5 683C1390.5 671.402 1381.1 662 1369.5 662ZM1350.5 683C1350.5 672.507 1359.01 664 1369.5 664C1374.42 664 1378.91 665.871 1382.28 668.941L1355.44 695.781C1352.37 692.406 1350.5 687.922 1350.5 683ZM1356.86 697.188C1360.22 700.181 1364.65 702 1369.5 702C1379.99 702 1388.5 693.493 1388.5 683C1388.5 678.148 1386.68 673.721 1383.69 670.363L1356.86 697.188Z" fill="#263030"/>
<path fill-rule="evenodd" clip-rule="evenodd" d="M1427.5 662C1415.9 662 1406.5 671.402 1406.5 683C1406.5 694.598 1415.9 704 1427.5 704C1439.1 704 1448.5 694.598 1448.5 683C1448.5 671.402 1439.1 662 1427.5 662ZM1408.5 683C1408.5 672.507 1417.01 664 1427.5 664C1432.42 664 1436.91 665.871 1440.28 668.941L1413.44 695.781C1410.37 692.406 1408.5 687.922 1408.5 683ZM1414.86 697.188C1418.22 700.181 1422.65 702 1427.5 702C1437.99 702 1446.5 693.493 1446.5 683C1446.5 678.148 1444.68 673.721 1441.69 670.363L1414.86 697.188Z" fill="#263030"/>
<rect x="1461.5" y="649" width="68" height="68" stroke="#263030" stroke-width="2"/>
<path fill-rule="evenodd" clip-rule="evenodd" d="M1495.5 662C1483.9 662 1474.5 671.402 1474.5 683C1474.5 694.598 1483.9 704 1495.5 704C1507.1 704 1516.5 694.598 1516.5 683C1516.5 671.402 1507.1 662 1495.5 662ZM1476.5 683C1476.5 672.507 1485.01 664 1495.5 664C1500.42 664 1504.91 665.871 1508.28 668.941L1481.44 695.781C1478.37 692.406 1476.5 687.922 1476.5 683ZM1482.86 697.188C1486.22 700.181 1490.65 702 1495.5 702C1505.99 702 1514.5 693.493 1514.5 683C1514.5 678.148 1512.68 673.721 1509.69 670.363L1482.86 697.188Z" fill="#263030"/>
<rect x="120.5" y="717" width="131" height="68" stroke="#263030" stroke-width="2"/>
<path d="M154.12 760H149.72C147.82 760 146.92 759.1 146.92 757.2V748.8C146.92 746.9 147.82 746 149.72 746H154.12C156.02 746 156.92 746.9 156.92 748.8V757.2C156.92 759.04 156.02 760 154.12 760ZM149.32 748.94V757.06C149.32 757.6 149.52 757.8 150.06 757.8H153.76C154.32 757.8 154.52 757.6 154.52 757.06V748.94C154.52 748.4 154.32 748.2 153.76 748.2H150.06C149.52 748.2 149.32 748.4 149.32 748.94ZM170.692 750.06V748.94C170.692 748.46 170.432 748.2 169.952 748.2H166.892C166.412 748.2 166.152 748.46 166.152 748.94V752.84C166.952 751.88 167.692 751.2 169.872 751.2C172.372 751.2 173.272 752.1 173.272 754V757.2C173.272 759.1 172.372 760 170.472 760H166.552C164.652 760 163.752 759.1 163.752 757.2V748.8C163.752 746.9 164.652 746 166.552 746H170.292C172.192 746 173.092 746.9 173.092 748.8V750.06H170.692ZM166.152 754.2V757.06C166.152 757.6 166.352 757.8 166.892 757.8H170.132C170.672 757.8 170.872 757.6 170.872 757.06V754.08C170.872 753.54 170.672 753.34 169.512 753.34C167.832 753.34 167.052 753.66 166.152 754.2Z" fill="#263030"/>
<rect x="251.5" y="717" width="358" height="68" stroke="#263030" stroke-width="2"/>
<path fill-rule="evenodd" clip-rule="evenodd" d="M285.5 730C273.902 730 264.5 739.402 264.5 751C264.5 762.598 273.902 772 285.5 772C297.098 772 306.5 762.598 306.5 751C306.5 739.402 297.098 730 285.5 730ZM266.5 751C266.5 740.507 275.007 732 285.5 732C290.422 732 294.906 733.871 298.281 736.941L271.441 763.781C268.371 760.406 266.5 755.922 266.5 751ZM272.863 765.188C276.221 768.181 280.648 770 285.5 770C295.993 770 304.5 761.493 304.5 751C304.5 746.148 302.681 741.721 299.688 738.363L272.863 765.188Z" fill="#263030"/>
<path fill-rule="evenodd" clip-rule="evenodd" d="M343.5 730C331.902 730 322.5 739.402 322.5 751C322.5 762.598 331.902 772 343.5 772C355.098 772 364.5 762.598 364.5 751C364.5 739.402 355.098 730 343.5 730ZM324.5 751C324.5 740.507 333.007 732 343.5 732C348.422 732 352.906 733.871 356.281 736.941L329.441 763.781C326.371 760.406 324.5 755.922 324.5 751ZM330.863 765.188C334.221 768.181 338.648 770 343.5 770C353.993 770 362.5 761.493 362.5 751C362.5 746.148 360.681 741.721 357.688 738.363L330.863 765.188Z" fill="#263030"/>
<path fill-rule="evenodd" clip-rule="evenodd" d="M401.5 730C389.902 730 380.5 739.402 380.5 751C380.5 762.598 389.902 772 401.5 772C413.098 772 422.5 762.598 422.5 751C422.5 739.402 413.098 730 401.5 730ZM382.5 751C382.5 740.507 391.007 732 401.5 732C406.422 732 410.906 733.871 414.281 736.941L387.441 763.781C384.371 760.406 382.5 755.922 382.5 751ZM388.863 765.188C392.221 768.181 396.648 770 401.5 770C411.993 770 420.5 761.493 420.5 751C420.5 746.148 418.681 741.721 415.688 738.363L388.863 765.188Z" fill="#263030"/>
<path fill-rule="evenodd" clip-rule="evenodd" d="M459.5 730C447.902 730 438.5 739.402 438.5 751C438.5 762.598 447.902 772 459.5 772C471.098 772 480.5 762.598 480.5 751C480.5 739.402 471.098 730 459.5 730ZM440.5 751C440.5 740.507 449.007 732 459.5 732C464.422 732 468.906 733.871 472.281 736.941L445.441 763.781C442.371 760.406 440.5 755.922 440.5 751ZM446.863 765.188C450.221 768.181 454.648 770 459.5 770C469.993 770 478.5 761.493 478.5 751C478.5 746.148 476.681 741.721 473.688 738.363L446.863 765.188Z" fill="#263030"/>
<path fill-rule="evenodd" clip-rule="evenodd" d="M517.5 730C505.902 730 496.5 739.402 496.5 751C496.5 762.598 505.902 772 517.5 772C529.098 772 538.5 762.598 538.5 751C538.5 739.402 529.098 730 517.5 730ZM498.5 751C498.5 740.507 507.007 732 517.5 732C522.422 732 526.906 733.871 530.281 736.941L503.441 763.781C500.371 760.406 498.5 755.922 498.5 751ZM504.863 765.188C508.221 768.181 512.648 770 517.5 770C527.993 770 536.5 761.493 536.5 751C536.5 746.148 534.681 741.721 531.688 738.363L504.863 765.188Z" fill="#263030"/>
<path fill-rule="evenodd" clip-rule="evenodd" d="M575.5 730C563.902 730 554.5 739.402 554.5 751C554.5 762.598 563.902 772 575.5 772C587.098 772 596.5 762.598 596.5 751C596.5 739.402 587.098 730 575.5 730ZM556.5 751C556.5 740.507 565.007 732 575.5 732C580.422 732 584.906 733.871 588.281 736.941L561.441 763.781C558.371 760.406 556.5 755.922 556.5 751ZM562.863 765.188C566.221 768.181 570.648 770 575.5 770C585.993 770 594.5 761.493 594.5 751C594.5 746.148 592.681 741.721 589.688 738.363L562.863 765.188Z" fill="#263030"/>
<rect x="609.5" y="717" width="300" height="68" stroke="#263030" stroke-width="2"/>
<path fill-rule="evenodd" clip-rule="evenodd" d="M643.5 730C631.902 730 622.5 739.402 622.5 751C622.5 762.598 631.902 772 643.5 772C655.098 772 664.5 762.598 664.5 751C664.5 739.402 655.098 730 643.5 730ZM624.5 751C624.5 740.507 633.007 732 643.5 732C648.422 732 652.906 733.871 656.281 736.941L629.441 763.781C626.371 760.406 624.5 755.922 624.5 751ZM630.863 765.188C634.221 768.181 638.648 770 643.5 770C653.993 770 662.5 761.493 662.5 751C662.5 746.148 660.681 741.721 657.688 738.363L630.863 765.188Z" fill="#263030"/>
<path fill-rule="evenodd" clip-rule="evenodd" d="M701.5 730C689.902 730 680.5 739.402 680.5 751C680.5 762.598 689.902 772 701.5 772C713.098 772 722.5 762.598 722.5 751C722.5 739.402 713.098 730 701.5 730ZM682.5 751C682.5 740.507 691.007 732 701.5 732C706.422 732 710.906 733.871 714.281 736.941L687.441 763.781C684.371 760.406 682.5 755.922 682.5 751ZM688.863 765.188C692.221 768.181 696.648 770 701.5 770C711.993 770 720.5 761.493 720.5 751C720.5 746.148 718.681 741.721 715.688 738.363L688.863 765.188Z" fill="#263030"/>
<path fill-rule="evenodd" clip-rule="evenodd" d="M759.5 730C747.902 730 738.5 739.402 738.5 751C738.5 762.598 747.902 772 759.5 772C771.098 772 780.5 762.598 780.5 751C780.5 739.402 771.098 730 759.5 730ZM740.5 751C740.5 740.507 749.007 732 759.5 732C764.422 732 768.906 733.871 772.281 736.941L745.441 763.781C742.371 760.406 740.5 755.922 740.5 751ZM746.863 765.188C750.221 768.181 754.648 770 759.5 770C769.993 770 778.5 761.493 778.5 751C778.5 746.148 776.681 741.721 773.688 738.363L746.863 765.188Z" fill="#263030"/>
<path fill-rule="evenodd" clip-rule="evenodd" d="M817.5 730C805.902 730 796.5 739.402 796.5 751C796.5 762.598 805.902 772 817.5 772C829.098 772 838.5 762.598 838.5 751C838.5 739.402 829.098 730 817.5 730ZM798.5 751C798.5 740.507 807.007 732 817.5 732C822.422 732 826.906 733.871 830.281 736.941L803.441 763.781C800.371 760.406 798.5 755.922 798.5 751ZM804.863 765.188C808.221 768.181 812.648 770 817.5 770C827.993 770 836.5 761.493 836.5 751C836.5 746.148 834.681 741.721 831.688 738.363L804.863 765.188Z" fill="#263030"/>
<path fill-rule="evenodd" clip-rule="evenodd" d="M875.5 730C863.902 730 854.5 739.402 854.5 751C854.5 762.598 863.902 772 875.5 772C887.098 772 896.5 762.598 896.5 751C896.5 739.402 887.098 730 875.5 730ZM856.5 751C856.5 740.507 865.007 732 875.5 732C880.422 732 884.906 733.871 888.281 736.941L861.441 763.781C858.371 760.406 856.5 755.922 856.5 751ZM862.863 765.188C866.221 768.181 870.648 770 875.5 770C885.993 770 894.5 761.493 894.5 751C894.5 746.148 892.681 741.721 889.688 738.363L862.863 765.188Z" fill="#263030"/>
<rect x="909.5" y="717" width="242" height="68" stroke="#263030" stroke-width="2"/>
<path fill-rule="evenodd" clip-rule="evenodd" d="M943.5 730C931.902 730 922.5 739.402 922.5 751C922.5 762.598 931.902 772 943.5 772C955.098 772 964.5 762.598 964.5 751C964.5 739.402 955.098 730 943.5 730ZM924.5 751C924.5 740.507 933.007 732 943.5 732C948.422 732 952.906 733.871 956.281 736.941L929.441 763.781C926.371 760.406 924.5 755.922 924.5 751ZM930.863 765.188C934.221 768.181 938.648 770 943.5 770C953.993 770 962.5 761.493 962.5 751C962.5 746.148 960.681 741.721 957.688 738.363L930.863 765.188Z" fill="#263030"/>
<path fill-rule="evenodd" clip-rule="evenodd" d="M1001.5 730C989.902 730 980.5 739.402 980.5 751C980.5 762.598 989.902 772 1001.5 772C1013.1 772 1022.5 762.598 1022.5 751C1022.5 739.402 1013.1 730 1001.5 730ZM982.5 751C982.5 740.507 991.007 732 1001.5 732C1006.42 732 1010.91 733.871 1014.28 736.941L987.441 763.781C984.371 760.406 982.5 755.922 982.5 751ZM988.863 765.188C992.221 768.181 996.648 770 1001.5 770C1011.99 770 1020.5 761.493 1020.5 751C1020.5 746.148 1018.68 741.721 1015.69 738.363L988.863 765.188Z" fill="#263030"/>
<path fill-rule="evenodd" clip-rule="evenodd" d="M1059.5 730C1047.9 730 1038.5 739.402 1038.5 751C1038.5 762.598 1047.9 772 1059.5 772C1071.1 772 1080.5 762.598 1080.5 751C1080.5 739.402 1071.1 730 1059.5 730ZM1040.5 751C1040.5 740.507 1049.01 732 1059.5 732C1064.42 732 1068.91 733.871 1072.28 736.941L1045.44 763.781C1042.37 760.406 1040.5 755.922 1040.5 751ZM1046.86 765.188C1050.22 768.181 1054.65 770 1059.5 770C1069.99 770 1078.5 761.493 1078.5 751C1078.5 746.148 1076.68 741.721 1073.69 738.363L1046.86 765.188Z" fill="#263030"/>
<path fill-rule="evenodd" clip-rule="evenodd" d="M1117.5 730C1105.9 730 1096.5 739.402 1096.5 751C1096.5 762.598 1105.9 772 1117.5 772C1129.1 772 1138.5 762.598 1138.5 751C1138.5 739.402 1129.1 730 1117.5 730ZM1098.5 751C1098.5 740.507 1107.01 732 1117.5 732C1122.42 732 1126.91 733.871 1130.28 736.941L1103.44 763.781C1100.37 760.406 1098.5 755.922 1098.5 751ZM1104.86 765.188C1108.22 768.181 1112.65 770 1117.5 770C1127.99 770 1136.5 761.493 1136.5 751C1136.5 746.148 1134.68 741.721 1131.69 738.363L1104.86 765.188Z" fill="#263030"/>
<rect x="1151.5" y="717" width="184" height="68" stroke="#263030" stroke-width="2"/>
<path fill-rule="evenodd" clip-rule="evenodd" d="M1185.5 730C1173.9 730 1164.5 739.402 1164.5 751C1164.5 762.598 1173.9 772 1185.5 772C1197.1 772 1206.5 762.598 1206.5 751C1206.5 739.402 1197.1 730 1185.5 730ZM1166.5 751C1166.5 740.507 1175.01 732 1185.5 732C1190.42 732 1194.91 733.871 1198.28 736.941L1171.44 763.781C1168.37 760.406 1166.5 755.922 1166.5 751ZM1172.86 765.188C1176.22 768.181 1180.65 770 1185.5 770C1195.99 770 1204.5 761.493 1204.5 751C1204.5 746.148 1202.68 741.721 1199.69 738.363L1172.86 765.188Z" fill="#263030"/>
<path fill-rule="evenodd" clip-rule="evenodd" d="M1243.5 730C1231.9 730 1222.5 739.402 1222.5 751C1222.5 762.598 1231.9 772 1243.5 772C1255.1 772 1264.5 762.598 1264.5 751C1264.5 739.402 1255.1 730 1243.5 730ZM1224.5 751C1224.5 740.507 1233.01 732 1243.5 732C1248.42 732 1252.91 733.871 1256.28 736.941L1229.44 763.781C1226.37 760.406 1224.5 755.922 1224.5 751ZM1230.86 765.188C1234.22 768.181 1238.65 770 1243.5 770C1253.99 770 1262.5 761.493 1262.5 751C1262.5 746.148 1260.68 741.721 1257.69 738.363L1230.86 765.188Z" fill="#263030"/>
<path fill-rule="evenodd" clip-rule="evenodd" d="M1301.5 730C1289.9 730 1280.5 739.402 1280.5 751C1280.5 762.598 1289.9 772 1301.5 772C1313.1 772 1322.5 762.598 1322.5 751C1322.5 739.402 1313.1 730 1301.5 730ZM1282.5 751C1282.5 740.507 1291.01 732 1301.5 732C1306.42 732 1310.91 733.871 1314.28 736.941L1287.44 763.781C1284.37 760.406 1282.5 755.922 1282.5 751ZM1288.86 765.188C1292.22 768.181 1296.65 770 1301.5 770C1311.99 770 1320.5 761.493 1320.5 751C1320.5 746.148 1318.68 741.721 1315.69 738.363L1288.86 765.188Z" fill="#263030"/>
<rect x="1335.5" y="717" width="126" height="68" stroke="#263030" stroke-width="2"/>
<path fill-rule="evenodd" clip-rule="evenodd" d="M1369.5 730C1357.9 730 1348.5 739.402 1348.5 751C1348.5 762.598 1357.9 772 1369.5 772C1381.1 772 1390.5 762.598 1390.5 751C1390.5 739.402 1381.1 730 1369.5 730ZM1350.5 751C1350.5 740.507 1359.01 732 1369.5 732C1374.42 732 1378.91 733.871 1382.28 736.941L1355.44 763.781C1352.37 760.406 1350.5 755.922 1350.5 751ZM1356.86 765.188C1360.22 768.181 1364.65 770 1369.5 770C1379.99 770 1388.5 761.493 1388.5 751C1388.5 746.148 1386.68 741.721 1383.69 738.363L1356.86 765.188Z" fill="#263030"/>
<path fill-rule="evenodd" clip-rule="evenodd" d="M1427.5 730C1415.9 730 1406.5 739.402 1406.5 751C1406.5 762.598 1415.9 772 1427.5 772C1439.1 772 1448.5 762.598 1448.5 751C1448.5 739.402 1439.1 730 1427.5 730ZM1408.5 751C1408.5 740.507 1417.01 732 1427.5 732C1432.42 732 1436.91 733.871 1440.28 736.941L1413.44 763.781C1410.37 760.406 1408.5 755.922 1408.5 751ZM1414.86 765.188C1418.22 768.181 1422.65 770 1427.5 770C1437.99 770 1446.5 761.493 1446.5 751C1446.5 746.148 1444.68 741.721 1441.69 738.363L1414.86 765.188Z" fill="#263030"/>
<rect x="1461.5" y="717" width="68" height="68" fill="#263030"/>
<rect x="1461.5" y="717" width="68" height="68" stroke="#263030" stroke-width="2"/>
<path fill-rule="evenodd" clip-rule="evenodd" d="M1476.5 751C1476.5 740.507 1485.01 732 1495.5 732C1500.42 732 1504.91 733.871 1508.28 736.941L1481.44 763.781C1478.37 760.406 1476.5 755.922 1476.5 751ZM1482.86 765.188C1486.22 768.181 1490.65 770 1495.5 770C1505.99 770 1514.5 761.493 1514.5 751C1514.5 746.148 1512.68 741.721 1509.69 738.363L1482.86 765.188Z" fill="white"/>
</g>
<rect x="122.5" y="175" width="1405" height="608" stroke="#263030" stroke-width="2"/>
<path d="M136.7 871.02V873H130.92V871.02H132.56L131.82 868.82H126.72L125.98 871.02H127.58V873H121.92V871.02H123.54L127.04 860.98H125.42V859H130.88L135.08 871.02H136.7ZM131.14 866.78L129.28 861.16L127.4 866.78H131.14ZM159.466 863.46V861.94C159.466 861.4 159.266 861.2 158.706 861.2H154.646C154.106 861.2 153.906 861.4 153.906 861.94V870.06C153.906 870.6 154.106 870.8 154.646 870.8H158.706C159.266 870.8 159.466 870.6 159.466 870.06V867.5H156.366V865.38H161.866V870.2C161.866 872.1 160.966 873 159.066 873H154.306C152.406 873 151.506 872.1 151.506 870.2V861.8C151.506 859.9 152.406 859 154.306 859H159.066C160.966 859 161.866 859.9 161.866 861.8V863.46H159.466ZM182.255 871.02V873H176.475V871.02H178.115L177.375 868.82H172.275L171.535 871.02H173.135V873H167.475V871.02H169.095L172.595 860.98H170.975V859H176.435L180.635 871.02H182.255ZM176.695 866.78L174.835 861.16L172.955 866.78H176.695ZM202.84 860.98V871.02H204.68V873H198.54V871.02H200.48V863.04L196.96 870.86H195.12L191.6 863.04V871.02H193.54V873H187.46V871.02H189.3V860.98H187.46V859H192.04L196.1 867.94L200.16 859H204.68V860.98H202.84ZM221.308 859V863.08H219.168V861.06H214.508V864.8H219.728V866.96H214.508V870.94H219.168V868.92H221.308V873H210.268V871.02H212.108V860.98H210.268V859H221.308ZM238.448 860.98H236.608V859H245.588C247.508 859 248.408 859.9 248.408 862.74C248.408 864.58 248.008 865.34 247.108 865.82C248.128 866.24 248.568 866.98 248.568 869.08C248.568 872.1 247.668 873 245.748 873H236.608V871.02H238.448V860.98ZM240.848 864.72H245.108C245.788 864.72 245.988 864.52 245.988 862.94C245.988 861.34 245.788 861.14 245.108 861.14H240.848V864.72ZM240.848 870.86H245.268C245.948 870.86 246.148 870.66 246.148 868.82C246.148 866.98 245.948 866.78 245.268 866.78H240.848V870.86ZM261.588 868.14V871.02H263.548V873H257.208V871.02H259.188V868.14L255.208 860.98H253.588V859H259.048V860.98H257.808L260.408 865.8L263.008 860.98H261.748V859H267.168V860.98H265.548L261.588 868.14ZM281.323 871.02H283.163V860.98H281.323V859H290.563C292.463 859 293.363 859.9 293.363 861.8V870.2C293.363 872.1 292.463 873 290.563 873H281.323V871.02ZM285.563 870.8H290.203C290.763 870.8 290.963 870.6 290.963 870.06V861.94C290.963 861.4 290.763 861.2 290.203 861.2H285.563V870.8ZM310.367 859V863.08H308.227V861.06H303.567V864.8H308.787V866.96H303.567V870.94H308.227V868.92H310.367V873H299.327V871.02H301.167V860.98H299.327V859H310.367ZM329.434 871.02V873H326.014L323.274 867.42H320.594V871.02H322.654V873H316.354V871.02H318.194V860.98H316.354V859H325.214C327.114 859 328.014 859.9 328.014 861.8V864.5C328.014 866.2 327.294 867.08 325.814 867.26L327.614 871.02H329.434ZM320.594 865.3H324.854C325.414 865.3 325.614 865.1 325.614 864.56V861.9C325.614 861.34 325.414 861.14 324.854 861.14H320.594V865.3ZM345.633 859V863.08H343.493V861.06H338.833V864.8H344.053V866.96H338.833V870.94H343.493V868.92H345.633V873H334.593V871.02H336.433V860.98H334.593V859H345.633ZM365.3 871.02V873H361.96L358.24 866.5L355.9 869.28V871.02H357.86V873H351.68V871.02H353.52V860.98H351.68V859H357.74V860.98H355.9V866.36L360.2 860.98H359.02V859H364.72V860.98H362.9L359.82 864.62L363.48 871.02H365.3ZM391.345 859V863.62H389.205V861.04H386.545V871.02H388.745V873H381.925V871.02H384.145V861.04H381.485V863.62H379.345V859H391.345ZM404.947 873H400.107C398.207 873 397.307 872.1 397.307 870.2V861.8C397.307 859.9 398.207 859 400.107 859H404.947C406.847 859 407.747 859.9 407.747 861.8V870.2C407.747 872.1 406.847 873 404.947 873ZM399.707 861.94V870.06C399.707 870.6 399.907 870.8 400.447 870.8H404.607C405.147 870.8 405.347 870.6 405.347 870.06V861.94C405.347 861.4 405.147 861.2 404.607 861.2H400.447C399.907 861.2 399.707 861.4 399.707 861.94ZM426.813 871.02V873H423.393L420.653 867.42H417.973V871.02H420.033V873H413.733V871.02H415.573V860.98H413.733V859H422.593C424.493 859 425.393 859.9 425.393 861.8V864.5C425.393 866.2 424.673 867.08 423.193 867.26L424.993 871.02H426.813ZM417.973 865.3H422.233C422.793 865.3 422.993 865.1 422.993 864.56V861.9C422.993 861.34 422.793 861.14 422.233 861.14H417.973V865.3ZM439.676 863.3V861.9C439.676 861.34 439.476 861.14 438.916 861.14H435.316C434.776 861.14 434.576 861.34 434.576 861.9V863.38C434.576 864.02 434.836 864.24 435.516 864.38L439.356 865.2C441.056 865.56 442.236 866.18 442.236 868.08V870.2C442.236 872.1 441.336 873 439.436 873H434.936C433.036 873 432.136 872.1 432.136 870.2V868.56H434.476V870.1C434.476 870.66 434.676 870.86 435.236 870.86H439.096C439.636 870.86 439.836 870.66 439.836 870.1V868.42C439.836 867.78 439.576 867.58 438.916 867.44L435.056 866.6C433.356 866.24 432.176 865.62 432.176 863.72V861.8C432.176 859.9 433.076 859 434.976 859H439.216C441.116 859 442.016 859.9 442.016 861.8V863.3H439.676ZM462.364 871.02V873H456.584V871.02H458.224L457.484 868.82H452.384L451.644 871.02H453.244V873H447.584V871.02H449.204L452.704 860.98H451.084V859H456.544L460.744 871.02H462.364ZM456.804 866.78L454.944 861.16L453.064 866.78H456.804ZM481.869 860.98H480.109V873H477.669L471.689 862.56V871.02H473.709V873H467.569V871.02H469.409V860.98H467.569V859H472.049L477.829 869.1V860.98H475.809V859H481.869V860.98ZM491.79 860.98V871.02H493.73V873H487.43V871.02H489.39V860.98H487.43V859H493.73V860.98H491.79Z" fill="#263030"/>
<defs>
<clipPath id="clip0_306_2">
<rect x="121.5" y="174" width="1407" height="610" fill="white"/>
</clipPath>
</defs>
</svg>
