<svg width="20" height="28" viewBox="0 0 20 28" fill="none" xmlns="http://www.w3.org/2000/svg">
<path d="M19.916 0.384182H15.2367L15.2521 2.03919C13.7367 0.529299 11.8699 0 9.94939 0C7.33276 5.42379e-08 4.8233 1.02242 2.97306 2.84235C1.12283 4.66227 0.083374 7.13061 0.083374 9.70437C0.083374 12.2781 1.12283 14.7465 2.97306 16.5664C4.8233 18.3863 7.33276 19.4087 9.94939 19.4087C12.2204 19.4087 14.1639 18.4189 15.1651 17.1599C15.1651 17.2362 15.1583 18.1513 15.1557 18.2503C15.137 18.8761 15.0449 19.8785 14.4453 20.9027C14.094 21.4869 13.6272 21.9959 13.0726 22.3998C12.5179 22.8037 11.8867 23.0942 11.2161 23.2542C10.5455 23.4143 9.84905 23.4406 9.16793 23.3316C8.48681 23.2226 7.83477 22.9806 7.25029 22.6198L4.923 26.6042C6.45189 27.5163 8.2056 27.9991 9.99374 28C12.5828 28 15.8115 26.9934 18.1013 23.8721C20.0056 21.2785 19.916 18.8283 19.916 16.4561V0.384182ZM9.94939 14.8053C8.92363 14.8053 7.9209 14.5061 7.06798 13.9456C6.21507 13.3851 5.55028 12.5884 5.15765 11.6563C4.76503 10.7241 4.66222 9.69845 4.86221 8.70885C5.06221 7.71926 5.55602 6.81021 6.28123 6.09666C7.00643 5.3831 7.93046 4.89707 8.93647 4.70003C9.94248 4.50299 10.9853 4.60378 11.9331 4.98966C12.8809 5.37554 13.691 6.02919 14.2612 6.86794C14.8313 7.7067 15.1358 8.6929 15.1361 9.70186C15.1352 11.0548 14.5885 12.3521 13.6161 13.3089C12.6436 14.2658 11.3249 14.8039 9.94939 14.8053Z" fill="#373732"/>
</svg>
