<svg width="33" height="22" viewBox="0 0 33 22" fill="none" xmlns="http://www.w3.org/2000/svg">
<path fill-rule="evenodd" clip-rule="evenodd" d="M3.84562 3.87653C5.72098 1.98728 8.26452 0.925903 10.9167 0.925903H22.9167C25.5689 0.925903 28.1124 1.98728 29.9878 3.87653C31.8631 5.76579 32.9167 8.32817 32.9167 11C32.9167 13.6718 31.8631 16.2342 29.9878 18.1234C28.1124 20.0127 25.5689 21.0741 22.9167 21.0741H10.9167C8.26452 21.0741 5.72098 20.0127 3.84562 18.1234C1.97026 16.2342 0.916687 13.6718 0.916687 11C0.916687 8.32817 1.97026 5.76579 3.84562 3.87653ZM10.9167 4.95553C9.32539 4.95553 7.79926 5.59236 6.67405 6.72591C5.54883 7.85946 4.91669 9.39689 4.91669 11C4.91669 12.6031 5.54883 14.1405 6.67405 15.274C7.79926 16.4076 9.32539 17.0444 10.9167 17.0444H22.9167C24.508 17.0444 26.0341 16.4076 27.1593 15.274C28.2845 14.1405 28.9167 12.6031 28.9167 11C28.9167 9.39689 28.2845 7.85946 27.1593 6.72591C26.0341 5.59236 24.508 4.95553 22.9167 4.95553H10.9167Z" fill="#373732"/>
</svg>
