<svg width="32" height="32" viewBox="0 0 32 32" fill="none" xmlns="http://www.w3.org/2000/svg">
<path fill-rule="evenodd" clip-rule="evenodd" d="M0 15.9997C0 7.1634 7.16359 0 15.9999 0C24.8366 0 32 7.1634 32 15.9997C32 24.837 24.8366 32 15.9999 32C7.16359 32 0 24.837 0 15.9997ZM24.25 8.50001C24.25 8.27954 24.153 8.07024 23.9848 7.92774C23.8166 7.78524 23.5942 7.72397 23.3767 7.76021L13.3767 9.42688C13.0151 9.48715 12.75 9.80004 12.75 10.1667V18.2609C12.2449 17.9375 11.6443 17.75 11 17.75C9.20507 17.75 7.75 19.2051 7.75 21C7.75 22.7949 9.20507 24.25 11 24.25C12.7941 24.25 14.2487 22.7962 14.25 21.0024L14.25 21V10.802L22.75 9.38535V16.5943C22.2449 16.2708 21.6443 16.0833 21 16.0833C19.2051 16.0833 17.75 17.5384 17.75 19.3333C17.75 21.1283 19.2051 22.5833 21 22.5833C22.7949 22.5833 24.25 21.1283 24.25 19.3333V8.50001ZM12.75 21C12.75 20.0335 11.9665 19.25 11 19.25C10.0335 19.25 9.25 20.0335 9.25 21C9.25 21.9665 10.0335 22.75 11 22.75C11.9665 22.75 12.75 21.9665 12.75 21ZM21 17.5833C20.0335 17.5833 19.25 18.3668 19.25 19.3333C19.25 20.2998 20.0335 21.0833 21 21.0833C21.9665 21.0833 22.75 20.2998 22.75 19.3333C22.75 18.3668 21.9665 17.5833 21 17.5833Z" fill="#A0A0B0"/>
</svg>
