<?xml version="1.0" encoding="utf-8"?>
<!-- Generator: Adobe Illustrator 24.1.0, SVG Export Plug-In . SVG Version: 6.00 Build 0)  -->
<svg version="1.1" id="Layer_1" xmlns="http://www.w3.org/2000/svg" xmlns:xlink="http://www.w3.org/1999/xlink" x="0px" y="0px"
	 viewBox="0 0 1000 1000" style="enable-background:new 0 0 1000 1000;" xml:space="preserve">
<style type="text/css">
	.st0{fill:#C9A33A;}
	.st1{fill:#FFFFFF;}
</style>
<rect x="0" class="st0" width="1000" height="1000"/>
<g>
	<g>
		<g>
			<path class="st0" d="M4776.71-685.38l-117.61-49.06c-4.81-2.05-5.59-8.55-1.39-11.67l17.53-13.05c2.21-1.65,5.2-1.79,7.56-0.36
				l100.08,62.11c3.33,2.02,4.28,6.42,2.07,9.63v0C4783.13-685.12,4779.68-684.12,4776.71-685.38z"/>
			<path class="st0" d="M4806.26-717.68l-70.53-94.95c-3.08-4.23-0.42-10.21,4.79-10.74l21.73-2.22c2.75-0.28,5.39,1.13,6.68,3.57
				l48.8,97.18c1.82,3.44,0.38,7.71-3.16,9.33v0C4811.63-714.17,4808.16-715.08,4806.26-717.68z"/>
			<path class="st0" d="M4954.77-647.37l128.97-0.89c5.23-0.03,8.46-5.73,5.79-10.23l-11.13-18.79c-1.41-2.37-4.11-3.66-6.84-3.25
				l-117.84,19.68c-3.85,0.58-6.43,4.27-5.63,8.09l0,0.01C4948.75-649.61,4951.55-647.35,4954.77-647.37z"/>
			<path class="st0" d="M4762.64-647.37l-128.97-0.89c-5.23-0.03-8.46-5.73-5.79-10.23l11.13-18.79c1.41-2.37,4.11-3.66,6.84-3.25
				l117.84,19.68c3.85,0.58,6.43,4.27,5.63,8.09l0,0.01C4768.66-649.61,4765.87-647.35,4762.64-647.37z"/>
			<path class="st0" d="M4942.15-685.38l117.61-42.39c4.81-2.05,5.59-8.55,1.39-11.67l-17.52-13.05c-2.21-1.65-5.2-1.79-7.56-0.36
				l-100.08,55.44c-3.33,2.02-4.28,6.42-2.07,9.63v0C4935.74-685.12,4939.18-684.12,4942.15-685.38z"/>
			<path class="st0" d="M4911.88-717.68l70.53-94.96c3.08-4.23,0.42-10.21-4.79-10.74l-21.73-2.22c-2.74-0.28-5.39,1.13-6.68,3.57
				l-48.8,97.17c-1.83,3.44-0.38,7.71,3.16,9.34l0,0C4906.51-714.17,4909.98-715.08,4911.88-717.68z"/>
			<path class="st0" d="M4867.24-731.89l16.16-121.13c0.67-5.19-4.55-9.15-9.37-7.11l-20.12,8.51c-2.54,1.08-4.18,3.58-4.14,6.34
				l3.95,112.62c0.06,3.89,3.38,6.94,7.26,6.66l0.01,0C4864.22-726.23,4866.83-728.69,4867.24-731.89z"/>
		</g>
		<path class="st0" d="M4931.37-636.87c0-39.75-32.22-71.97-71.97-71.97s-71.97,32.22-71.97,71.97c0,21.61,10.53,25.45,35.98,25.45
			c19.31,0,35.98-13.16,56.17-15.8C4907.69-630.88,4931.37-620.89,4931.37-636.87z"/>
	</g>
	
		<text transform="matrix(1 0 0 1 4613.3291 -550.3839)" style="fill:#67A6C1; font-family:'JimmyScript-Regular'; font-size:105.4381px;">chesapeake grille</text>
	<g>
		
			<text transform="matrix(1 0 0 1 4790.7148 -504.0261)" style="fill:#A8BAC1; font-family:'CircularStd-Black'; font-size:27.6677px; letter-spacing:11;">&amp;DELI</text>
	</g>
</g>
<g>
	<g>
		<path class="st0" d="M4601.39-262.97l-56.88-23.73c-2.33-0.99-2.7-4.14-0.67-5.65l8.48-6.31c1.07-0.8,2.52-0.87,3.66-0.17
			l48.4,30.04c1.61,0.98,2.07,3.11,1,4.66v0C4604.5-262.85,4602.83-262.36,4601.39-262.97z"/>
		<path class="st0" d="M4615.68-278.6l-34.11-45.93c-1.49-2.04-0.2-4.94,2.32-5.19l10.51-1.07c1.33-0.14,2.6,0.55,3.23,1.73l23.6,47
			c0.88,1.66,0.18,3.73-1.53,4.51v0C4618.28-276.9,4616.6-277.34,4615.68-278.6z"/>
		<path class="st0" d="M4594.59-244.59l-62.38-0.43c-2.53-0.02-4.09-2.77-2.8-4.95l5.38-9.09c0.68-1.15,1.99-1.77,3.31-1.57
			l56.99,9.52c1.86,0.28,3.11,2.07,2.72,3.91l0,0C4597.5-245.67,4596.15-244.58,4594.59-244.59z"/>
		<path class="st0" d="M4666.77-278.6l34.11-45.93c1.49-2.04,0.2-4.94-2.32-5.19l-10.51-1.07c-1.33-0.14-2.6,0.55-3.23,1.73
			l-23.6,47c-0.88,1.67-0.18,3.73,1.53,4.52l0,0C4664.17-276.9,4665.85-277.34,4666.77-278.6z"/>
		<path class="st0" d="M4645.18-285.47l7.82-58.59c0.32-2.51-2.2-4.42-4.53-3.44l-9.73,4.12c-1.23,0.52-2.02,1.73-2,3.07l1.91,54.47
			c0.03,1.88,1.63,3.36,3.51,3.22l0,0C4643.72-282.73,4644.98-283.92,4645.18-285.47z"/>
	</g>
	<path class="st0" d="M4676.2-239.51c0-19.22-15.58-34.81-34.81-34.81c-19.22,0-34.81,15.58-34.81,34.81
		c0,10.45,5.09,12.31,17.4,12.31c9.34,0,17.4-6.37,27.17-7.64C4664.74-236.61,4676.2-231.78,4676.2-239.51z"/>
</g>
<g>
	
		<text transform="matrix(1 0 0 1 4689.6372 -249.04)" style="fill:#67A6C1; font-family:'JimmyScript-Regular'; font-size:93.9902px;">chesapeake grille</text>
	<g>
		
			<text transform="matrix(1 0 0 1 5013.2314 -218.747)" style="fill:#A8BAC1; font-family:'CircularStd-Black'; font-size:24.6637px; letter-spacing:9;">&amp;DELI</text>
	</g>
</g>
<g>
	<g>
		<g>
			<path class="st0" d="M5669.12-685.38l-117.61-49.06c-4.81-2.05-5.59-8.55-1.39-11.67l17.53-13.05c2.21-1.65,5.2-1.79,7.56-0.36
				l100.08,62.11c3.33,2.02,4.28,6.42,2.07,9.63v0C5675.54-685.12,5672.09-684.12,5669.12-685.38z"/>
			<path class="st0" d="M5698.66-717.68l-70.53-94.95c-3.08-4.23-0.42-10.21,4.79-10.74l21.73-2.22c2.75-0.28,5.39,1.13,6.68,3.57
				l48.8,97.18c1.82,3.44,0.38,7.71-3.16,9.33v0C5704.04-714.17,5700.57-715.08,5698.66-717.68z"/>
			<path class="st0" d="M5847.18-647.37l128.97-0.89c5.23-0.03,8.46-5.73,5.79-10.23l-11.13-18.79c-1.41-2.37-4.11-3.66-6.84-3.25
				l-117.84,19.68c-3.85,0.58-6.43,4.27-5.63,8.09l0,0.01C5841.16-649.61,5843.96-647.35,5847.18-647.37z"/>
			<path class="st0" d="M5655.05-647.37l-128.97-0.89c-5.23-0.03-8.46-5.73-5.79-10.23l11.13-18.79c1.41-2.37,4.11-3.66,6.84-3.25
				l117.84,19.68c3.85,0.58,6.43,4.27,5.63,8.09l0,0.01C5661.07-649.61,5658.27-647.35,5655.05-647.37z"/>
			<path class="st0" d="M5834.56-685.38l117.61-42.39c4.81-2.05,5.59-8.55,1.39-11.67l-17.52-13.05c-2.21-1.65-5.2-1.79-7.56-0.36
				l-100.08,55.44c-3.33,2.02-4.28,6.42-2.07,9.63v0C5828.14-685.12,5831.59-684.12,5834.56-685.38z"/>
			<path class="st0" d="M5804.29-717.68l70.53-94.96c3.08-4.23,0.42-10.21-4.79-10.74l-21.73-2.22c-2.74-0.28-5.39,1.13-6.68,3.57
				l-48.8,97.17c-1.83,3.44-0.38,7.71,3.16,9.34l0,0C5798.92-714.17,5802.39-715.08,5804.29-717.68z"/>
			<path class="st0" d="M5759.65-731.89l16.16-121.13c0.67-5.19-4.55-9.15-9.37-7.11l-20.12,8.51c-2.54,1.08-4.18,3.58-4.14,6.34
				l3.95,112.62c0.06,3.89,3.38,6.94,7.26,6.66l0.01,0C5756.62-726.23,5759.23-728.69,5759.65-731.89z"/>
		</g>
		<path class="st0" d="M5823.78-636.87c0-39.75-32.22-71.97-71.97-71.97s-71.97,32.22-71.97,71.97c0,21.61,10.53,25.45,35.98,25.45
			c19.31,0,35.98-13.16,56.17-15.8C5800.1-630.88,5823.78-620.89,5823.78-636.87z"/>
	</g>
	
		<text transform="matrix(1 0 0 1 5481.0645 -550.3839)" style="fill:#67A6C1; font-family:'JimmyScript-Regular'; font-size:105.4381px;">chesapeake market</text>
	<g>
		
			<text transform="matrix(1 0 0 1 5683.1226 -504.0261)" style="fill:#A8BAC1; font-family:'CircularStd-Black'; font-size:27.6677px; letter-spacing:11;">&amp;DELI</text>
	</g>
</g>
<g>
	<g>
		<path class="st0" d="M5493.8-262.97l-56.88-23.73c-2.33-0.99-2.7-4.14-0.67-5.65l8.48-6.31c1.07-0.8,2.52-0.87,3.66-0.17
			l48.4,30.04c1.61,0.98,2.07,3.11,1,4.66v0C5496.9-262.85,5495.24-262.36,5493.8-262.97z"/>
		<path class="st0" d="M5508.09-278.6l-34.11-45.93c-1.49-2.04-0.2-4.94,2.32-5.19l10.51-1.07c1.33-0.14,2.6,0.55,3.23,1.73l23.6,47
			c0.88,1.66,0.18,3.73-1.53,4.51v0C5510.69-276.9,5509.01-277.34,5508.09-278.6z"/>
		<path class="st0" d="M5487-244.59l-62.38-0.43c-2.53-0.02-4.09-2.77-2.8-4.95l5.38-9.09c0.68-1.15,1.99-1.77,3.31-1.57l56.99,9.52
			c1.86,0.28,3.11,2.07,2.72,3.91l0,0C5489.91-245.67,5488.56-244.58,5487-244.59z"/>
		<path class="st0" d="M5559.18-278.6l34.11-45.93c1.49-2.04,0.2-4.94-2.32-5.19l-10.51-1.07c-1.33-0.14-2.6,0.55-3.23,1.73
			l-23.6,47c-0.88,1.67-0.18,3.73,1.53,4.52l0,0C5556.58-276.9,5558.26-277.34,5559.18-278.6z"/>
		<path class="st0" d="M5537.59-285.47l7.82-58.59c0.32-2.51-2.2-4.42-4.53-3.44l-9.73,4.12c-1.23,0.52-2.02,1.73-2,3.07l1.91,54.47
			c0.03,1.88,1.63,3.36,3.51,3.22l0,0C5536.12-282.73,5537.39-283.92,5537.59-285.47z"/>
	</g>
	<path class="st0" d="M5568.6-239.51c0-19.22-15.58-34.81-34.81-34.81c-19.22,0-34.81,15.58-34.81,34.81
		c0,10.45,5.09,12.31,17.4,12.31c9.34,0,17.4-6.37,27.17-7.64C5557.15-236.61,5568.6-231.78,5568.6-239.51z"/>
</g>
<g>
	
		<text transform="matrix(1 0 0 1 5582.0449 -249.04)" style="fill:#67A6C1; font-family:'JimmyScript-Regular'; font-size:93.9902px;">chesapeake market</text>
	<g>
		
			<text transform="matrix(1 0 0 1 5930.6396 -218.747)" style="fill:#A8BAC1; font-family:'CircularStd-Black'; font-size:24.6637px; letter-spacing:9;">&amp;DELI</text>
	</g>
</g>
<g>
	<g>
		<path class="st0" d="M3179.29,931.94l-81.76-34.11c-3.35-1.42-3.89-5.94-0.97-8.12l12.18-9.07c1.54-1.15,3.62-1.24,5.26-0.25
			l69.58,43.18c2.32,1.4,2.97,4.47,1.44,6.7v0C3183.75,932.12,3181.35,932.82,3179.29,931.94z"/>
		<path class="st0" d="M3199.83,909.48l-49.04-66.02c-2.14-2.94-0.29-7.1,3.33-7.47l15.11-1.54c1.91-0.2,3.74,0.79,4.64,2.48
			l33.93,67.56c1.27,2.39,0.27,5.36-2.2,6.49v0C3203.57,911.92,3201.15,911.29,3199.83,909.48z"/>
		<path class="st0" d="M3169.51,958.36l-89.66-0.62c-3.64-0.02-5.88-3.98-4.03-7.11l7.74-13.07c0.98-1.65,2.86-2.54,4.75-2.26
			l81.93,13.68c2.68,0.4,4.47,2.97,3.91,5.62l0,0C3173.69,956.81,3171.75,958.38,3169.51,958.36z"/>
		<path class="st0" d="M3273.26,909.48l49.04-66.02c2.14-2.94,0.29-7.1-3.33-7.47l-15.11-1.54c-1.91-0.19-3.74,0.79-4.64,2.48
			l-33.93,67.56c-1.27,2.39-0.26,5.36,2.2,6.49l0,0C3269.53,911.92,3271.94,911.29,3273.26,909.48z"/>
		<path class="st0" d="M3242.23,899.6l11.24-84.22c0.46-3.61-3.16-6.36-6.51-4.94l-13.99,5.92c-1.77,0.75-2.9,2.49-2.88,4.41
			l2.75,78.3c0.04,2.71,2.35,4.82,5.05,4.63l0,0C3240.12,903.54,3241.94,901.83,3242.23,899.6z"/>
	</g>
	<path class="st0" d="M3286.81,965.67c0-27.63-22.4-50.04-50.04-50.04c-27.63,0-50.04,22.4-50.04,50.04
		c0,15.03,7.32,17.7,25.02,17.7c13.42,0,25.02-9.15,39.05-10.98C3270.35,969.83,3286.81,976.77,3286.81,965.67z"/>
</g>
<g>
	
		<text transform="matrix(1 0 0 1 3306.1345 951.9688)" style="fill:#67A6C1; font-family:'JimmyScript-Regular'; font-size:135.1067px;">chesapeake market</text>
	<g>
		
			<text transform="matrix(1 0 0 1 3807.2229 995.5137)" style="fill:#A8BAC1; font-family:'CircularStd-Black'; font-size:35.4529px; letter-spacing:14;">&amp;DELI</text>
	</g>
</g>
<g>
	<g>
		<g>
			<path class="st0" d="M3396.38-525.4l-218.54-91.17c-8.95-3.81-10.39-15.89-2.59-21.69l32.57-24.25
				c4.11-3.06,9.67-3.33,14.06-0.67l185.97,115.42c6.19,3.75,7.95,11.94,3.85,17.9l0,0C3408.31-524.92,3401.9-523.06,3396.38-525.4z
				"/>
			<path class="st0" d="M3451.29-585.44l-131.06-176.45c-5.73-7.86-0.78-18.97,8.9-19.96l40.38-4.13c5.1-0.52,10.01,2.1,12.41,6.63
				l90.68,180.58c3.39,6.39,0.71,14.32-5.87,17.35l0,0C3461.28-578.91,3454.82-580.59,3451.29-585.44z"/>
			<path class="st0" d="M3727.27-454.78l239.65-1.65c9.72-0.06,15.71-10.65,10.76-19.02L3957-510.37c-2.61-4.41-7.64-6.8-12.71-6.04
				l-218.97,36.57c-7.16,1.07-11.94,7.94-10.46,15.03l0,0.01C3716.08-458.93,3721.27-454.74,3727.27-454.78z"/>
			<path class="st0" d="M3370.24-454.78l-239.65-1.65c-9.72-0.06-15.71-10.65-10.76-19.02l20.68-34.93
				c2.61-4.41,7.64-6.8,12.71-6.04l218.97,36.57c7.16,1.07,11.94,7.94,10.46,15.03l0,0.01
				C3381.42-458.93,3376.23-454.74,3370.24-454.78z"/>
			<path class="st0" d="M3703.81-525.4l218.54-78.77c8.95-3.81,10.39-15.89,2.59-21.69l-32.57-24.25
				c-4.11-3.06-9.67-3.33-14.06-0.67l-185.98,103.02c-6.19,3.75-7.95,11.94-3.85,17.9l0,0
				C3691.89-524.92,3698.3-523.06,3703.81-525.4z"/>
			<path class="st0" d="M3647.56-585.43l131.07-176.45c5.73-7.86,0.78-18.97-8.9-19.96l-40.38-4.12c-5.1-0.52-10.01,2.1-12.41,6.63
				l-90.69,180.58c-3.39,6.4-0.71,14.33,5.87,17.35l0.01,0C3637.58-578.91,3644.03-580.59,3647.56-585.43z"/>
			<path class="st0" d="M3564.61-611.84l30.03-225.1c1.24-9.64-8.45-17-17.4-13.21l-37.38,15.82c-4.72,2-7.76,6.66-7.69,11.79
				l7.34,209.28c0.11,7.24,6.27,12.89,13.49,12.38l0.01,0C3558.99-601.31,3563.84-605.89,3564.61-611.84z"/>
		</g>
		<path class="st0" d="M3683.78-435.25c0-73.86-59.88-133.74-133.74-133.74s-133.74,59.88-133.74,133.74
			c0,40.16,19.57,47.3,66.87,47.3c35.88,0,66.87-24.46,104.38-29.36C3639.77-424.12,3683.78-405.57,3683.78-435.25z"/>
	</g>
	
		<text transform="matrix(1 0 0 1 3092.7795 -274.5488)" style="fill:#67A6C1; font-family:'JimmyScript-Regular'; font-size:195.9305px;">chesapeake grille</text>
	<g>
		
			<text transform="matrix(1 0 0 1 3422.4045 -188.4033)" style="fill:#A8BAC1; font-family:'CircularStd-Black'; font-size:51.4135px; letter-spacing:20;">&amp;DELI</text>
	</g>
</g>
<g>
	<g>
		<path class="st0" d="M3187.59,437.91l-87.89-36.67c-3.6-1.53-4.18-6.39-1.04-8.73l13.1-9.75c1.65-1.23,3.89-1.34,5.65-0.27
			l74.8,46.42c2.49,1.51,3.2,4.8,1.55,7.2v0C3192.39,438.1,3189.81,438.85,3187.59,437.91z"/>
		<path class="st0" d="M3209.67,413.77l-52.71-70.97c-2.3-3.16-0.31-7.63,3.58-8.03l16.24-1.66c2.05-0.21,4.03,0.84,4.99,2.67
			l36.47,72.63c1.36,2.57,0.28,5.76-2.36,6.98v0C3213.69,416.39,3211.09,415.71,3209.67,413.77z"/>
		<path class="st0" d="M3177.07,466.31l-96.39-0.67c-3.91-0.02-6.32-4.28-4.33-7.65l8.32-14.05c1.05-1.77,3.07-2.73,5.11-2.43
			l88.07,14.71c2.88,0.43,4.8,3.19,4.21,6.04l0,0.01C3181.57,464.64,3179.49,466.33,3177.07,466.31z"/>
		<path class="st0" d="M3288.61,413.77l52.71-70.97c2.3-3.16,0.31-7.63-3.58-8.03l-16.24-1.66c-2.05-0.21-4.02,0.84-4.99,2.67
			l-36.47,72.63c-1.36,2.57-0.28,5.76,2.36,6.98l0,0C3284.6,416.39,3287.19,415.72,3288.61,413.77z"/>
		<path class="st0" d="M3255.25,403.15l12.08-90.53c0.5-3.88-3.4-6.84-7-5.31l-15.03,6.36c-1.9,0.8-3.12,2.68-3.09,4.74l2.95,84.17
			c0.04,2.91,2.52,5.19,5.43,4.98l0,0C3252.99,407.38,3254.94,405.54,3255.25,403.15z"/>
	</g>
	<path class="st0" d="M3303.18,474.17c0-29.71-24.08-53.79-53.79-53.79c-29.71,0-53.79,24.08-53.79,53.79
		c0,16.15,7.87,19.02,26.89,19.02c14.43,0,26.89-9.84,41.98-11.81C3285.48,478.64,3303.18,486.1,3303.18,474.17z"/>
</g>
<g>
	
		<text transform="matrix(1 0 0 1 3323.9465 459.4413)" style="fill:#67A6C1; font-family:'JimmyScript-Regular'; font-size:145.2357px;">chesapeake grille</text>
	<g>
		
			<text transform="matrix(1 0 0 1 3823.9719 506.2519)" style="fill:#A8BAC1; font-family:'CircularStd-Black'; font-size:38.1108px; letter-spacing:15;">&amp;DELI</text>
	</g>
</g>
<g>
	<g>
		<g>
			<path class="st0" d="M2086.28-653.44l-177.1-73.88c-7.25-3.09-8.42-12.87-2.1-17.58l26.39-19.65c3.33-2.48,7.84-2.7,11.39-0.54
				l150.71,93.53c5.02,3.04,6.44,9.67,3.12,14.51l0,0C2095.94-653.05,2090.75-651.54,2086.28-653.44z"/>
			<path class="st0" d="M2130.77-702.09l-106.21-142.99c-4.64-6.37-0.63-15.37,7.21-16.17l32.72-3.35c4.13-0.42,8.11,1.7,10.06,5.37
				l73.49,146.34c2.75,5.18,0.57,11.61-4.75,14.06l0,0C2138.86-696.8,2133.63-698.17,2130.77-702.09z"/>
			<path class="st0" d="M2354.42-596.21l194.21-1.34c7.88-0.05,12.74-8.63,8.72-15.41l-16.76-28.3c-2.12-3.57-6.19-5.51-10.3-4.89
				l-177.45,29.63c-5.8,0.87-9.68,6.44-8.48,12.18l0,0.01C2345.35-599.58,2349.56-596.18,2354.42-596.21z"/>
			<path class="st0" d="M2065.09-596.21l-194.21-1.34c-7.88-0.05-12.74-8.63-8.72-15.41l16.76-28.3c2.12-3.57,6.19-5.51,10.3-4.89
				l177.45,29.63c5.8,0.87,9.68,6.44,8.48,12.18l0,0.01C2074.15-599.58,2069.94-596.18,2065.09-596.21z"/>
			<path class="st0" d="M2335.41-653.44l177.1-63.83c7.25-3.09,8.42-12.87,2.1-17.58l-26.39-19.65c-3.33-2.48-7.84-2.7-11.39-0.54
				l-150.71,83.49c-5.02,3.04-6.44,9.67-3.12,14.51v0C2325.75-653.05,2330.94-651.54,2335.41-653.44z"/>
			<path class="st0" d="M2289.83-702.09l106.21-142.99c4.64-6.37,0.63-15.37-7.21-16.17l-32.73-3.34c-4.13-0.42-8.11,1.7-10.06,5.37
				l-73.49,146.33c-2.75,5.18-0.57,11.61,4.76,14.06l0.01,0C2281.73-696.8,2286.96-698.16,2289.83-702.09z"/>
			<path class="st0" d="M2222.6-723.49l24.34-182.41c1.01-7.82-6.85-13.78-14.1-10.7l-30.29,12.82c-3.83,1.62-6.29,5.4-6.23,9.55
				l5.95,169.59c0.09,5.86,5.08,10.45,10.93,10.03l0.01,0C2218.05-714.96,2221.98-718.67,2222.6-723.49z"/>
		</g>
		<path class="st0" d="M2319.17-580.39c0-59.85-48.52-108.38-108.38-108.38c-59.85,0-108.38,48.52-108.38,108.38
			c0,32.54,15.86,38.33,54.19,38.33c29.08,0,54.19-19.83,84.59-23.79C2283.51-571.37,2319.17-556.34,2319.17-580.39z"/>
	</g>
	
		<text transform="matrix(1 0 0 1 1840.24 -450.1573)" style="fill:#67A6C1; font-family:'JimmyScript-Regular'; font-size:158.778px;">chesapeake grille</text>
	<g>
		
			<text transform="matrix(1 0 0 1 2107.3616 -380.3467)" style="fill:#A8BAC1; font-family:'CircularStd-Black'; font-size:41.6644px; letter-spacing:16;">&amp;DELI</text>
	</g>
</g>
<g>
	<g>
		<g>
			<path class="st0" d="M2086.89,1647.54l-176.23-73.52c-7.21-3.07-8.38-12.81-2.09-17.49l26.26-19.55
				c3.32-2.47,7.8-2.68,11.33-0.54l149.97,93.07c4.99,3.03,6.41,9.63,3.11,14.44v0C2096.5,1647.93,2091.33,1649.43,2086.89,1647.54z
				"/>
			<path class="st0" d="M2131.16,1599.13l-105.69-142.29c-4.62-6.33-0.63-15.29,7.17-16.09l32.56-3.33
				c4.11-0.42,8.07,1.69,10.01,5.35l73.13,145.62c2.73,5.16,0.57,11.55-4.73,13.99l0,0
				C2139.21,1604.4,2134.01,1603.04,2131.16,1599.13z"/>
			<path class="st0" d="M2353.7,1704.49l193.25-1.33c7.84-0.05,12.67-8.59,8.68-15.33l-16.68-28.16c-2.11-3.56-6.16-5.48-10.25-4.87
				l-176.58,29.49c-5.77,0.87-9.63,6.41-8.44,12.12l0,0.01C2344.68,1701.14,2348.87,1704.52,2353.7,1704.49z"/>
			<path class="st0" d="M2065.8,1704.49l-193.25-1.33c-7.84-0.05-12.67-8.59-8.68-15.33l16.68-28.16c2.11-3.56,6.16-5.48,10.25-4.87
				l176.58,29.49c5.77,0.87,9.63,6.41,8.44,12.12l0,0.01C2074.82,1701.14,2070.64,1704.52,2065.8,1704.49z"/>
			<path class="st0" d="M2334.79,1647.54l176.23-63.52c7.21-3.07,8.38-12.81,2.09-17.49l-26.26-19.55
				c-3.32-2.47-7.8-2.68-11.33-0.54l-149.97,83.07c-4.99,3.03-6.41,9.63-3.11,14.44v0
				C2325.18,1647.93,2330.34,1649.43,2334.79,1647.54z"/>
			<path class="st0" d="M2289.43,1599.14l105.69-142.29c4.62-6.34,0.63-15.3-7.17-16.09l-32.56-3.33
				c-4.11-0.42-8.07,1.69-10.01,5.35l-73.13,145.61c-2.74,5.16-0.57,11.56,4.74,13.99l0.01,0
				C2281.38,1604.4,2286.58,1603.04,2289.43,1599.14z"/>
			<path class="st0" d="M2222.54,1577.84l24.22-181.51c1-7.78-6.81-13.71-14.03-10.65l-30.14,12.76c-3.81,1.61-6.26,5.37-6.2,9.5
				l5.92,168.76c0.09,5.83,5.06,10.4,10.88,9.98l0.01,0C2218.01,1586.33,2221.92,1582.64,2222.54,1577.84z"/>
		</g>
		<path class="st0" d="M2318.63,1720.24c0-59.56-48.28-107.84-107.84-107.84c-59.56,0-107.84,48.28-107.84,107.84
			c0,32.38,15.78,38.14,53.92,38.14c28.93,0,53.92-19.73,84.17-23.67C2283.15,1729.21,2318.63,1744.17,2318.63,1720.24z"/>
	</g>
	<g>
		<text transform="matrix(1 0 0 1 2045.3143 1838.6031)"><tspan x="0" y="0" style="fill:#A8BAC1; font-family:'CircularStd-Black'; font-size:67.2872px; letter-spacing:26;">DAILY</tspan><tspan x="-100.49" y="80.75" style="fill:#A8BAC1; font-family:'CircularStd-Black'; font-size:67.2872px; letter-spacing:26;">SPECIALS</tspan></text>
	</g>
</g>
<g>
	<g>
		<g>
			<path class="st1" d="M377.13,575.92l-176.23-73.52c-7.21-3.07-8.38-12.81-2.09-17.49l26.26-19.55c3.32-2.47,7.8-2.68,11.33-0.54
				l149.97,93.07c4.99,3.03,6.41,9.63,3.11,14.44l0,0C386.75,576.31,381.58,577.82,377.13,575.92z"/>
			<path class="st1" d="M421.41,527.52L315.72,385.23c-4.62-6.33-0.63-15.29,7.17-16.09l32.56-3.33c4.11-0.42,8.07,1.69,10.01,5.35
				l73.13,145.62c2.73,5.16,0.57,11.55-4.73,13.99l0,0C429.46,532.78,424.26,531.42,421.41,527.52z"/>
			<path class="st1" d="M643.95,632.88l193.25-1.33c7.84-0.05,12.67-8.59,8.68-15.33l-16.68-28.16c-2.11-3.56-6.16-5.48-10.25-4.87
				l-176.58,29.49c-5.77,0.87-9.63,6.41-8.44,12.12l0,0.01C634.93,629.52,639.12,632.91,643.95,632.88z"/>
			<path class="st1" d="M356.05,632.88l-193.25-1.33c-7.84-0.05-12.67-8.59-8.68-15.33l16.68-28.16c2.11-3.56,6.16-5.48,10.25-4.87
				l176.58,29.49c5.77,0.87,9.63,6.41,8.44,12.12l0,0.01C365.07,629.52,360.88,632.91,356.05,632.88z"/>
			<path class="st1" d="M625.04,575.92l176.23-63.52c7.21-3.07,8.38-12.81,2.09-17.49l-26.26-19.55c-3.32-2.47-7.8-2.68-11.33-0.54
				l-149.97,83.07c-4.99,3.03-6.41,9.63-3.11,14.44l0,0C615.42,576.31,620.59,577.82,625.04,575.92z"/>
			<path class="st1" d="M579.68,527.52l105.69-142.29c4.62-6.33,0.63-15.3-7.17-16.09l-32.56-3.33c-4.11-0.42-8.07,1.69-10.01,5.35
				l-73.13,145.61c-2.74,5.16-0.57,11.56,4.74,13.99l0.01,0C571.63,532.78,576.83,531.42,579.68,527.52z"/>
			<path class="st1" d="M512.78,506.22L537,324.71c1-7.78-6.81-13.71-14.03-10.65l-30.14,12.76c-3.81,1.61-6.26,5.37-6.2,9.5
				l5.92,168.76c0.09,5.83,5.06,10.4,10.88,9.98l0.01,0C508.25,514.72,512.17,511.02,512.78,506.22z"/>
		</g>
		<path class="st1" d="M608.88,648.62c0-59.56-48.28-107.84-107.84-107.84S393.2,589.06,393.2,648.62
			c0,32.38,15.78,38.14,53.92,38.14c28.93,0,53.92-19.73,84.17-23.67C573.4,657.59,608.88,672.55,608.88,648.62z"/>
	</g>
</g>
<g>
	<g>
		<g>
			<path class="st0" d="M2082.7,489.91l-176.23-73.52c-7.21-3.07-8.38-12.81-2.09-17.49l26.26-19.55c3.32-2.47,7.8-2.68,11.33-0.54
				l149.97,93.07c4.99,3.03,6.41,9.63,3.11,14.44v0C2092.32,490.3,2087.15,491.8,2082.7,489.91z"/>
			<path class="st0" d="M2126.98,441.5l-105.69-142.29c-4.62-6.33-0.63-15.29,7.17-16.09l32.56-3.33c4.11-0.42,8.07,1.69,10.01,5.35
				l73.13,145.62c2.73,5.16,0.57,11.55-4.73,13.99l0,0C2135.03,446.76,2129.82,445.41,2126.98,441.5z"/>
			<path class="st0" d="M2349.52,546.86l193.25-1.33c7.84-0.05,12.67-8.59,8.68-15.33l-16.68-28.16c-2.11-3.56-6.16-5.48-10.25-4.87
				l-176.58,29.49c-5.77,0.87-9.63,6.41-8.44,12.12l0,0.01C2340.5,543.51,2344.69,546.89,2349.52,546.86z"/>
			<path class="st0" d="M2061.62,546.86l-193.25-1.33c-7.84-0.05-12.67-8.59-8.68-15.33l16.68-28.16c2.11-3.56,6.16-5.48,10.25-4.87
				l176.58,29.49c5.77,0.87,9.63,6.41,8.44,12.12l0,0.01C2070.64,543.51,2066.45,546.89,2061.62,546.86z"/>
			<path class="st0" d="M2330.61,489.91l176.23-63.52c7.21-3.07,8.38-12.81,2.09-17.49l-26.26-19.55c-3.32-2.47-7.8-2.68-11.33-0.54
				l-149.97,83.07c-4.99,3.03-6.41,9.63-3.11,14.44l0,0C2320.99,490.3,2326.16,491.8,2330.61,489.91z"/>
			<path class="st0" d="M2285.25,441.51l105.69-142.29c4.62-6.33,0.63-15.3-7.17-16.09l-32.56-3.33c-4.11-0.42-8.07,1.69-10.01,5.35
				l-73.13,145.61c-2.74,5.16-0.57,11.56,4.74,13.99l0.01,0C2277.2,446.77,2282.4,445.41,2285.25,441.51z"/>
			<path class="st0" d="M2218.35,420.21l24.22-181.51c1-7.78-6.81-13.71-14.03-10.65l-30.14,12.76c-3.81,1.61-6.26,5.37-6.2,9.5
				l5.92,168.76c0.09,5.83,5.06,10.4,10.88,9.98l0.01,0C2213.82,428.7,2217.74,425.01,2218.35,420.21z"/>
		</g>
		<path class="st0" d="M2314.45,562.61c0-59.56-48.28-107.84-107.84-107.84c-59.56,0-107.84,48.28-107.84,107.84
			c0,32.38,15.78,38.14,53.92,38.14c28.93,0,53.92-19.73,84.17-23.67C2278.96,571.58,2314.45,586.54,2314.45,562.61z"/>
	</g>
	
		<text transform="matrix(1 0 0 1 1800.911 692.1957)" style="fill:#67A6C1; font-family:'JimmyScript-Regular'; font-size:157.9944px;">chesapeake market</text>
	<g>
		
			<text transform="matrix(1 0 0 1 2103.6858 761.6616)" style="fill:#A8BAC1; font-family:'CircularStd-Black'; font-size:41.4588px; letter-spacing:16;">&amp;DELI</text>
	</g>
</g>
</svg>
