<svg width="32" height="32" viewBox="0 0 32 32" fill="none" xmlns="http://www.w3.org/2000/svg">
<path fill-rule="evenodd" clip-rule="evenodd" d="M0 16C0 7.16344 7.16344 0 16 0C24.8366 0 32 7.16344 32 16C32 24.8366 24.8366 32 16 32C7.16344 32 0 24.8366 0 16ZM13.427 11.6913L8.30431 9.16026C8.26048 9.13858 8.21869 9.12835 8.18095 9.12835C8.12717 9.12835 8.08169 9.14925 8.04969 9.18739C8.01836 9.22469 8 9.27862 8 9.34609V20.2118C8 20.3967 8.13695 20.6156 8.30431 20.6983L13.0383 23.0372C13.104 23.0698 13.1667 23.0852 13.2233 23.0852C13.3828 23.0852 13.4947 22.9632 13.4947 22.7585V11.7996C13.4947 11.7537 13.4685 11.7118 13.427 11.6913ZM24.0272 23.0336L19.4271 20.7609L24.4836 12.6414V22.7548C24.4836 23.0322 24.2782 23.1577 24.0272 23.0336ZM13.9803 12.5046V18.0731L18.9894 20.548L13.9803 12.5046ZM19.1415 9.08509L24.3631 11.665C24.4282 11.6971 24.4513 11.7774 24.4132 11.8386L19.2745 20.0901L15.6818 14.3211L18.9002 9.15306C18.9344 9.09818 18.9977 9.06667 19.0612 9.06667C19.0621 9.06667 19.0629 9.06681 19.0638 9.06695C19.0646 9.06708 19.0654 9.0672 19.0662 9.06723C19.092 9.0679 19.1178 9.07335 19.1415 9.08509Z" fill="#A0A0B0"/>
</svg>
