<svg width="32" height="32" viewBox="0 0 32 32" fill="none" xmlns="http://www.w3.org/2000/svg">
<path fill-rule="evenodd" clip-rule="evenodd" d="M25.4645 14.1843C20.307 11.1214 11.7999 10.8398 6.87647 12.334C6.08567 12.574 5.2496 12.1277 5.0102 11.3371C4.77061 10.5459 5.21635 9.71041 6.00753 9.47005C11.6595 7.75453 21.0546 8.08583 26.992 11.6103C27.7033 12.0325 27.9364 12.951 27.5149 13.6609C27.0931 14.3721 26.1739 14.6065 25.4645 14.1843M25.2955 18.7208C24.9336 19.3079 24.166 19.4921 23.5796 19.1316C19.28 16.4886 12.7232 15.7229 7.63625 17.267C6.97671 17.4663 6.27992 17.0945 6.07949 16.4359C5.88079 15.7764 6.25279 15.0809 6.91137 14.8803C12.7224 13.1168 19.9466 13.9709 24.8851 17.0058C25.4715 17.3669 25.656 18.135 25.2955 18.7208M23.3378 23.0775C23.0503 23.5491 22.4364 23.6967 21.9666 23.4094C18.2094 21.113 13.4803 20.5945 7.9109 21.8666C7.37421 21.9896 6.83925 21.6534 6.71697 21.1169C6.59392 20.5802 6.92904 20.0452 7.46688 19.9227C13.5617 18.5295 18.7896 19.1291 23.0069 21.7061C23.4771 21.9933 23.6252 22.6075 23.3378 23.0775M15.9999 0C7.16359 0 0 7.1634 0 15.9997C0 24.837 7.16359 32 15.9999 32C24.8366 32 32 24.837 32 15.9997C32 7.1634 24.8366 0 15.9999 0" fill="#A0A0B0"/>
</svg>
