<?xml version="1.0" encoding="UTF-8"?>
<svg width="17px" height="20px" viewBox="0 0 17 20" version="1.1" xmlns="http://www.w3.org/2000/svg" xmlns:xlink="http://www.w3.org/1999/xlink">
    <!-- Generator: Sketch 47.1 (45422) - http://www.bohemiancoding.com/sketch -->
    <title>map-pin</title>
    <desc>Created with Sketch.</desc>
    <defs></defs>
    <g id="hooome" stroke="none" stroke-width="1" fill="none" fill-rule="evenodd">
        <g id="hooome-copy-2" transform="translate(-544.000000, -400.000000)" fill="#4E616E">
            <g id="Group-3" transform="translate(520.000000, 199.000000)">
                <g transform="translate(24.000000, 147.000000)" id="Group">
                    <g transform="translate(0.000000, 54.000000)">
                        <g id="map-pin">
                            <path d="M7.61093742,19.611385 C2.53697914,16.0834159 0,12.2735603 0,8.18181811 C6.7333779e-08,3.66312472 3.66312482,-2.01858733e-16 8.18181818,0 C12.7005115,2.01858733e-16 16.3636363,3.66312472 16.3636364,8.18181811 C16.3636364,12.2735669 13.8266491,16.0834282 8.75267446,19.611402 L8.75266297,19.6113855 C8.40948872,19.8499972 7.95411147,19.849997 7.61093742,19.611385 Z M8.18181818,10.9090909 C9.68804932,10.9090909 10.9090909,9.68804932 10.9090909,8.18181818 C10.9090909,6.67558705 9.68804932,5.45454545 8.18181818,5.45454545 C6.67558705,5.45454545 5.45454545,6.67558705 5.45454545,8.18181818 C5.45454545,9.68804932 6.67558705,10.9090909 8.18181818,10.9090909 Z" id="Combined-Shape"></path>
                        </g>
                    </g>
                </g>
            </g>
        </g>
    </g>
</svg>