<?xml version="1.0" encoding="UTF-8"?>
<svg width="17px" height="16px" viewBox="0 0 17 16" version="1.1" xmlns="http://www.w3.org/2000/svg" xmlns:xlink="http://www.w3.org/1999/xlink">
    <!-- Generator: Sketch 45.1 (43504) - http://www.bohemiancoding.com/sketch -->
    <title>codepen</title>
    <desc>Created with Sketch.</desc>
    <defs></defs>
    <g id="home3" stroke="none" stroke-width="1" fill="none" fill-rule="evenodd">
        <g id="inner" transform="translate(-153.000000, -88.000000)" fill="#FFFFFF">
            <g id="Group-3" transform="translate(48.000000, 88.000000)">
                <g id="codepen" transform="translate(105.876404, 0.000000)">
                    <path d="M11.4942182,7.06556364 L8.55785455,5.10229091 L8.55785455,1.94265455 L13.8647636,5.48083636 L11.4942182,7.06556364 Z M12.7124,7.88083636 L14.4069455,6.74738182 L14.4069455,9.01356364 L12.7124,7.88083636 Z M8.55749091,10.6593818 L11.4938545,8.69538182 L13.8644,10.2808364 L8.55749091,13.8182909 L8.55749091,10.6593818 Z M4.26694545,8.69538182 L7.20330909,10.6593818 L7.20330909,13.8182909 L1.89676364,10.2808364 L4.26694545,8.69538182 Z M3.04876364,7.88083636 L1.35421818,9.01392727 L1.35421818,6.74738182 L3.04876364,7.88083636 Z M7.20330909,5.10229091 L4.26694545,7.06629091 L1.89676364,5.48083636 L7.20330909,1.94265455 L7.20330909,5.10229091 Z M7.8804,9.48265455 L5.48512727,7.88083636 L7.8804,6.27901818 L10.2760364,7.88083636 L7.8804,9.48265455 Z M15.7502182,5.36156364 C15.7465818,5.34265455 15.7429455,5.32374545 15.7382182,5.30483636 C15.7353091,5.29392727 15.7309455,5.28338182 15.7276727,5.27174545 C15.7222182,5.25501818 15.7171273,5.23901818 15.7105818,5.22265455 C15.7054909,5.21101818 15.7007636,5.20010909 15.6953091,5.18992727 C15.6876727,5.17429091 15.6804,5.15938182 15.6724,5.14447273 C15.6658545,5.13392727 15.6596727,5.12338182 15.6527636,5.1132 C15.6440364,5.09901818 15.6342182,5.08592727 15.6244,5.07247273 C15.6167636,5.06265455 15.6091273,5.05283636 15.6011273,5.04301818 C15.5905818,5.03029091 15.5789455,5.01865455 15.5676727,5.00665455 C15.5585818,4.99756364 15.5498545,4.98847273 15.5404,4.98010909 C15.5284,4.96847273 15.5153091,4.95792727 15.5022182,4.94774545 C15.4924,4.93974545 15.4822182,4.93210909 15.4716727,4.92447273 C15.4680364,4.92156364 15.4644,4.91865455 15.4604,4.91683636 L8.25676364,0.113563636 C8.02912727,-0.0380727273 7.73312727,-0.0380727273 7.50585455,0.113563636 L0.301127273,4.91574545 C0.297127273,4.91865455 0.293854545,4.92156364 0.290218182,4.92374545 C0.279672727,4.93138182 0.269490909,4.93901818 0.259309091,4.94738182 C0.246218182,4.95683636 0.233490909,4.96774545 0.221127273,4.97938182 C0.212036364,4.98738182 0.202945455,4.99647273 0.194218182,5.00556364 C0.182581818,5.0172 0.171672727,5.0292 0.1604,5.04265455 C0.1524,5.05174545 0.144763636,5.06156364 0.137490909,5.07174545 C0.127309091,5.0852 0.117854545,5.09865455 0.108763636,5.11283636 C0.102218182,5.12301818 0.0956727273,5.13356364 0.0894909091,5.14410909 C0.0811272727,5.15901818 0.0734909091,5.17392727 0.0665818182,5.18883636 C0.0611272727,5.19974545 0.0564,5.21065455 0.0513090909,5.22192727 C0.0447636364,5.23792727 0.0393090909,5.25465455 0.0338545455,5.27101818 C0.0302181818,5.28265455 0.0262181818,5.29356364 0.0236727273,5.30447273 C0.0185818182,5.32338182 0.0153090909,5.34192727 0.0116727273,5.3612 C0.00985454545,5.37065455 0.00767272727,5.38047273 0.00621818182,5.39029091 C0.00221818182,5.41974545 3.63636364e-05,5.44883636 3.63636364e-05,5.47901818 L3.63636364e-05,10.2815636 C3.63636364e-05,10.3110182 0.00221818182,10.3408364 0.00621818182,10.3699273 C0.00767272727,10.3790182 0.00985454545,10.3895636 0.0116727273,10.3986545 C0.0153090909,10.4182909 0.0189454545,10.4368364 0.0236727273,10.4550182 C0.0265818182,10.4666545 0.0305818182,10.4772 0.0338545455,10.4881091 C0.0393090909,10.5055636 0.0447636364,10.5219273 0.0513090909,10.5382909 C0.0564,10.5492 0.0611272727,10.5601091 0.0665818182,10.5713818 C0.0738545455,10.5866545 0.0811272727,10.6015636 0.0894909091,10.6164727 C0.0956727273,10.6270182 0.102218182,10.6372 0.108763636,10.6477455 C0.117854545,10.6619273 0.127309091,10.6753818 0.137490909,10.6888364 C0.145127273,10.6982909 0.1524,10.7084727 0.1604,10.7179273 C0.171309091,10.7302909 0.182581818,10.7419273 0.194218182,10.7550182 C0.202945455,10.7641091 0.212036364,10.7724727 0.221127273,10.7812 C0.233490909,10.7921091 0.246218182,10.8026545 0.259309091,10.8132 C0.269490909,10.8204727 0.279672727,10.8292 0.290218182,10.8361091 C0.294218182,10.8393818 0.297490909,10.8426545 0.301127273,10.8444727 L7.50512727,15.6470182 C7.61858182,15.7230182 7.74949091,15.7604727 7.8804,15.7604727 C8.01130909,15.7604727 8.14258182,15.7230182 8.25603636,15.6470182 L15.4596727,10.8444727 C15.4640364,10.8419273 15.4673091,10.8379273 15.4709455,10.8361091 C15.4814909,10.8288364 15.4916727,10.8204727 15.5014909,10.8132 C15.5145818,10.8026545 15.5276727,10.7921091 15.5396727,10.7812 C15.5491273,10.7724727 15.5578545,10.7641091 15.5669455,10.7550182 C15.5782182,10.7426545 15.5894909,10.7306545 15.6004,10.7179273 C15.6084,10.7084727 15.6164,10.6982909 15.6236727,10.6888364 C15.6334909,10.6753818 15.6433091,10.6619273 15.6520364,10.6477455 C15.6589455,10.6372 15.6651273,10.6270182 15.6716727,10.6164727 C15.6796727,10.6015636 15.6873091,10.5866545 15.6945818,10.5713818 C15.7000364,10.5601091 15.7047636,10.5492 15.7098545,10.5382909 C15.7164,10.5219273 15.7214909,10.5055636 15.7269455,10.4881091 C15.7305818,10.4772 15.7345818,10.4666545 15.7374909,10.4550182 C15.7425818,10.4368364 15.7458545,10.4179273 15.7494909,10.3986545 C15.7509455,10.3895636 15.7534909,10.3790182 15.7549455,10.3699273 C15.7585818,10.3408364 15.7611273,10.3110182 15.7611273,10.2815636 L15.7611273,5.47901818 C15.7611273,5.44883636 15.7585818,5.41974545 15.7549455,5.39029091 C15.7538545,5.38156364 15.7516727,5.37174545 15.7502182,5.36156364 L15.7502182,5.36156364 Z" id="Fill-1"></path>
                </g>
            </g>
        </g>
    </g>
</svg>