<svg width="80" height="63" viewBox="0 0 80 63" fill="none" xmlns="http://www.w3.org/2000/svg">
<path d="M0.53418 18.3496C0.557617 18.3555 0.583984 18.3584 0.613281 18.3584C0.765625 18.376 0.876953 18.3848 0.947266 18.3848C1.31641 18.3848 1.58301 18.2881 1.74707 18.0947C1.91113 17.9014 2.05176 17.459 2.16895 16.7676L3.52246 9.38477C3.55762 9.20898 3.58398 9.04199 3.60156 8.88379C3.61914 8.72559 3.62793 8.59375 3.62793 8.48828C3.62793 8.17188 3.54004 7.95215 3.36426 7.8291C3.18848 7.70605 2.86328 7.64453 2.38867 7.64453L2.52051 7.0293C2.86621 7.05859 3.12988 7.0791 3.31152 7.09082C3.49316 7.09668 3.66602 7.09961 3.83008 7.09961C4.08789 7.09961 4.53906 7.0791 5.18359 7.03809C5.25391 7.03809 5.30957 7.03516 5.35059 7.0293C5.3623 7.22266 5.43848 7.48926 5.5791 7.8291C5.71973 8.16309 5.92188 8.5498 6.18555 8.98926L10.6855 16.6621L11.8896 9.22656C11.9072 9.12109 11.9189 9.01562 11.9248 8.91016C11.9365 8.79883 11.9424 8.67578 11.9424 8.54102C11.9424 8.24805 11.8604 8.03418 11.6963 7.89941C11.5322 7.76465 11.2715 7.69727 10.9141 7.69727H10.7031L10.8086 7.03809C11.1777 7.0498 11.5205 7.06152 11.8369 7.07324C12.1592 7.0791 12.458 7.08203 12.7334 7.08203C13.1025 7.08203 13.4131 7.0791 13.665 7.07324C13.917 7.06152 14.1689 7.04688 14.4209 7.0293L14.3418 7.69727C14.3066 7.69727 14.2598 7.69434 14.2012 7.68848C14.1484 7.68262 14.1104 7.67969 14.0869 7.67969C13.4658 7.67969 13.0469 8.25391 12.8301 9.40234V9.41992C12.3262 12.0332 11.9336 14.1807 11.6523 15.8623C11.377 17.5381 11.2393 18.5781 11.2393 18.9824V19.0879H10.1582C10.0176 18.7715 9.8623 18.4551 9.69238 18.1387C9.52832 17.8164 9.34375 17.4795 9.13867 17.1279L4.40137 9.08594L3.23242 16.2842C3.22656 16.3311 3.21484 16.4043 3.19727 16.5039C3.11523 17.0605 3.07422 17.418 3.07422 17.5762C3.07422 17.8691 3.1416 18.0742 3.27637 18.1914C3.41113 18.3086 3.64258 18.3672 3.9707 18.3672C4.05859 18.3672 4.12598 18.3672 4.17285 18.3672C4.22559 18.3613 4.27246 18.3584 4.31348 18.3584L4.20801 19C3.68652 18.9648 3.28516 18.9414 3.00391 18.9297C2.72266 18.918 2.48535 18.9121 2.29199 18.9121C2.11621 18.9121 1.8877 18.918 1.60645 18.9297C1.33105 18.9414 0.935547 18.9648 0.419922 19L0.53418 18.3496ZM15.5459 15.0361L15.6338 14.9922C17.7197 13.9258 18.7627 13.1025 18.7627 12.5225C18.7627 12.2119 18.6514 11.9424 18.4287 11.7139C18.2061 11.4854 17.9453 11.3711 17.6465 11.3711C17.1836 11.3711 16.7676 11.6904 16.3984 12.3291C16.0293 12.9678 15.7451 13.8701 15.5459 15.0361ZM18.1914 14.4297L15.502 15.8184V15.9062C15.502 16.6035 15.6104 17.1338 15.8271 17.4971C16.0498 17.8604 16.3691 18.042 16.7852 18.042C17.0312 18.042 17.3389 17.9336 17.708 17.7168C18.083 17.4941 18.5605 17.1367 19.1406 16.6445L19.4482 17.1982C18.6104 17.9717 17.9424 18.5078 17.4443 18.8066C16.9521 19.1055 16.5039 19.2549 16.0996 19.2549C15.4844 19.2549 14.9863 18.9883 14.6055 18.4551C14.2246 17.9219 14.0342 17.2217 14.0342 16.3545C14.0342 15.7393 14.1338 15.0801 14.333 14.377C14.5381 13.668 14.8018 13.0498 15.124 12.5225C15.5283 11.8779 15.9912 11.3799 16.5127 11.0283C17.0342 10.6768 17.5732 10.501 18.1299 10.501C18.6982 10.501 19.1729 10.6826 19.5537 11.0459C19.9404 11.4033 20.1338 11.8398 20.1338 12.3555C20.1338 12.7715 20.0166 13.1172 19.7822 13.3926C19.5537 13.6621 19.0234 14.0078 18.1914 14.4297ZM24.4668 17.0049L24.7744 17.5234C24.0537 18.2676 23.5527 18.7422 23.2715 18.9473C22.9902 19.1523 22.7412 19.2549 22.5244 19.2549C22.2139 19.2549 21.9648 19.126 21.7773 18.8682C21.5898 18.6045 21.4961 18.2529 21.4961 17.8135C21.4961 17.2627 21.6689 16.3428 22.0146 15.0537C22.3662 13.7646 22.542 12.8359 22.542 12.2676C22.542 12.1211 22.5068 12.0039 22.4365 11.916C22.3662 11.8281 22.2754 11.7842 22.1641 11.7842C22.0703 11.7842 21.9473 11.8223 21.7949 11.8984C21.6426 11.9746 21.4521 12.0918 21.2236 12.25L20.96 11.7842L22.1289 10.9316C22.3516 10.7676 22.5449 10.6504 22.709 10.5801C22.873 10.5039 23.0283 10.4658 23.1748 10.4658C23.4502 10.4658 23.667 10.5801 23.8252 10.8086C23.9893 11.0312 24.0713 11.3389 24.0713 11.7314C24.0713 12.1592 23.9189 12.9971 23.6143 14.2451C23.5439 14.5264 23.4912 14.7373 23.4561 14.8779C23.292 15.54 23.166 16.0879 23.0781 16.5215C22.9961 16.9551 22.9551 17.2539 22.9551 17.418C22.9551 17.5645 22.9873 17.6846 23.0518 17.7783C23.1162 17.8721 23.1982 17.9189 23.2979 17.9189C23.3916 17.9189 23.5146 17.8604 23.667 17.7432C23.8193 17.626 24.0859 17.3799 24.4668 17.0049ZM24.3965 5.67578L24.8975 6.23828C25.0381 6.38477 25.1348 6.5166 25.1875 6.63379C25.2461 6.74512 25.2754 6.85938 25.2754 6.97656C25.2754 7.09961 25.2314 7.2168 25.1436 7.32812C25.0615 7.43945 24.9385 7.54492 24.7744 7.64453L24.001 8.0752L23.4385 7.40723C23.3213 7.26074 23.2451 7.14648 23.21 7.06445C23.1748 6.97656 23.1572 6.88574 23.1572 6.79199C23.1572 6.65723 23.1924 6.54004 23.2627 6.44043C23.333 6.33496 23.4531 6.23242 23.623 6.13281L24.3965 5.67578ZM28.2373 19.1406C27.3818 19.5801 26.7959 19.9463 26.4795 20.2393C26.1631 20.5381 26.0049 20.8516 26.0049 21.1797C26.0049 21.6016 26.2656 21.9648 26.7871 22.2695C27.3086 22.5742 27.9531 22.7266 28.7207 22.7266C29.4121 22.7266 29.9863 22.5713 30.4434 22.2607C30.9062 21.9561 31.1377 21.5781 31.1377 21.127C31.1377 20.6816 30.4229 20.1367 28.9932 19.4922C28.6709 19.3457 28.4189 19.2285 28.2373 19.1406ZM29.6963 11.1689C29.1338 11.1689 28.6621 11.4854 28.2812 12.1182C27.9062 12.7451 27.7188 13.5273 27.7188 14.4648C27.7188 14.9512 27.8213 15.3262 28.0264 15.5898C28.2373 15.8477 28.5361 15.9766 28.9229 15.9766C29.5205 15.9766 30.0098 15.6719 30.3906 15.0625C30.7773 14.4531 30.9707 13.6768 30.9707 12.7334C30.9707 12.2412 30.8594 11.8574 30.6367 11.582C30.4141 11.3066 30.1006 11.1689 29.6963 11.1689ZM33.748 10.5977L33.3701 11.582C33.3584 11.582 33.3408 11.585 33.3174 11.5908C33.0889 11.6084 32.9131 11.6172 32.79 11.6172C32.6377 11.6172 32.2861 11.5762 31.7354 11.4941H31.709C31.9434 11.7051 32.1133 11.9365 32.2188 12.1885C32.3242 12.4404 32.377 12.748 32.377 13.1113C32.377 13.7969 32.1953 14.4062 31.832 14.9395C31.4746 15.4727 30.9736 15.8711 30.3291 16.1348C30.1709 16.1992 29.9541 16.29 29.6787 16.4072C28.4072 16.9229 27.7715 17.2598 27.7715 17.418C27.7715 17.5703 28.1025 17.7754 28.7646 18.0332C28.9932 18.1211 29.1719 18.1914 29.3008 18.2441C30.6895 18.8125 31.5771 19.2607 31.9639 19.5889C32.3564 19.9229 32.5527 20.3154 32.5527 20.7666C32.5527 21.5107 32.084 22.1846 31.1465 22.7881C30.2148 23.3975 29.125 23.7021 27.877 23.7021C26.9043 23.7021 26.1104 23.4854 25.4951 23.0518C24.874 22.6182 24.5635 22.0703 24.5635 21.4082C24.5635 20.9688 24.792 20.5527 25.249 20.1602C25.7061 19.7734 26.4912 19.334 27.6045 18.8418C27.124 18.625 26.7754 18.4287 26.5586 18.2529C26.3477 18.0713 26.2422 17.8896 26.2422 17.708C26.2422 17.5322 26.3652 17.3535 26.6113 17.1719C26.8574 16.9902 27.3936 16.7178 28.2197 16.3545C28.1846 16.3604 28.1465 16.3662 28.1055 16.3721C28.0703 16.3721 28.0117 16.3721 27.9297 16.3721C27.4082 16.3721 26.998 16.1992 26.6992 15.8535C26.4062 15.502 26.2598 15.0156 26.2598 14.3945C26.2598 13.3223 26.6143 12.4053 27.3232 11.6436C28.0381 10.8818 28.8936 10.501 29.8896 10.501C30.2119 10.501 30.6455 10.5508 31.1904 10.6504C31.7354 10.7441 32.1191 10.791 32.3418 10.791C32.5176 10.791 32.7197 10.7764 32.9482 10.7471C33.1826 10.7119 33.4492 10.6621 33.748 10.5977ZM38.248 5.29785C37.9727 6.5459 37.7822 7.42188 37.6768 7.92578C37.5713 8.42383 37.4951 8.79297 37.4482 9.0332L36.6748 13.041L38.1514 11.6348C38.6436 11.166 39.0156 10.8584 39.2676 10.7119C39.5254 10.5596 39.7715 10.4834 40.0059 10.4834C40.3984 10.4834 40.7148 10.6504 40.9551 10.9844C41.2012 11.3184 41.3242 11.7637 41.3242 12.3203C41.3242 12.8887 41.1807 13.7676 40.8936 14.957C40.6064 16.1406 40.4629 16.9844 40.4629 17.4883C40.4629 17.6406 40.4922 17.7578 40.5508 17.8398C40.6094 17.916 40.6914 17.9541 40.7969 17.9541C40.8555 17.9541 40.9229 17.9336 40.999 17.8926C41.0752 17.8457 41.1543 17.7842 41.2363 17.708L41.8955 17.0576L42.2031 17.5234L41.2539 18.499C41.0195 18.7334 40.7881 18.918 40.5596 19.0527C40.3369 19.1875 40.1406 19.2549 39.9707 19.2549C39.6836 19.2549 39.4463 19.1289 39.2588 18.877C39.0771 18.6191 38.9863 18.2822 38.9863 17.8662C38.9863 17.3682 39.1357 16.4922 39.4346 15.2383C39.7334 13.9785 39.8828 13.0615 39.8828 12.4873C39.8828 12.2705 39.8359 12.0977 39.7422 11.9688C39.6484 11.834 39.5283 11.7666 39.3818 11.7666C39.165 11.7666 38.6113 12.1768 37.7207 12.9971C37.2227 13.46 36.8154 13.8291 36.499 14.1045L35.9541 17.1719C35.9424 17.2598 35.9219 17.3887 35.8926 17.5586C35.7871 18.127 35.7256 18.5635 35.708 18.8682L34.1436 19.2725C34.3955 18.1592 34.709 16.5654 35.084 14.4912L35.1807 13.9463L35.585 11.749C35.8076 10.4951 35.9922 9.41406 36.1387 8.50586C36.2852 7.59766 36.3584 7.08203 36.3584 6.95898C36.3584 6.75391 36.3115 6.60449 36.2178 6.51074C36.1299 6.41113 35.9893 6.36133 35.7959 6.36133C35.6963 6.36133 35.6143 6.36426 35.5498 6.37012C35.4912 6.37012 35.4297 6.37305 35.3652 6.37891L35.3125 5.86035C35.8223 5.79004 36.3232 5.71094 36.8154 5.62305C37.3076 5.5293 37.7852 5.4209 38.248 5.29785ZM45.0684 17.6465C45.2559 17.8633 45.458 18.0273 45.6748 18.1387C45.8975 18.2441 46.1318 18.2969 46.3779 18.2969C47.1689 18.2969 47.8252 17.8369 48.3467 16.917C48.874 15.9971 49.1377 14.8193 49.1377 13.3838C49.1377 12.8154 49.0615 12.3848 48.9092 12.0918C48.7627 11.7988 48.543 11.6523 48.25 11.6523C48.0273 11.6523 47.7109 11.79 47.3008 12.0654C46.8906 12.3408 46.3311 12.792 45.6221 13.4189L45.2266 15.9766C45.168 16.334 45.127 16.6445 45.1035 16.9082C45.0801 17.1719 45.0684 17.418 45.0684 17.6465ZM47.0283 5.28027C46.8877 5.94824 46.7617 6.57227 46.6504 7.15234C46.5391 7.73242 46.4482 8.23047 46.3779 8.64648L45.7188 12.5049L46.668 11.6348C47.2305 11.1309 47.6611 10.7998 47.96 10.6416C48.2646 10.4775 48.5664 10.3955 48.8652 10.3955C49.4395 10.3955 49.8818 10.6357 50.1924 11.1162C50.5088 11.5908 50.667 12.2617 50.667 13.1289C50.667 14.7695 50.1719 16.2021 49.1816 17.4268C48.1914 18.6455 47.0547 19.2549 45.7715 19.2549C45.2793 19.2549 44.8457 19.1465 44.4707 18.9297C44.1016 18.707 43.7793 18.3643 43.5039 17.9014L45.1738 7.66211C45.209 7.45117 45.2354 7.27832 45.2529 7.14355C45.2705 7.00879 45.2793 6.90625 45.2793 6.83594C45.2793 6.64258 45.2324 6.50488 45.1387 6.42285C45.0449 6.33496 44.8955 6.29102 44.6904 6.29102C44.5791 6.29102 44.4941 6.29395 44.4355 6.2998C44.377 6.30566 44.3184 6.31445 44.2598 6.32617L44.207 5.84277C44.6172 5.78418 45.0508 5.71094 45.5078 5.62305C45.9707 5.5293 46.4775 5.41504 47.0283 5.28027ZM55.7119 11.3535C55.0322 11.3535 54.4463 11.8193 53.9541 12.751C53.4619 13.6826 53.2158 14.8311 53.2158 16.1963C53.2158 16.917 53.3389 17.4678 53.585 17.8486C53.8369 18.2295 54.2002 18.4199 54.6748 18.4199C55.3896 18.4199 55.9961 17.9629 56.4941 17.0488C56.998 16.1289 57.25 15.0039 57.25 13.6738C57.25 12.8828 57.124 12.2998 56.8721 11.9248C56.6201 11.5439 56.2334 11.3535 55.7119 11.3535ZM56.0898 10.501C56.9629 10.501 57.625 10.7734 58.0762 11.3184C58.5332 11.8574 58.7617 12.6484 58.7617 13.6914C58.7617 14.2891 58.6445 14.9277 58.4102 15.6074C58.1758 16.2812 57.8594 16.8906 57.4609 17.4355C57.0332 18.0215 56.5469 18.4727 56.002 18.7891C55.4629 19.0996 54.8945 19.2549 54.2969 19.2549C53.5117 19.2549 52.8848 18.9707 52.416 18.4023C51.9531 17.834 51.7217 17.0723 51.7217 16.1172C51.7217 15.4082 51.8359 14.7168 52.0645 14.043C52.293 13.3691 52.6211 12.7598 53.0488 12.2148C53.4707 11.6699 53.9482 11.248 54.4814 10.9492C55.0205 10.6504 55.5566 10.501 56.0898 10.501ZM60.2383 19.2373C60.6074 17.7139 60.8945 16.3691 61.0996 15.2031C61.3047 14.0312 61.4072 13.1494 61.4072 12.5576C61.4072 12.3057 61.3691 12.1182 61.293 11.9951C61.2227 11.8662 61.1172 11.8018 60.9766 11.8018C60.8711 11.8018 60.5752 11.9541 60.0889 12.2588L60.0186 12.3027L59.7109 11.8018L59.8428 11.7051C60.8975 10.9141 61.5801 10.5186 61.8906 10.5186C62.1777 10.5186 62.3828 10.6123 62.5059 10.7998C62.6348 10.9814 62.6992 11.2861 62.6992 11.7139C62.6992 12.0889 62.6875 12.4404 62.6641 12.7686C62.6406 13.0908 62.6055 13.3691 62.5586 13.6035C63.3613 12.2793 63.9326 11.4355 64.2725 11.0723C64.6123 10.7031 64.9287 10.5186 65.2217 10.5186C65.4209 10.5186 65.5879 10.5918 65.7227 10.7383C65.8574 10.8848 65.9248 11.0635 65.9248 11.2744C65.9248 11.4033 65.8896 11.5615 65.8193 11.749C65.7549 11.9307 65.6143 12.2354 65.3975 12.6631C65.292 12.5166 65.1836 12.4082 65.0723 12.3379C64.9609 12.2676 64.8496 12.2324 64.7383 12.2324C64.5215 12.2324 64.2637 12.3848 63.9648 12.6895C63.6719 12.9883 63.209 13.5918 62.5762 14.5C62.377 15.3086 62.21 16.0791 62.0752 16.8115C61.9404 17.5381 61.8379 18.2266 61.7676 18.877L60.2383 19.2373ZM70.249 17.5586L69.4316 18.332C69.0625 18.6836 68.7725 18.9238 68.5615 19.0527C68.3506 19.1875 68.1631 19.2549 67.999 19.2549C67.6592 19.2549 67.3984 19.1289 67.2168 18.877C67.041 18.625 66.9531 18.2588 66.9531 17.7783C66.9531 17.3857 67.085 16.5156 67.3486 15.168C67.4951 14.4238 67.6094 13.835 67.6914 13.4014L68.0518 11.4238C68.2803 10.1406 68.4561 9.10059 68.5791 8.30371C68.708 7.50684 68.7725 7.02344 68.7725 6.85352C68.7725 6.66602 68.7285 6.52832 68.6406 6.44043C68.5527 6.35254 68.415 6.30859 68.2275 6.30859C68.1924 6.30859 68.1221 6.31152 68.0166 6.31738C67.9111 6.32324 67.8262 6.32617 67.7617 6.32617L67.709 5.84277C68.0898 5.79004 68.5088 5.71973 68.9658 5.63184C69.4229 5.53809 69.959 5.4209 70.5742 5.28027C69.9355 8.47363 69.4111 11.2188 69.001 13.5156C68.5967 15.8125 68.3945 17.1133 68.3945 17.418C68.3945 17.582 68.4238 17.7139 68.4824 17.8135C68.5469 17.9072 68.6318 17.9541 68.7373 17.9541C68.8018 17.9541 68.8867 17.9219 68.9922 17.8574C69.0977 17.793 69.2266 17.6934 69.3789 17.5586L69.9766 17.0752L70.249 17.5586ZM70.3984 21.7861C70.5684 22.0088 70.7529 22.1787 70.9521 22.2959C71.1514 22.4131 71.3506 22.4717 71.5498 22.4717C72.0889 22.4717 72.5723 22.0381 73 21.1709C73.4277 20.3096 73.6416 19.249 73.6416 17.9893C73.6416 16.4482 73.5156 15.0742 73.2637 13.8672C73.0117 12.6543 72.7598 12.0479 72.5078 12.0479C72.4023 12.0479 72.2881 12.1094 72.165 12.2324C72.042 12.3496 71.8486 12.5957 71.585 12.9707L71.1719 12.5576C71.5586 11.8955 71.9131 11.3887 72.2354 11.0371C72.5576 10.6797 72.8271 10.501 73.0439 10.501C73.5713 10.501 74.0049 11.0928 74.3447 12.2764C74.6904 13.4541 74.8633 14.9805 74.8633 16.8555C74.8633 17.125 74.8574 17.3945 74.8457 17.6641C74.834 17.9336 74.8164 18.2002 74.793 18.4639L75.0303 17.9365C76.3955 14.8838 77.0781 13.0293 77.0781 12.373C77.0781 12.2031 77.0518 12.0508 76.999 11.916C76.9463 11.7754 76.8584 11.6406 76.7354 11.5117L77.2979 10.9141C77.4326 10.7676 77.5557 10.6621 77.667 10.5977C77.7783 10.5332 77.8926 10.501 78.0098 10.501C78.1973 10.501 78.3438 10.5625 78.4492 10.6855C78.5547 10.8086 78.6074 10.9756 78.6074 11.1865C78.6074 11.5615 78.3086 12.4639 77.7109 13.8936C77.1191 15.3174 76.3633 16.8877 75.4434 18.6045C74.4355 20.4736 73.5771 21.792 72.8682 22.5596C72.165 23.333 71.4736 23.7197 70.7939 23.7197C70.4307 23.7197 70.1436 23.6377 69.9326 23.4736C69.7158 23.3154 69.6074 23.1016 69.6074 22.832C69.6074 22.7324 69.6309 22.6357 69.6777 22.542C69.7188 22.4541 69.8037 22.3486 69.9326 22.2256L70.3984 21.7861Z" fill="#FDFDFA"/>
<path d="M5.04545 40H1.27841V28.3636H5.16477C6.30492 28.3636 7.28409 28.5966 8.10227 29.0625C8.92045 29.5246 9.54735 30.1894 9.98295 31.0568C10.4223 31.9205 10.642 32.9564 10.642 34.1648C10.642 35.3769 10.4205 36.4186 9.97727 37.2898C9.53788 38.161 8.90152 38.8314 8.06818 39.3011C7.23485 39.767 6.22727 40 5.04545 40ZM3.03409 38.4659H4.94886C5.83523 38.4659 6.57197 38.2992 7.15909 37.9659C7.74621 37.6288 8.18561 37.142 8.47727 36.5057C8.76894 35.8655 8.91477 35.0852 8.91477 34.1648C8.91477 33.2519 8.76894 32.4773 8.47727 31.8409C8.18939 31.2045 7.75947 30.7216 7.1875 30.392C6.61553 30.0625 5.9053 29.8977 5.05682 29.8977H3.03409V38.4659ZM16.4503 40.1761C15.5904 40.1761 14.8499 39.9924 14.2287 39.625C13.6113 39.2538 13.134 38.733 12.7969 38.0625C12.4635 37.3883 12.2969 36.5985 12.2969 35.6932C12.2969 34.7992 12.4635 34.0114 12.7969 33.3295C13.134 32.6477 13.6037 32.1155 14.206 31.733C14.812 31.3504 15.5204 31.1591 16.331 31.1591C16.8234 31.1591 17.3007 31.2405 17.7628 31.4034C18.2249 31.5663 18.6397 31.822 19.0071 32.1705C19.3745 32.5189 19.6643 32.9716 19.8764 33.5284C20.0885 34.0814 20.1946 34.7538 20.1946 35.5455V36.1477H13.2571V34.875H18.5298C18.5298 34.428 18.4389 34.0322 18.2571 33.6875C18.0753 33.339 17.8196 33.0644 17.4901 32.8636C17.1643 32.6629 16.7817 32.5625 16.3423 32.5625C15.8651 32.5625 15.4484 32.6799 15.0923 32.9148C14.7401 33.1458 14.4673 33.4489 14.2741 33.8239C14.0848 34.1951 13.9901 34.5985 13.9901 35.0341V36.0284C13.9901 36.6117 14.0923 37.108 14.2969 37.517C14.5052 37.9261 14.795 38.2386 15.1662 38.4545C15.5374 38.6667 15.9711 38.7727 16.4673 38.7727C16.7893 38.7727 17.0829 38.7273 17.348 38.6364C17.6132 38.5417 17.8423 38.4015 18.0355 38.2159C18.2287 38.0303 18.3764 37.8011 18.4787 37.5284L20.0866 37.8182C19.9579 38.2917 19.7268 38.7064 19.3935 39.0625C19.0639 39.4148 18.6491 39.6894 18.1491 39.8864C17.6529 40.0795 17.0866 40.1761 16.4503 40.1761ZM28.6193 33.4034L27.0795 33.6761C27.0152 33.4792 26.9129 33.2917 26.7727 33.1136C26.6364 32.9356 26.4508 32.7898 26.2159 32.6761C25.9811 32.5625 25.6875 32.5057 25.3352 32.5057C24.8542 32.5057 24.4527 32.6136 24.1307 32.8295C23.8087 33.0417 23.6477 33.3163 23.6477 33.6534C23.6477 33.9451 23.7557 34.1799 23.9716 34.358C24.1875 34.536 24.536 34.6818 25.017 34.7955L26.4034 35.1136C27.2064 35.2992 27.8049 35.5852 28.1989 35.9716C28.5928 36.358 28.7898 36.8598 28.7898 37.4773C28.7898 38 28.6383 38.4659 28.3352 38.875C28.036 39.2803 27.6174 39.5985 27.0795 39.8295C26.5455 40.0606 25.9261 40.1761 25.2216 40.1761C24.2443 40.1761 23.447 39.9678 22.8295 39.5511C22.2121 39.1307 21.8333 38.5341 21.6932 37.7614L23.3352 37.5114C23.4375 37.9394 23.6477 38.2633 23.9659 38.483C24.2841 38.6989 24.6989 38.8068 25.2102 38.8068C25.767 38.8068 26.2121 38.6913 26.5455 38.4602C26.8788 38.2254 27.0455 37.9394 27.0455 37.6023C27.0455 37.3295 26.9432 37.1004 26.7386 36.9148C26.5379 36.7292 26.2292 36.589 25.8125 36.4943L24.3352 36.1705C23.5208 35.9848 22.9186 35.6894 22.5284 35.2841C22.142 34.8788 21.9489 34.3655 21.9489 33.7443C21.9489 33.2292 22.0928 32.7784 22.3807 32.392C22.6686 32.0057 23.0663 31.7045 23.5739 31.4886C24.0814 31.2689 24.6629 31.1591 25.3182 31.1591C26.2614 31.1591 27.0038 31.3636 27.5455 31.7727C28.0871 32.178 28.4451 32.7216 28.6193 33.4034ZM30.6577 40V31.2727H32.3565V40H30.6577ZM31.5156 29.9261C31.2202 29.9261 30.9664 29.8277 30.7543 29.6307C30.5459 29.4299 30.4418 29.1913 30.4418 28.9148C30.4418 28.6345 30.5459 28.3958 30.7543 28.1989C30.9664 27.9981 31.2202 27.8977 31.5156 27.8977C31.8111 27.8977 32.063 27.9981 32.2713 28.1989C32.4834 28.3958 32.5895 28.6345 32.5895 28.9148C32.5895 29.1913 32.4834 29.4299 32.2713 29.6307C32.063 29.8277 31.8111 29.9261 31.5156 29.9261ZM38.3011 43.4545C37.608 43.4545 37.0114 43.3636 36.5114 43.1818C36.0152 43 35.6098 42.7595 35.2955 42.4602C34.9811 42.161 34.7462 41.8333 34.5909 41.4773L36.0511 40.875C36.1534 41.0417 36.2898 41.2178 36.4602 41.4034C36.6345 41.5928 36.8693 41.7538 37.1648 41.8864C37.464 42.0189 37.8485 42.0852 38.3182 42.0852C38.9621 42.0852 39.4943 41.928 39.9148 41.6136C40.3352 41.303 40.5455 40.8068 40.5455 40.125V38.4091H40.4375C40.3352 38.5947 40.1875 38.8011 39.9943 39.0284C39.8049 39.2557 39.5436 39.4527 39.2102 39.6193C38.8769 39.786 38.4432 39.8693 37.9091 39.8693C37.2197 39.8693 36.5985 39.7083 36.0455 39.3864C35.4962 39.0606 35.0606 38.5814 34.7386 37.9489C34.4205 37.3125 34.2614 36.5303 34.2614 35.6023C34.2614 34.6742 34.4186 33.8788 34.733 33.2159C35.0511 32.553 35.4867 32.0455 36.0398 31.6932C36.5928 31.3371 37.2197 31.1591 37.9205 31.1591C38.4621 31.1591 38.8996 31.25 39.233 31.4318C39.5663 31.6098 39.8258 31.8182 40.0114 32.0568C40.2008 32.2955 40.3466 32.5057 40.4489 32.6875H40.5739V31.2727H42.2386V40.1932C42.2386 40.9432 42.0644 41.5587 41.7159 42.0398C41.3674 42.5208 40.8958 42.8769 40.3011 43.108C39.7102 43.339 39.0436 43.4545 38.3011 43.4545ZM38.2841 38.4602C38.7727 38.4602 39.1856 38.3466 39.5227 38.1193C39.8636 37.8883 40.1212 37.5587 40.2955 37.1307C40.4735 36.6989 40.5625 36.1818 40.5625 35.5795C40.5625 34.9924 40.4754 34.4754 40.3011 34.0284C40.1269 33.5814 39.8712 33.233 39.5341 32.983C39.197 32.7292 38.7803 32.6023 38.2841 32.6023C37.7727 32.6023 37.3466 32.7348 37.0057 33C36.6648 33.2614 36.4072 33.6174 36.233 34.0682C36.0625 34.5189 35.9773 35.0227 35.9773 35.5795C35.9773 36.1515 36.0644 36.6534 36.2386 37.0852C36.4129 37.517 36.6705 37.8542 37.0114 38.0966C37.3561 38.339 37.7803 38.4602 38.2841 38.4602ZM46.2159 34.8182V40H44.517V31.2727H46.1477V32.6932H46.2557C46.4564 32.2311 46.7708 31.8598 47.1989 31.5795C47.6307 31.2992 48.1742 31.1591 48.8295 31.1591C49.4242 31.1591 49.9451 31.2841 50.392 31.5341C50.839 31.7803 51.1856 32.1477 51.4318 32.6364C51.678 33.125 51.8011 33.7292 51.8011 34.4489V40H50.1023V34.6534C50.1023 34.0208 49.9375 33.5265 49.608 33.1705C49.2784 32.8106 48.8258 32.6307 48.25 32.6307C47.8561 32.6307 47.5057 32.7159 47.1989 32.8864C46.8958 33.0568 46.6553 33.3068 46.4773 33.6364C46.303 33.9621 46.2159 34.3561 46.2159 34.8182Z" fill="#FDFDFA"/>
<path d="M7.32386 50.7102C7.27841 50.2519 7.08333 49.8958 6.73864 49.642C6.39394 49.3883 5.92614 49.2614 5.33523 49.2614C4.93371 49.2614 4.5947 49.3182 4.31818 49.4318C4.04167 49.5417 3.82955 49.6951 3.68182 49.892C3.53788 50.089 3.46591 50.3125 3.46591 50.5625C3.45833 50.7708 3.50189 50.9527 3.59659 51.108C3.69508 51.2633 3.82955 51.3977 4 51.5114C4.17045 51.6212 4.36742 51.7178 4.59091 51.8011C4.81439 51.8807 5.05303 51.9489 5.30682 52.0057L6.35227 52.2557C6.85985 52.3693 7.32576 52.5208 7.75 52.7102C8.17424 52.8996 8.54167 53.1326 8.85227 53.4091C9.16288 53.6856 9.40341 54.0114 9.57386 54.3864C9.74811 54.7614 9.83712 55.1913 9.84091 55.6761C9.83712 56.3883 9.6553 57.0057 9.29545 57.5284C8.93939 58.0473 8.42424 58.4508 7.75 58.7386C7.07955 59.0227 6.27083 59.1648 5.32386 59.1648C4.38447 59.1648 3.56629 59.0208 2.86932 58.733C2.17614 58.4451 1.63447 58.0189 1.24432 57.4545C0.857955 56.8864 0.655303 56.1837 0.636364 55.3466H3.01705C3.04356 55.7367 3.1553 56.0625 3.35227 56.3239C3.55303 56.5814 3.82008 56.7765 4.15341 56.9091C4.49053 57.0379 4.87121 57.1023 5.29545 57.1023C5.71212 57.1023 6.07386 57.0417 6.38068 56.9205C6.69129 56.7992 6.93182 56.6307 7.10227 56.4148C7.27273 56.1989 7.35795 55.9508 7.35795 55.6705C7.35795 55.4091 7.2803 55.1894 7.125 55.0114C6.97348 54.8333 6.75 54.6818 6.45455 54.5568C6.16288 54.4318 5.80492 54.3182 5.38068 54.2159L4.11364 53.8977C3.13258 53.6591 2.35795 53.286 1.78977 52.7784C1.22159 52.2708 0.939394 51.5871 0.943182 50.7273C0.939394 50.0227 1.12689 49.4072 1.50568 48.8807C1.88826 48.3542 2.41288 47.9432 3.07955 47.6477C3.74621 47.3523 4.50379 47.2045 5.35227 47.2045C6.21591 47.2045 6.9697 47.3523 7.61364 47.6477C8.26136 47.9432 8.76515 48.3542 9.125 48.8807C9.48485 49.4072 9.67045 50.017 9.68182 50.7102H7.32386ZM12.9446 62.2727C12.6378 62.2727 12.3499 62.2481 12.081 62.1989C11.8158 62.1534 11.5961 62.0947 11.4219 62.0227L11.9673 60.2159C12.2514 60.303 12.5071 60.3504 12.7344 60.358C12.9654 60.3655 13.1643 60.3125 13.331 60.1989C13.5014 60.0852 13.6397 59.892 13.7457 59.6193L13.8878 59.25L10.7571 50.2727H13.3026L15.1094 56.6818H15.2003L17.0241 50.2727H19.5866L16.1946 59.9432C16.0317 60.4129 15.8101 60.822 15.5298 61.1705C15.2533 61.5227 14.9029 61.7936 14.4787 61.983C14.0545 62.1761 13.5431 62.2727 12.9446 62.2727ZM28.0866 52.7614L25.8707 52.8977C25.8329 52.7083 25.7514 52.5379 25.6264 52.3864C25.5014 52.2311 25.3366 52.108 25.1321 52.017C24.9313 51.9223 24.6908 51.875 24.4105 51.875C24.0355 51.875 23.7192 51.9545 23.4616 52.1136C23.2041 52.2689 23.0753 52.4773 23.0753 52.7386C23.0753 52.947 23.1586 53.1231 23.3253 53.267C23.492 53.411 23.7779 53.5265 24.1832 53.6136L25.7628 53.9318C26.6113 54.1061 27.2438 54.3864 27.6605 54.7727C28.0772 55.1591 28.2855 55.6667 28.2855 56.2955C28.2855 56.8674 28.117 57.3693 27.7798 57.8011C27.4465 58.233 26.9882 58.5701 26.4048 58.8125C25.8253 59.0511 25.1567 59.1705 24.3991 59.1705C23.2438 59.1705 22.3234 58.9299 21.6378 58.4489C20.956 57.964 20.5563 57.3049 20.4389 56.4716L22.8196 56.3466C22.8916 56.6989 23.0658 56.9678 23.3423 57.1534C23.6188 57.3352 23.973 57.4261 24.4048 57.4261C24.8291 57.4261 25.17 57.3447 25.4276 57.1818C25.6889 57.0152 25.8215 56.8011 25.8253 56.5398C25.8215 56.3201 25.7287 56.1402 25.5469 56C25.3651 55.8561 25.0848 55.7462 24.706 55.6705L23.1946 55.3693C22.3423 55.1989 21.7079 54.9034 21.2912 54.483C20.8783 54.0625 20.6719 53.5265 20.6719 52.875C20.6719 52.3144 20.8234 51.8314 21.1264 51.4261C21.4332 51.0208 21.8632 50.7083 22.4162 50.4886C22.973 50.2689 23.6245 50.1591 24.3707 50.1591C25.473 50.1591 26.3404 50.392 26.973 50.858C27.6094 51.3239 27.9806 51.9583 28.0866 52.7614ZM34.4517 50.2727V52.0909H29.196V50.2727H34.4517ZM30.3892 48.1818H32.8097V56.3182C32.8097 56.5417 32.8438 56.7159 32.9119 56.8409C32.9801 56.9621 33.0748 57.0473 33.196 57.0966C33.321 57.1458 33.465 57.1705 33.6278 57.1705C33.7415 57.1705 33.8551 57.161 33.9688 57.142C34.0824 57.1193 34.1695 57.1023 34.2301 57.0909L34.6108 58.892C34.4896 58.9299 34.3191 58.9735 34.0994 59.0227C33.8797 59.0758 33.6127 59.108 33.2983 59.1193C32.715 59.142 32.2036 59.0644 31.7642 58.8864C31.3286 58.7083 30.9896 58.4318 30.7472 58.0568C30.5047 57.6818 30.3854 57.2083 30.3892 56.6364V48.1818ZM39.9119 59.1705C39.0142 59.1705 38.2415 58.9886 37.5938 58.625C36.9498 58.2576 36.4536 57.7386 36.1051 57.0682C35.7566 56.3939 35.5824 55.5966 35.5824 54.6761C35.5824 53.7784 35.7566 52.9905 36.1051 52.3125C36.4536 51.6345 36.9441 51.1061 37.5767 50.7273C38.2131 50.3485 38.9593 50.1591 39.8153 50.1591C40.3911 50.1591 40.9271 50.2519 41.4233 50.4375C41.9233 50.6193 42.3589 50.8939 42.7301 51.2614C43.1051 51.6288 43.3968 52.0909 43.6051 52.6477C43.8134 53.2008 43.9176 53.8485 43.9176 54.5909V55.2557H36.5483V53.7557H41.6392C41.6392 53.4072 41.5634 53.0985 41.4119 52.8295C41.2604 52.5606 41.0502 52.3504 40.7812 52.1989C40.5161 52.0436 40.2074 51.9659 39.8551 51.9659C39.4877 51.9659 39.1619 52.0511 38.8778 52.2216C38.5975 52.3883 38.3778 52.6136 38.2188 52.8977C38.0597 53.178 37.9782 53.4905 37.9744 53.8352V55.2614C37.9744 55.6932 38.054 56.0663 38.2131 56.3807C38.3759 56.6951 38.6051 56.9375 38.9006 57.108C39.196 57.2784 39.5464 57.3636 39.9517 57.3636C40.2206 57.3636 40.4669 57.3258 40.6903 57.25C40.9138 57.1742 41.1051 57.0606 41.2642 56.9091C41.4233 56.7576 41.5445 56.572 41.6278 56.3523L43.8665 56.5C43.7528 57.0379 43.5199 57.5076 43.1676 57.9091C42.8191 58.3068 42.3684 58.6174 41.8153 58.8409C41.2661 59.0606 40.6316 59.1705 39.9119 59.1705ZM45.4972 59V50.2727H47.804V51.8125H47.9062C48.0881 51.3011 48.3911 50.8977 48.8153 50.6023C49.2396 50.3068 49.7472 50.1591 50.3381 50.1591C50.9366 50.1591 51.446 50.3087 51.8665 50.608C52.2869 50.9034 52.5672 51.3049 52.7074 51.8125H52.7983C52.9763 51.3125 53.2983 50.9129 53.7642 50.6136C54.2339 50.3106 54.7888 50.1591 55.429 50.1591C56.2434 50.1591 56.9044 50.4186 57.4119 50.9375C57.9233 51.4527 58.179 52.1837 58.179 53.1307V59H55.7642V53.608C55.7642 53.1231 55.6354 52.7595 55.3778 52.517C55.1203 52.2746 54.7983 52.1534 54.4119 52.1534C53.9725 52.1534 53.6297 52.2936 53.3835 52.5739C53.1373 52.8504 53.0142 53.2159 53.0142 53.6705V59H50.6676V53.5568C50.6676 53.1288 50.5445 52.7879 50.2983 52.5341C50.0559 52.2803 49.7358 52.1534 49.3381 52.1534C49.0691 52.1534 48.8267 52.2216 48.6108 52.358C48.3987 52.4905 48.2301 52.678 48.1051 52.9205C47.9801 53.1591 47.9176 53.4394 47.9176 53.7614V59H45.4972ZM67.3523 52.7614L65.1364 52.8977C65.0985 52.7083 65.017 52.5379 64.892 52.3864C64.767 52.2311 64.6023 52.108 64.3977 52.017C64.197 51.9223 63.9564 51.875 63.6761 51.875C63.3011 51.875 62.9848 51.9545 62.7273 52.1136C62.4697 52.2689 62.3409 52.4773 62.3409 52.7386C62.3409 52.947 62.4242 53.1231 62.5909 53.267C62.7576 53.411 63.0436 53.5265 63.4489 53.6136L65.0284 53.9318C65.8769 54.1061 66.5095 54.3864 66.9261 54.7727C67.3428 55.1591 67.5511 55.6667 67.5511 56.2955C67.5511 56.8674 67.3826 57.3693 67.0455 57.8011C66.7121 58.233 66.2538 58.5701 65.6705 58.8125C65.0909 59.0511 64.4223 59.1705 63.6648 59.1705C62.5095 59.1705 61.589 58.9299 60.9034 58.4489C60.2216 57.964 59.822 57.3049 59.7045 56.4716L62.0852 56.3466C62.1572 56.6989 62.3314 56.9678 62.608 57.1534C62.8845 57.3352 63.2386 57.4261 63.6705 57.4261C64.0947 57.4261 64.4356 57.3447 64.6932 57.1818C64.9545 57.0152 65.0871 56.8011 65.0909 56.5398C65.0871 56.3201 64.9943 56.1402 64.8125 56C64.6307 55.8561 64.3504 55.7462 63.9716 55.6705L62.4602 55.3693C61.608 55.1989 60.9735 54.9034 60.5568 54.483C60.1439 54.0625 59.9375 53.5265 59.9375 52.875C59.9375 52.3144 60.089 51.8314 60.392 51.4261C60.6989 51.0208 61.1288 50.7083 61.6818 50.4886C62.2386 50.2689 62.8902 50.1591 63.6364 50.1591C64.7386 50.1591 65.6061 50.392 66.2386 50.858C66.875 51.3239 67.2462 51.9583 67.3523 52.7614Z" fill="#FDFDFA"/>
</svg>
