<?xml version="1.0" encoding="UTF-8"?>
<svg width="19px" height="16px" viewBox="0 0 19 16" version="1.1" xmlns="http://www.w3.org/2000/svg" xmlns:xlink="http://www.w3.org/1999/xlink">
    <!-- Generator: Sketch 45.1 (43504) - http://www.bohemiancoding.com/sketch -->
    <title>unsplash</title>
    <desc>Created with Sketch.</desc>
    <defs></defs>
    <g id="home3" stroke="none" stroke-width="1" fill="none" fill-rule="evenodd">
        <g id="inner" transform="translate(-84.000000, -88.000000)" fill="#FFFFFF">
            <g id="Group-3" transform="translate(48.000000, 88.000000)">
                <g id="unsplash" transform="translate(36.000000, 0.000000)">
                    <path d="M9.14382933,13.5387733 C6.77774933,13.5220267 4.898816,11.56624 4.915936,9.13792 C4.93172267,6.89354667 6.90164267,4.97834667 9.201696,4.9712 C11.574176,4.96384 13.5428693,6.91461333 13.5302293,9.26016 C13.5172693,11.6558933 11.569376,13.5559467 9.14382933,13.5387733 M18.4619627,4.98848 C18.4609493,3.60938667 17.437696,2.54576 16.0651093,2.50810667 C15.3991893,2.48986667 14.732416,2.49690667 14.0660693,2.50245333 C13.9103893,2.50378667 13.8248427,2.46106667 13.7727893,2.3064 C13.6596693,1.97034667 13.5293227,1.64005333 13.4030827,1.30848 C13.1142293,0.549546667 12.4047893,0.0555733333 11.5956693,0.0546133333 C10.0139627,0.0528 8.43230933,0.05296 6.85060267,0.05456 C6.04814933,0.0554133333 5.34644267,0.539573333 5.058496,1.28810667 C4.93758933,1.60256 4.80852267,1.91493333 4.70894933,2.23626667 C4.64606933,2.4392 4.550496,2.51104 4.33188267,2.50554667 C3.70148267,2.48970667 3.06980267,2.48597333 2.43956267,2.50624 C0.999936,2.55248 0.000576,3.59157333 0.000309333333,5.02389333 C-0.000224,7.83184 -6.4e-05,10.6397867 0.000576,13.4477333 C0.000949333333,14.8994667 1.05486933,15.9560533 2.50116267,15.95616 C4.740416,15.9563733 6.979616,15.9562133 9.21886933,15.95648 C11.4492693,15.9567467 13.679616,15.95792 15.9099627,15.95632 C17.4086293,15.9552533 18.461856,14.9048533 18.462336,13.41232 C18.463296,10.6043733 18.4640427,7.79642667 18.4619627,4.98848" id="Fill-4"></path>
                    <path d="M9.22976533,6.49918933 C7.68912533,6.49140267 6.44640533,7.720736 6.43648533,9.26222933 C6.426832,10.7535893 7.67509867,11.992416 9.19573867,12.000736 C10.7273653,12.0091627 11.9869387,10.7848427 12.0005387,9.27460267 C12.0144053,7.73284267 10.7907253,6.50702933 9.22976533,6.49918933" id="Fill-7"></path>
                </g>
            </g>
        </g>
    </g>
</svg>