<?xml version="1.0" encoding="UTF-8"?>
<svg width="36px" height="18px" viewBox="0 0 36 18" version="1.1" xmlns="http://www.w3.org/2000/svg" xmlns:xlink="http://www.w3.org/1999/xlink">
    <!-- Generator: Sketch 53.2 (72643) - https://sketchapp.com -->
    <title>Group</title>
    <desc>Created with Sketch.</desc>
    <g id="hifi" stroke="none" stroke-width="1" fill="none" fill-rule="evenodd">
        <g id="hd-month" transform="translate(-32.000000, -33.000000)">
            <g id="Group-35" transform="translate(32.000000, 32.000000)">
                <g id="Group" transform="translate(0.000000, 1.000000)">
                    <path d="M3.89080236,11.5535531 C3.03843586,10.8042095 0.767129847,8.54713821 0,7.68830602 L7.84327594,0 C8.54221647,0.680536625 10.8862243,2.96121324 12.081543,3.9626819 C13.6087832,5.24289434 14.9755779,6.21121508 16.1653813,6.85709707 C16.3940161,6.98115061 16.424601,7.29756248 16.22254,7.4617953 C13.4954686,9.67818506 10.9188148,11.2773206 8.54723039,12.224045 C7.48478062,12.5650666 5.01993727,12.5650666 3.89080236,11.5535531 Z" id="Fill-1" fill="#6C7681"></path>
                    <path d="M12.9247041,16.794672 C11.6977686,16.3804976 10.4994717,15.8738376 9.3423741,15.2807238 C9.06201784,15.1369691 9.0811102,14.7298316 9.37452966,14.6147273 C10.8456464,14.0392058 12.3765523,13.2455391 13.9486576,12.2432772 C16.2251706,10.7916562 18.6137255,8.89017341 21.0480016,6.59210857 C23.8334768,3.96179945 26.1813348,1.38577532 27.3258717,0 L35.8571429,8.35888414 C35.1572571,9.31842171 33.7941629,11.0228701 31.8477469,12.7212868 C30.1118492,14.2372455 28.2613974,15.4486052 26.3481418,16.3221915 C23.9821962,17.4023624 21.5087305,17.9668258 18.9960752,18 C18.8252488,17.9984921 16.3507782,17.9522493 12.9247041,16.794672" id="Fill-3" fill="#3A4857"></path>
                </g>
            </g>
        </g>
    </g>
</svg>