<?xml version="1.0" encoding="UTF-8"?>
<svg width="14px" height="14px" viewBox="0 0 14 14" version="1.1" xmlns="http://www.w3.org/2000/svg" xmlns:xlink="http://www.w3.org/1999/xlink">
    <!-- Generator: Sketch 53.2 (72643) - https://sketchapp.com -->
    <title>Shape</title>
    <desc>Created with Sketch.</desc>
    <g id="hifi" stroke="none" stroke-width="1" fill="none" fill-rule="evenodd">
        <g id="hd-overview" transform="translate(-105.000000, -36.000000)" fill="#6C7681" fill-rule="nonzero">
            <g id="Group-17" transform="translate(91.000000, 24.000000)">
                <g id="Group-5" transform="translate(21.899495, 19.899495) rotate(-45.000000) translate(-21.899495, -19.899495) translate(15.899495, 11.899495)">
                    <path d="M5,11.9170416 C2.16228666,11.4409635 0,8.97299629 0,6 C0,2.6862915 2.6862915,0 6,0 C9.3137085,0 12,2.6862915 12,6 C12,8.97299629 9.83771334,11.4409635 7,11.9170416 L7,15 C7,15.5522847 6.55228475,16 6,16 C5.44771525,16 5,15.5522847 5,15 L5,11.9170416 Z M6,10 C8.209139,10 10,8.209139 10,6 C10,3.790861 8.209139,2 6,2 C3.790861,2 2,3.790861 2,6 C2,8.209139 3.790861,10 6,10 Z" id="Shape"></path>
                </g>
            </g>
        </g>
    </g>
</svg>