<svg width="29" height="30" viewBox="0 0 29 30" fill="none" xmlns="http://www.w3.org/2000/svg">
<path fill-rule="evenodd" clip-rule="evenodd" d="M11.1853 0.860352L2.51976 3.12995L0.131625 11.8444L3.11843 14.911L0.083374 17.927L2.33093 26.6795L10.959 29.0903L13.9946 26.0737L16.9814 29.1397L25.647 26.8701L28.0345 18.1551L25.0483 15.0897L28.0834 12.0737L25.8358 3.32057L17.2066 0.909794L14.1721 3.92579L11.1853 0.860352ZM5.86756 4.80623L10.4324 3.61008L12.4285 5.65926L9.51738 8.55195L5.86756 4.80623ZM15.8883 5.68666L17.9167 3.67143L22.4618 4.94145L18.7524 8.62701L15.8883 5.68666ZM2.86646 11.1289L4.12397 6.5391L7.77259 10.2848L4.86203 13.1775L2.86646 11.1283V11.1289ZM20.4674 10.3885L24.1768 6.70173L25.3599 11.3124L23.3321 13.3282L20.4674 10.3885ZM11.233 10.3128L14.1441 7.42013L17.0076 10.3605L14.0971 13.2532L11.233 10.3128ZM6.57823 14.9384L9.48879 12.0457L12.3541 14.986L9.44232 17.8787L6.57823 14.9384ZM15.8133 15.014L18.7238 12.1214L21.5879 15.0617L18.6768 17.9544L15.8133 15.014ZM2.8057 18.6877L4.83463 16.6713L7.69813 19.6122L3.98993 23.2972L2.8057 18.6877ZM11.1579 19.6396L14.0691 16.7469L16.9332 19.6873L14.0226 22.5799L11.1579 19.6396ZM20.3924 19.7159L23.3035 16.8232L25.2997 18.8718L24.0428 23.4616L20.3924 19.7159ZM5.70494 25.0592L9.41373 21.3725L12.279 24.3128L10.2501 26.3292L5.70494 25.0592ZM15.7382 24.3408L18.6488 21.4481L22.298 25.1945L17.7338 26.39L15.7382 24.3408Z" fill="#373732"/>
</svg>
