<svg width="33" height="32" viewBox="0 0 33 32" fill="none" xmlns="http://www.w3.org/2000/svg">
<g clip-path="url(#clip0_771_44)">
<mask id="mask0_771_44" style="mask-type:luminance" maskUnits="userSpaceOnUse" x="0" y="-1" width="33" height="33">
<path d="M17.0833 14V26H15.0833V14L0.0833435 -1V32H32.0833V-1L17.0833 14Z" fill="white"/>
</mask>
<g mask="url(#mask0_771_44)">
<path d="M16.0833 25C21.0539 25 25.0833 20.9706 25.0833 16C25.0833 11.0294 21.0539 7 16.0833 7C11.1128 7 7.08334 11.0294 7.08334 16C7.08334 20.9706 11.1128 25 16.0833 25Z" fill="#373732"/>
<path d="M16.0833 29C23.263 29 29.0833 23.1797 29.0833 16C29.0833 8.8203 23.263 3 16.0833 3C8.90364 3 3.08334 8.8203 3.08334 16C3.08334 23.1797 8.90364 29 16.0833 29Z" stroke="#373732" stroke-width="4"/>
</g>
<path d="M16.0833 11C18.8448 11 21.0833 8.76142 21.0833 6C21.0833 3.23858 18.8448 1 16.0833 1C13.3219 1 11.0833 3.23858 11.0833 6C11.0833 8.76142 13.3219 11 16.0833 11Z" fill="#373732"/>
</g>
<defs>
<clipPath id="clip0_771_44">
<rect width="32" height="32" fill="white" transform="translate(0.0833435)"/>
</clipPath>
</defs>
</svg>
