<svg width="64" height="64" viewBox="0 0 64 64" fill="none" xmlns="http://www.w3.org/2000/svg">
<path d="M64 18.7733C64 27.5909 64 36.4091 64 45.2267C63.9392 45.2779 63.8741 45.3253 63.8181 45.3813C57.6811 51.512 51.5451 57.6432 45.4096 63.776C45.3419 63.8437 45.2869 63.9253 45.2267 64C36.4091 64 27.5909 64 18.7733 64C18.6869 63.8997 18.6069 63.7936 18.5136 63.7008C12.4107 57.5995 6.30613 51.4992 0.201067 45.3995C0.138667 45.3371 0.0672 45.2843 0 45.2267C0 36.4091 0 27.5909 0 18.7733C0.0672 18.7157 0.138667 18.6629 0.201067 18.6005C6.30613 12.5008 12.4107 6.40053 18.5136 0.2992C18.6069 0.205867 18.6869 0.0997333 18.7733 0C27.5909 0 36.4091 0 45.2267 0C45.3125 0.100267 45.392 0.206933 45.4853 0.299733C51.5893 6.40053 57.6939 12.5003 63.7995 18.6C63.8619 18.6619 63.9328 18.7157 64 18.7733ZM25.7445 26.7877C25.7445 28.3696 25.7371 29.9515 25.7525 31.5333C25.7547 31.7797 25.8155 32.048 25.9259 32.2677C26.9488 34.3067 27.9888 36.3371 29.0229 38.3701C29.6667 39.6357 30.3067 40.9035 30.9595 42.1643C31.0149 42.2715 31.1547 42.4043 31.2571 42.4064C32.5792 42.4325 33.9035 42.4491 35.2037 42.1547C38.4032 41.4299 40.7861 39.6368 42.2331 36.6768C43.0885 34.9275 43.384 33.0624 43.2336 31.1168C43.128 29.7552 42.7915 28.4667 42.2123 27.2336C42.0853 26.9632 41.9307 26.8581 41.6256 26.8619C40.3104 26.8789 38.9952 26.8635 37.68 26.8741C37.4288 26.8763 37.3408 26.8085 37.3435 26.5461C37.3557 25.3109 37.344 24.0757 37.3531 22.8405C37.3547 22.6085 37.2704 22.4933 37.0581 22.4064C35.7019 21.8496 34.2859 21.5968 32.8288 21.5867C30.5893 21.5707 28.3499 21.5824 26.1104 21.5829C25.7509 21.5829 25.744 21.5899 25.744 21.9632C25.744 23.5707 25.7445 25.1792 25.7445 26.7877ZM30.28 42.3989C26.7376 35.4469 23.2283 28.5589 19.7184 21.6704C19.6896 21.6709 19.6608 21.6715 19.632 21.6715C16.1125 28.5611 12.5931 35.4507 9.0512 42.3835C9.20533 42.4005 9.28213 42.4165 9.35893 42.4171C10.8341 42.4187 12.3099 42.416 13.7851 42.4213C13.9632 42.4219 14.0576 42.3477 14.1344 42.1968C14.4208 41.6352 14.7211 41.0811 15.0053 40.5184C15.0869 40.3568 15.1824 40.2859 15.3739 40.2864C18.2448 40.2928 21.1157 40.2923 23.9861 40.2875C24.1616 40.2869 24.2603 40.3424 24.3376 40.5008C24.6059 41.0517 24.8949 41.5931 25.1589 42.1456C25.2565 42.3504 25.3835 42.4251 25.6107 42.424C27.0416 42.4144 28.4725 42.4197 29.9035 42.4187C29.9995 42.4176 30.0944 42.4085 30.28 42.3989ZM46.5077 21.6373C43.8064 21.6373 41.1051 21.64 38.4037 21.6331C38.1451 21.6325 38.0469 21.6971 38.0501 21.976C38.064 23.2645 38.0635 24.5531 38.0507 25.8416C38.048 26.104 38.1323 26.1653 38.3829 26.1643C40.16 26.1541 41.9376 26.1589 43.7147 26.1589C44.1515 26.1589 44.152 26.1589 44.152 26.5883C44.152 31.7243 44.152 36.8608 44.1525 41.9968C44.1525 42.4139 44.1573 42.4181 44.5637 42.4181C45.8256 42.4187 47.0875 42.4187 48.3493 42.4181C48.7712 42.4181 48.7717 42.4176 48.7717 41.9941C48.7717 36.8315 48.7717 31.6683 48.7717 26.5056C48.7717 26.1589 48.7723 26.1589 49.1264 26.1589C50.9392 26.1589 52.752 26.1589 54.5648 26.1589C54.9355 26.1589 54.9381 26.1584 54.9381 25.7968C54.9392 24.544 54.9392 23.2907 54.9381 22.0379C54.9376 21.6453 54.9296 21.6379 54.5323 21.6379C51.8571 21.6373 49.1824 21.6373 46.5077 21.6373Z" fill="#094C9B"/>
<path d="M25.7445 26.7879C25.7445 25.1794 25.7439 23.5709 25.745 21.9623C25.745 21.589 25.7519 21.5821 26.1114 21.5821C28.3509 21.5815 30.5903 21.5703 32.8298 21.5858C34.2869 21.5959 35.7029 21.8487 37.0591 22.4055C37.2714 22.4925 37.3557 22.6077 37.3541 22.8397C37.345 24.0749 37.3567 25.3101 37.3445 26.5453C37.3418 26.8077 37.4298 26.8754 37.681 26.8733C38.9962 26.8626 40.3114 26.8781 41.6266 26.861C41.9317 26.8573 42.0863 26.9623 42.2133 27.2327C42.793 28.4663 43.1295 29.7543 43.2346 31.1159C43.385 33.0615 43.0895 34.9261 42.2341 36.6759C40.7871 39.6359 38.4037 41.429 35.2047 42.1538C33.9039 42.4482 32.5797 42.4317 31.2581 42.4055C31.1551 42.4034 31.0154 42.2701 30.9605 42.1634C30.3077 40.9026 29.6682 39.6348 29.0239 38.3693C27.9893 36.3362 26.9498 34.3058 25.9269 32.2669C25.8165 32.0471 25.7557 31.7789 25.7535 31.5325C25.737 29.9517 25.7445 28.3698 25.7445 26.7879ZM30.3695 32.0007C30.3695 33.8306 30.3695 35.6605 30.369 37.4903C30.369 37.6445 30.3455 37.7991 30.5866 37.7906C31.6853 37.7517 32.7909 37.7853 33.881 37.6695C35.3429 37.5143 36.5621 36.8253 37.4757 35.6573C38.5925 34.2295 38.8586 32.5735 38.569 30.8439C38.0751 27.893 35.7631 26.2951 33.1125 26.2141C32.305 26.1895 31.4959 26.2199 30.6879 26.2029C30.4223 26.1975 30.3631 26.2893 30.3647 26.5383C30.3743 28.3591 30.3695 30.1799 30.3695 32.0007Z" fill="white"/>
<path d="M30.28 42.399C30.0949 42.4086 29.9995 42.4176 29.904 42.4176C28.4731 42.4187 27.0421 42.4139 25.6112 42.423C25.3835 42.4246 25.2571 42.3494 25.1595 42.1446C24.8955 41.5915 24.6064 41.0507 24.3381 40.4998C24.2613 40.3419 24.1621 40.2864 23.9867 40.2864C21.1157 40.2912 18.2448 40.2918 15.3744 40.2854C15.1835 40.2848 15.088 40.3558 15.0059 40.5174C14.7216 41.08 14.4214 41.6342 14.135 42.1958C14.0582 42.3467 13.9638 42.4214 13.7856 42.4203C12.3104 42.415 10.8347 42.4176 9.35949 42.416C9.28269 42.416 9.20589 42.4 9.05176 42.3824C12.5936 35.4496 16.1131 28.56 19.6325 21.671C19.6613 21.6705 19.6901 21.6699 19.7189 21.6699C23.2277 28.559 26.7376 35.447 30.28 42.399ZM17.3509 35.9024C18.9125 35.9024 20.4235 35.9024 21.9739 35.9024C21.2091 34.4016 20.456 32.9243 19.6741 31.3894C18.8821 32.928 18.1253 34.3974 17.3509 35.9024Z" fill="white"/>
<path d="M46.5076 21.6376C49.1823 21.6376 51.857 21.6376 54.5316 21.6376C54.929 21.6376 54.937 21.6446 54.9375 22.0376C54.9386 23.2904 54.9386 24.5437 54.9375 25.7965C54.937 26.1581 54.9343 26.1587 54.5642 26.1587C52.7514 26.1587 50.9386 26.1587 49.1258 26.1587C48.7716 26.1587 48.7711 26.1592 48.7711 26.5054C48.7711 31.668 48.7711 36.8312 48.7711 41.9939C48.7711 42.4174 48.7706 42.4179 48.3487 42.4179C47.0868 42.4184 45.825 42.4184 44.5631 42.4179C44.1562 42.4179 44.1519 42.4136 44.1519 41.9965C44.1514 36.8605 44.1519 31.724 44.1514 26.588C44.1514 26.1587 44.1514 26.1587 43.714 26.1587C41.937 26.1587 40.1594 26.1539 38.3823 26.164C38.1316 26.1656 38.0474 26.1037 38.05 25.8413C38.0628 24.5528 38.0639 23.2643 38.0495 21.9758C38.0463 21.6974 38.1444 21.6323 38.4031 21.6328C41.1044 21.6403 43.8063 21.6376 46.5076 21.6376Z" fill="white"/>
<path d="M30.3696 32.0003C30.3696 30.1795 30.3738 28.3587 30.3648 26.5374C30.3637 26.2883 30.4224 26.1961 30.688 26.2019C31.496 26.219 32.305 26.1886 33.1125 26.2131C35.7631 26.2942 38.0757 27.8926 38.569 30.843C38.8586 32.5726 38.5919 34.228 37.4757 35.6563C36.5621 36.8243 35.3434 37.5134 33.881 37.6686C32.7909 37.7843 31.6853 37.7502 30.5866 37.7896C30.3456 37.7982 30.369 37.6435 30.369 37.4894C30.3701 35.66 30.3696 33.8302 30.3696 32.0003Z" fill="#094C9B"/>
<path d="M17.3508 35.9022C18.1258 34.3972 18.882 32.9273 19.674 31.3892C20.4565 32.9241 21.209 34.4009 21.9738 35.9022C20.4234 35.9022 18.9119 35.9022 17.3508 35.9022Z" fill="#094C9B"/>
</svg>
