<svg width="32" height="32" viewBox="0 0 32 32" fill="none" xmlns="http://www.w3.org/2000/svg">
<path fill-rule="evenodd" clip-rule="evenodd" d="M16 0C7.16344 0 0 7.16344 0 16C0 24.8366 7.16344 32 16 32C24.8366 32 32 24.8366 32 16C32 7.16344 24.8366 0 16 0ZM24.3592 17.7033C24.4746 17.1416 24.5333 16.5653 24.5333 15.9882C24.5333 15.4106 24.4746 14.8331 24.3592 14.2726C24.2467 13.7242 24.08 13.185 23.8617 12.6711C23.6483 12.1652 23.3837 11.6775 23.0746 11.2231C22.77 10.7713 22.4191 10.3485 22.0337 9.96194C21.6474 9.57746 21.2224 9.22839 20.7711 8.92299C20.3153 8.61465 19.8273 8.35043 19.3215 8.13574C18.806 7.91812 18.2664 7.75129 17.7185 7.63976C17.1559 7.52493 16.5776 7.46667 15.9996 7.46667C15.4213 7.46667 14.8429 7.52493 14.2812 7.63976C13.7324 7.75126 13.1929 7.91809 12.6778 8.13574C12.172 8.35046 11.6836 8.61465 11.2277 8.92299C10.7765 9.22839 10.3515 9.57746 9.96601 9.96194C9.58017 10.3485 9.2293 10.7713 8.92429 11.2231C8.61677 11.6775 8.35174 12.1651 8.13758 12.6711C7.91921 13.185 7.75214 13.7242 7.63921 14.2726C7.52498 14.8331 7.46667 15.4106 7.46667 15.9882C7.46667 16.5653 7.52502 17.1416 7.63918 17.7033C7.75211 18.2517 7.91917 18.7901 8.13755 19.3048C8.35171 19.8104 8.61674 20.2976 8.92426 20.752C9.22927 21.2034 9.58014 21.627 9.96598 22.0131C10.3514 22.3976 10.7764 22.7475 11.2277 23.0534C11.6836 23.3604 12.1719 23.6246 12.6778 23.8389C13.1928 24.0561 13.7324 24.2225 14.2812 24.3349C14.8429 24.4506 15.4213 24.5096 15.9996 24.5096C16.5775 24.5096 17.1559 24.4506 17.7184 24.3349C18.2664 24.2225 18.806 24.0561 19.3214 23.8389C19.8273 23.6246 20.3152 23.3604 20.7711 23.0534C21.2224 22.7475 21.6474 22.3976 22.0337 22.0131C22.4191 21.627 22.77 21.2034 23.0745 20.752C23.3837 20.2976 23.6483 19.8104 23.8617 19.3048C24.08 18.7901 24.2467 18.2517 24.3592 17.7033Z" fill="#A0A0B0"/>
<path fill-rule="evenodd" clip-rule="evenodd" d="M15.9996 8.71164C17.8447 8.71164 19.5293 9.39689 20.8123 10.5266L20.8117 10.5276C20.7773 10.579 19.7339 12.1395 17.0067 13.1604C15.7947 10.9382 14.4668 9.16216 14.2943 8.93138L14.2824 8.91552C14.8328 8.78321 15.4075 8.71164 15.9996 8.71164ZM18.0517 15.3C17.9005 14.945 17.7367 14.5918 17.5676 14.2448C20.4264 13.0789 21.5986 11.4065 21.627 11.366L21.6274 11.3654C22.6499 12.6049 23.2679 14.1882 23.2845 15.9132L23.2759 15.9114C23.0846 15.8717 20.6648 15.3684 18.2093 15.6769C18.158 15.5521 18.1055 15.4273 18.0517 15.3ZM23.1945 17.1415C22.8703 19.1696 21.7082 20.9205 20.0719 22.0231C19.9977 21.5846 19.6093 19.4484 18.6534 16.8253C21.0057 16.4487 23.0445 17.0933 23.1945 17.1415ZM17.288 17.1624L17.2702 17.168C17.26 17.1713 17.2497 17.1745 17.2396 17.1782C12.9399 18.675 11.5358 21.6914 11.5206 21.7244C12.7577 22.6851 14.3095 23.2647 15.9996 23.2647C17.0088 23.2647 17.9701 23.0595 18.8447 22.688C18.7368 22.0522 18.3134 19.8237 17.288 17.1624ZM16.2 14.72C12.4477 15.8417 8.8471 15.761 8.71794 15.756C8.71729 15.7803 8.71648 15.8043 8.71567 15.8282C8.71388 15.8814 8.7121 15.9342 8.7121 15.9882C8.7121 17.8576 9.41838 19.5619 10.5793 20.8506C10.5768 20.8468 12.5711 17.3138 16.5038 16.0439C16.5987 16.0123 16.6954 15.984 16.7913 15.9566C16.6084 15.543 16.4087 15.1286 16.2 14.72ZM8.86835 14.4878C9.3413 12.2342 10.858 10.3643 12.8902 9.40606C12.9873 9.5355 14.3349 11.3617 15.5962 13.5994C12.1341 14.518 9.12441 14.4901 8.87535 14.4878L8.86835 14.4878Z" fill="#A0A0B0"/>
</svg>
