<svg width="64" height="64" viewBox="0 0 64 64" fill="none" xmlns="http://www.w3.org/2000/svg">
<path d="M64 0H0V64H64V0Z" fill="#C74634"/>
<path fill-rule="evenodd" clip-rule="evenodd" d="M38.2954 39.3574C42.3424 39.3574 45.6298 36.0603 45.6298 31.992C45.6298 27.9323 42.3424 24.6352 38.2954 24.6352H25.7045C21.6501 24.6352 18.3658 27.9323 18.3658 31.992C18.3658 36.0603 21.6501 39.3574 25.7045 39.3574H38.2954ZM25.4144 43.3712C19.1562 43.3712 14.08 38.2779 14.08 31.992C14.08 25.7104 19.1562 20.6267 25.4144 20.6267H38.5845C44.8437 20.6267 49.9157 25.7104 49.9157 31.992C49.9157 38.2854 44.8437 43.3755 38.5845 43.3755L25.4144 43.3712Z" fill="white"/>
</svg>
