<svg width="64" height="64" viewBox="0 0 64 64" fill="none" xmlns="http://www.w3.org/2000/svg">
<rect width="64" height="64" fill="#1D96F3"/>
<path fill-rule="evenodd" clip-rule="evenodd" d="M17.6774 39.8541C18.9658 39.8541 20.0139 40.9022 20.0139 42.1906C20.0139 43.4789 18.9658 44.527 17.6774 44.527C16.3891 44.527 15.3409 43.4789 15.3409 42.1906C15.3191 40.9022 16.3672 39.8541 17.6774 39.8541Z" fill="white"/>
<path d="M49.4928 42.7802C50.7832 42.7802 51.8293 41.7341 51.8293 40.4437C51.8293 39.1533 50.7832 38.1072 49.4928 38.1072C48.2024 38.1072 47.1563 39.1533 47.1563 40.4437C47.1563 41.7341 48.2024 42.7802 49.4928 42.7802Z" fill="white"/>
<path fill-rule="evenodd" clip-rule="evenodd" d="M33.3122 44.527C34.6005 44.527 35.6486 45.5752 35.6486 46.8635C35.6486 48.1519 34.6005 49.2 33.3122 49.2C32.0238 49.2 30.9757 48.1519 30.9757 46.8635C30.9757 45.5752 32.0238 44.527 33.3122 44.527Z" fill="white"/>
<path fill-rule="evenodd" clip-rule="evenodd" d="M33.5524 26.665L15.1226 21.4462L30.7573 15.8342L34.3385 16.9042L34.273 24.6561L49.4273 19.3935L30.4953 14L12 20.5509V22.407L15.4938 23.5861V36.4476L33.4869 41.863L51.9603 34.5697V20.3107L33.5524 26.665Z" fill="white"/>
<path fill-rule="evenodd" clip-rule="evenodd" d="M32.6134 24.7216L32.6789 18.1052L30.7792 17.5375L20.4288 21.2715L32.6134 24.7216Z" fill="white"/>
</svg>
