<?xml version="1.0" encoding="UTF-8"?>
<svg width="36px" height="20px" viewBox="0 0 36 20" version="1.1" xmlns="http://www.w3.org/2000/svg" xmlns:xlink="http://www.w3.org/1999/xlink">
    <!-- Generator: Sketch 52.1 (67048) - http://www.bohemiancoding.com/sketch -->
    <title>Group 9</title>
    <desc>Created with Sketch.</desc>
    <g id="Page-1" stroke="none" stroke-width="1" fill="none" fill-rule="evenodd">
        <g id="home4" transform="translate(-1184.000000, -723.000000)" fill="#A7C5C5">
            <g id="Group-2" transform="translate(581.000000, 721.000000)">
                <g id="Group-9" transform="translate(603.000000, 2.000000)">
                    <path d="M5.37365922,0.00915435117 C6.84048166,0.00903611472 8.30741845,0.0251162714 9.7738978,0.000286617728 C10.2950509,-0.00846287926 10.4965589,0.182016035 10.4700266,0.721883647 C10.4391485,1.35042859 10.4413214,1.98287534 10.4693404,2.611775 C10.493128,3.14620373 10.2911626,3.35264457 9.7717249,3.34519567 C8.3433285,3.32497724 6.91447465,3.33656441 5.48573516,3.33975679 C4.74946486,3.3414121 4.7285364,3.36647823 4.72487677,4.14837585 C4.72281824,4.60133967 4.72887949,5.0543035 4.72430496,5.50726732 C4.72053097,5.87793858 4.80447356,6.06427922 5.1729518,5.77791054 C6.02026877,5.1192153 6.99830287,5.02013316 8.0042416,5.12500889 C9.9003835,5.32246375 11.0322361,6.46498253 11.2356883,8.4938017 C11.487516,11.0050256 11.4998672,13.5309108 11.2306563,16.0385875 C11.0300632,17.9067234 9.92497159,19.1327171 8.19339834,19.6360497 C6.23389923,20.2057128 4.28640826,20.1377269 2.40353249,19.2106349 C1.33149183,18.6827092 0.667613442,17.8197014 0.323380202,16.6815573 C-0.0876411471,15.3226659 0.00876703252,13.9147063 0.0121979286,12.5180974 C0.0128841078,12.2209692 0.178367662,12.0909091 0.447006824,12.0903179 C1.76126875,12.0875985 3.07553067,12.0857067 4.38979259,12.091382 C4.81110663,12.0931556 4.86359934,12.3983239 4.86291316,12.743929 C4.86096898,13.7281292 4.84187033,14.713157 4.96561131,15.6927459 C4.98768341,15.8676176 4.99157176,16.0493471 5.04280648,16.2151146 C5.1642602,16.608369 5.45405655,16.7774471 5.83740201,16.7360643 C6.21605857,16.6950363 6.4086462,16.4379903 6.42156924,16.0547859 C6.43815191,15.5629223 6.43803755,15.0703493 6.43872373,14.5780127 C6.44112535,13.0222576 6.44204026,11.4663842 6.43963863,9.9105108 C6.43918118,9.65500184 6.44261207,9.39547284 6.40315677,9.14469334 C6.33579684,8.71573151 6.19444392,8.32105826 5.6748919,8.31845706 C5.14115883,8.31585585 4.96252351,8.69504014 4.88841615,9.15899995 C4.75781338,9.97613203 4.76078682,9.97731439 3.93714304,9.97778734 C2.85137879,9.97826028 1.76527146,9.96064305 0.679964667,9.985118 C0.185686907,9.99611399 0.00647976847,9.81119218 0.0172299095,9.29627246 C0.0772705908,6.42277212 0.121643513,3.54879883 0.154694479,0.674825541 C0.160641365,0.152456924 0.387423596,-0.00219634763 0.859057442,0.00312429243 C2.36384846,0.0200321042 3.86875384,0.00939082406 5.37365922,0.00915435117" id="Fill-1"></path>
                    <path d="M18.07002,19.9983666 C16.5243373,19.9982485 14.9786546,20.0034476 13.4329719,19.9958853 C12.7093292,19.9923404 12.6886265,19.888477 12.6051018,19.1684044 C12.4319843,17.6773318 12.9438408,16.4502307 13.739348,15.2075324 C15.4062724,12.6029113 17.0214401,9.96012433 18.4195863,7.19846744 C18.8650513,6.31828679 19.2029575,5.38788775 19.1552461,4.3707586 C19.1402545,4.05160597 19.0898065,3.73717977 18.8598162,3.49365013 C18.4032859,3.01013567 17.5779144,3.19836601 17.3893295,3.83950713 C17.1513674,4.64820042 17.2829604,5.48288912 17.2599971,6.30623437 C17.2379856,7.09484032 17.1950334,7.15321181 16.4189201,7.15569319 C15.3884253,7.15911985 14.3573356,7.13466055 13.3277926,7.16514606 C12.7739359,7.18157043 12.5808296,6.96108216 12.6118837,6.43432081 C12.6500766,5.78727164 12.6045069,5.1389227 12.6983829,4.49081009 C13.0975643,1.73387963 14.4706055,0.34560705 17.2504786,0.0636751083 C18.7175149,-0.0850894829 20.2000186,-0.0197464972 21.5164249,0.76945025 C23.5203036,1.97055594 24.3002243,3.89799678 23.8972355,6.35255345 C23.6018056,8.15214418 22.695408,9.67252066 21.760574,11.1802539 C20.7742212,12.7705817 19.7696642,14.3508657 18.6761094,15.8726602 C18.403048,16.2526657 18.6144773,16.35133 18.9743949,16.3515663 C20.2029932,16.352039 21.4317104,16.3496758 22.6604276,16.3548749 C23.5023375,16.3584197 23.5684909,16.4283709 23.5711085,17.2677861 C23.5730122,17.8974656 23.574321,18.5272633 23.5705136,19.1569428 C23.5659923,19.9095096 23.4850852,19.9938765 22.7070682,19.9968306 C21.1615044,20.0026204 19.6158217,19.9984848 18.07002,19.9983666" id="Fill-4"></path>
                    <path d="M30.146229,19.9982655 C28.6004225,19.9983838 27.054497,20.002522 25.5085716,19.9966102 C24.7506016,19.9937725 24.7548853,19.8786101 24.6304212,19.1435332 C24.3026022,17.2090644 25.4073106,15.8129267 26.3079502,14.3199533 C27.773557,11.8909008 29.338283,9.51635541 30.5449664,6.94199015 C30.9462026,6.08595725 31.3040072,5.20627702 31.180138,4.21663677 C31.1037461,3.60559008 30.8049608,3.25218091 30.284139,3.22664181 C29.7302379,3.19956563 29.3614862,3.52897277 29.3182926,4.19168885 C29.2683166,4.95703429 29.2722432,5.72663625 29.2779548,6.49422819 C29.2815245,6.97214048 29.0792405,7.16191021 28.5973287,7.15351541 C27.4878607,7.13447932 26.3776787,7.13826289 25.2679726,7.15091421 C24.8435333,7.15576191 24.6424392,6.98526475 24.6491027,6.56044068 C24.6649284,5.53663005 24.670878,4.50915409 24.8924384,3.50556193 C25.2820135,1.7398167 26.8701806,0.352428565 28.6658673,0.108979428 C29.8186479,-0.0474475796 30.9676209,-0.0517040968 32.0930337,0.203450463 C34.7945955,0.816152468 36.2843574,3.10710462 35.9547536,5.92953024 C35.759371,7.60340563 35.053162,9.0500303 34.2097569,10.4659135 C33.1195653,12.2960976 31.9425106,14.0697647 30.7451085,15.830544 C30.4266897,16.2987609 30.6660988,16.3529132 31.0706667,16.3516126 C32.2003631,16.3478291 33.3300596,16.3501938 34.4596371,16.3512579 C35.5934982,16.3524403 35.5989718,16.3579974 35.5992097,17.4529865 C35.5994477,18.0240692 35.6021845,18.5951519 35.5982578,19.1662346 C35.5933792,19.8958726 35.5083009,19.9921172 34.7838864,19.9957825 C33.2379609,20.0035862 31.6920354,19.9981473 30.146229,19.9982655" id="Fill-7"></path>
                </g>
            </g>
        </g>
    </g>
</svg>