<?xml version="1.0" encoding="UTF-8"?>
<svg width="120px" height="20px" viewBox="0 0 120 20" version="1.1" xmlns="http://www.w3.org/2000/svg" xmlns:xlink="http://www.w3.org/1999/xlink">
    <!-- Generator: Sketch 54.1 (76490) - https://sketchapp.com -->
    <title>alarm</title>
    <desc>Created with Sketch.</desc>
    <g id="Page-1" stroke="none" stroke-width="1" fill="none" fill-rule="evenodd">
        <g id="home4" transform="translate(-709.000000, -723.000000)" fill="#FFFFFF">
            <g id="Group-2" transform="translate(581.000000, 721.000000)">
                <g id="alarm" transform="translate(128.000000, 2.000000)">
                    <path d="M30.4601581,10.4267782 L29.2758209,10.4267782 L28.0914837,10.4267782 C28.0914837,10.4267782 27.8940942,10.4267782 28.0520058,10.184215 C28.1507006,9.98207903 29.1376482,8.02135991 29.1376482,8.02135991 C29.1376482,8.02135991 29.236343,7.92029192 29.3350378,7.92029192 C29.4337325,7.92029192 29.5324273,8.02135991 29.5324273,8.02135991 C29.5324273,8.02135991 30.519375,9.98207903 30.6180697,10.184215 C30.6575476,10.4267782 30.4601581,10.4267782 30.4601581,10.4267782 M34.4869046,13.0947712 C34.3882098,12.8524101 30.7562424,6.20213599 30.7562424,6.20213599 C30.7562424,6.20213599 30.6575476,6 30.4206802,6 L29.236343,6 L28.0520058,6 C27.8546163,6 27.7559215,6.20213599 27.7559215,6.20213599 C27.7559215,6.20213599 24.1239541,12.8926352 24.0252593,13.0947712 C23.8870867,13.5394703 24.3608215,13.4990431 24.3608215,13.4990431 L26.0781105,13.4990431 C26.2755,13.4588181 26.3741948,13.2969072 26.3741948,13.2969072 C26.3741948,13.2969072 26.8084518,12.4481381 26.8676686,12.3470701 C27.0058413,12.2055749 27.2032308,12.2055749 27.2032308,12.2055749 L29.256082,12.2055749 L31.3089331,12.2055749 C31.3089331,12.2055749 31.5063226,12.1651477 31.6444953,12.3470701 C31.6839732,12.4481381 32.1379691,13.2969072 32.1379691,13.2969072 C32.1379691,13.2969072 32.2366639,13.4384023 32.4340534,13.4990431 L34.1513424,13.4990431 C34.0921255,13.4990431 34.5855994,13.4990431 34.4869046,13.0947712" id="Fill-1"></path>
                    <path d="M35.9120879,13.4399617 C35.706044,13.4399617 35.5,13.3005372 35.5,13.0410361 L35.5,6.39892556 C35.5,6.19946278 35.706044,6 35.9120879,6 L37.4574176,6 C37.6634615,6 37.8695055,6.19946278 37.8695055,6.39892556 L37.8695055,11.2660169 C37.8695055,11.4654796 38.0755495,11.6649424 38.2815934,11.6649424 L42.5879121,11.6649424 C42.793956,11.6649424 43,11.8644052 43,12.063868 L43,13.1010744 C43,13.3005372 42.793956,13.5 42.5879121,13.5 L35.9326923,13.5 L35.9326923,13.4399617 L35.9120879,13.4399617 Z" id="Fill-3"></path>
                    <path d="M50.5006347,10.4267782 L49.2766316,10.4267782 L48.0921124,10.4267782 C48.0921124,10.4267782 47.8946925,10.4267782 48.0526284,10.184215 C48.1513383,9.98207903 49.1384377,8.02135991 49.1384377,8.02135991 C49.1384377,8.02135991 49.2371476,7.92029192 49.3358575,7.92029192 C49.4345675,7.92029192 49.5332774,8.02135991 49.5332774,8.02135991 C49.5332774,8.02135991 50.5203767,9.98207903 50.6190866,10.184215 C50.6980546,10.4267782 50.5006347,10.4267782 50.5006347,10.4267782 M54.468774,13.0947712 C54.370064,12.8524101 50.7375385,6.20213599 50.7375385,6.20213599 C50.7375385,6.20213599 50.6388286,6 50.4019248,6 L49.2766316,6 L48.0921124,6 C47.8946925,6 47.7564986,6.20213599 47.7564986,6.20213599 C47.7564986,6.20213599 44.1239731,12.8926352 44.0252632,13.0947712 C43.8870693,13.5394703 44.360877,13.4990431 44.360877,13.4990431 L46.0784298,13.4990431 C46.2758497,13.4588181 46.3745596,13.2969072 46.3745596,13.2969072 C46.3745596,13.2969072 46.8088833,12.4481381 46.8681092,12.3470701 C47.0063031,12.2055749 47.203723,12.2055749 47.203723,12.2055749 L49.2568896,12.2055749 L51.3100561,12.2055749 C51.3100561,12.2055749 51.507476,12.1651477 51.6456699,12.3470701 C51.6851539,12.4481381 52.1392196,13.2969072 52.1392196,13.2969072 C52.1392196,13.2969072 52.2379295,13.4384023 52.4353494,13.4990431 L54.1529022,13.4990431 C54.1331602,13.4990431 54.6267098,13.4990431 54.468774,13.0947712" id="Fill-5"></path>
                    <path d="M57.7941176,8.37265416 C57.7941176,8.17158177 57.9901961,7.97050938 58.1862745,7.97050938 L61.754902,7.97050938 C61.9509804,7.97050938 62.1470588,8.11126005 62.1470588,8.37265416 L62.1470588,9.31769437 C62.1470588,9.51876676 61.9509804,9.71983914 61.754902,9.71983914 L58.1862745,9.71983914 C57.9901961,9.71983914 57.7941176,9.57908847 57.7941176,9.31769437 L57.7941176,8.37265416 Z M64.4215686,9.73994638 L64.4215686,7.44772118 C64.4215686,6.64343164 63.7941176,6 63.0098039,6 L56.6176471,6 L55.8921569,6 C55.6960784,6 55.5,6.20107239 55.5,6.40214477 L55.5,13.0978552 C55.5,13.2989276 55.6960784,13.5 55.8921569,13.5 L57.3627451,13.5 C57.5588235,13.5 57.754902,13.3592493 57.754902,13.0978552 L57.754902,11.9919571 C57.754902,11.7908847 57.8921569,11.5898123 58.1470588,11.5898123 L61.8529412,11.5898123 C62.0490196,11.5898123 62.245098,11.730563 62.245098,11.9919571 L62.245098,13.0978552 C62.245098,13.2989276 62.4411765,13.5 62.6372549,13.5 L64.1078431,13.5 C64.3039216,13.5 64.5,13.3592493 64.5,13.0978552 L64.5,11.9517426 C64.5,11.1474531 63.872549,10.5040214 63.0882353,10.5040214 L63.7156863,10.5040214 C64.0686275,10.5241287 64.4215686,10.1823056 64.4215686,9.73994638 L64.4215686,9.73994638 Z" id="Fill-7"></path>
                    <path d="M77.900968,6.0006924 L76.5032268,6.0006924 L76.263614,6.0006924 L75.0256146,6.0006924 C75.0256146,6.0006924 74.1867702,5.96048164 73.7874155,6.94564537 L72.4895129,9.94134733 C72.4895129,9.94134733 72.2898356,10.4841927 72.1502612,10.4841927 C72.0104871,10.4841927 71.8108097,9.94134733 71.8108097,9.94134733 L70.5129071,6.94564537 C70.073617,5.94037626 69.2749077,6.0006924 69.2749077,6.0006924 L68.0369084,6.0006924 L67.7970959,6.0006924 L66.3993546,6.0006924 C66.1996773,6.0006924 66,6.14143008 66,6.40280005 L66,13.0576816 C66,13.2587354 66.1399738,13.4597892 66.3993546,13.4597892 L68.0369084,13.4597892 C68.2365857,13.4597892 68.436263,13.3190516 68.436263,13.0576816 L68.436263,8.25249522 C68.436263,7.85038758 68.735779,8.35302213 68.735779,8.35302213 L70.972165,12.6957847 C71.3715196,13.5 71.7109711,13.5 71.7109711,13.5 L72.2500998,13.5 L72.7890289,13.5 C72.7890289,13.5 73.0885449,13.5 73.5280347,12.6957847 L75.7644207,8.35302213 C75.7644207,8.35302213 76.0639367,7.85038758 76.0639367,8.25249522 L76.0639367,13.0576816 C76.0639367,13.2587354 76.2037108,13.4597892 76.4632913,13.4597892 L78.1006454,13.4597892 C78.3003227,13.4597892 78.5,13.3190516 78.5,13.0576816 L78.5,6.36258929 C78.2801553,6.14143008 78.1405808,6.0006924 77.900968,6.0006924" id="Fill-9"></path>
                    <path d="M100.015748,7.84981636 C100.606299,7.84981636 101.098425,8.35248385 101.098425,8.95568483 L101.098425,10.5642208 C101.098425,11.1674218 100.606299,11.6700893 100.074803,11.6700893 L96.9448819,11.6700893 C96.3543307,11.6700893 95.8622047,11.1674218 95.9212598,10.5642208 L95.9212598,8.95568483 C95.9212598,8.35248385 96.4133858,7.84981636 97.003937,7.84981636 L100.015748,7.84981636 Z M101.787402,6 L98.5,6 L95.2127953,6 C94.2874016,6 93.5395669,6.74394788 93.5,7.70906946 L93.5,11.7505161 C93.5,12.695732 94.2285433,13.4595855 95.1732283,13.5 L98.5,13.5 L101.826772,13.5 C102.751969,13.5 103.5,12.695732 103.5,11.7505161 L103.5,7.68896276 C103.46063,6.74394788 102.712598,6 101.787402,6 L101.787402,6 Z" id="Fill-11"></path>
                    <path d="M116.400968,6.0006924 L115.003227,6.0006924 L114.763614,6.0006924 L113.525615,6.0006924 C113.525615,6.0006924 112.68677,5.96048164 112.287416,6.94564537 L110.989513,9.94134733 C110.989513,9.94134733 110.789836,10.4841927 110.650062,10.4841927 C110.510487,10.4841927 110.31081,9.94134733 110.31081,9.94134733 L109.012907,6.94564537 C108.573617,5.94037626 107.774908,6.0006924 107.774908,6.0006924 L106.536908,6.0006924 L106.297096,6.0006924 L104.899355,6.0006924 C104.699677,6.0006924 104.5,6.14143008 104.5,6.40280005 L104.5,13.0576816 C104.5,13.2587354 104.639974,13.4597892 104.899355,13.4597892 L106.536908,13.4597892 C106.736586,13.4597892 106.936263,13.3190516 106.936263,13.0576816 L106.936263,8.25249522 C106.936263,7.85038758 107.235779,8.35302213 107.235779,8.35302213 L109.472165,12.6957847 C109.87152,13.5 110.210971,13.5 110.210971,13.5 L110.7499,13.5 L111.289029,13.5 C111.289029,13.5 111.588545,13.5 112.028035,12.6957847 L114.264421,8.35302213 C114.264421,8.35302213 114.563937,7.85038758 114.563937,8.25249522 L114.563937,13.0576816 C114.563937,13.2587354 114.703711,13.4597892 114.963291,13.4597892 L116.600645,13.4597892 C116.800323,13.4597892 117,13.3190516 117,13.0576816 L117,6.36258929 C116.800323,6.14143008 116.660549,6.0006924 116.400968,6.0006924" id="Fill-13"></path>
                    <path d="M79.5,12.25 C79.5,11.5833333 80.0622917,11 80.75,11 C81.4164583,11 82,11.5622917 82,12.25 C82,12.9375 81.4375,13.5 80.75,13.5 C80.0208333,13.5 79.5,12.9164583 79.5,12.25" id="Fill-15"></path>
                    <path d="M85.3300169,8.49336443 C85.3300169,7.84991555 86.3568041,7.78959221 86.3568041,7.78959221 L89.5556409,7.78959221 C90.1480181,7.78959221 90.1875099,8.19174777 90.3454771,8.49336443 C90.4836985,8.7949811 90.6811575,8.7949811 90.6811575,8.7949811 L92.063371,8.7949811 C92.5570186,8.7949811 92.4977809,8.09120888 92.4977809,8.09120888 L92.4977809,7.24668222 C92.4977809,6 90.3849689,6 90.3849689,6 L84.9745906,6 C83,6 83,8.2520711 83,8.2520711 L83,11.24813 C83,11.24813 83,13.5 84.9745906,13.5 L90.3849689,13.5 C90.3849689,13.5 92.4977809,13.5 92.4977809,12.2535189 L92.4977809,11.4089922 C92.4977809,11.4089922 92.5372727,10.70522 92.063371,10.70522 L90.6811575,10.70522 C90.6811575,10.70522 90.4836985,10.6650044 90.3454771,11.0068366 C90.2072558,11.3084533 90.1480181,11.7106089 89.5556409,11.7106089 L86.3568041,11.7106089 C86.3568041,11.7106089 85.3300169,11.7106089 85.3300169,11.0068366 L85.3300169,8.49336443 Z" id="Fill-17"></path>
                    <path d="M118.541667,6.83333333 L118.541667,7.1875 L118.854167,7.1875 C119,7.1875 119.104167,7.14583333 119.104167,6.97916667 C119.104167,6.875 119,6.77083333 118.854167,6.77083333 L118.541667,6.77083333 L118.541667,6.83333333 Z M118.854167,6.66666667 C119.104167,6.66666667 119.3125,6.8125 119.3125,7.02083333 C119.3125,7.22916667 119.166667,7.33333333 118.958333,7.375 L119.375,7.83333333 L119.125208,7.83333333 L118.771042,7.375 L118.625,7.375 L118.625,7.79166667 L118.375,7.79166667 L118.375,6.60416667 L118.895833,6.60416667 L118.895833,6.66666667 L118.854167,6.66666667 Z M119.791667,7.25 C119.791667,6.6875 119.333542,6.27083333 118.812708,6.27083333 C118.250208,6.27083333 117.833542,6.72916667 117.833542,7.25 C117.833542,7.8125 118.291875,8.22916667 118.812708,8.22916667 C119.333542,8.22916667 119.791667,7.8125 119.791667,7.25 L119.791667,7.25 Z M120,7.25 C120,7.91666667 119.437708,8.5 118.75,8.5 C118.020833,8.5 117.5,7.9375 117.5,7.25 C117.5,6.5625 118.0625,6 118.75,6 C119.479167,6 120,6.5625 120,7.25 L120,7.25 Z" id="Fill-19"></path>
                    <path d="M11.3165796,5.72944551 L11.3165796,5.72944551 C11.0130548,5.42351816 10.5071802,5.42351816 10.2036554,5.72944551 L3,13.5 L6.07571802,12.9493308 C6.07571802,12.9493308 9.39425587,9.50254939 10.1024804,8.74792862 C10.3453003,8.50318674 10.5476501,8.44200127 10.75,8.44200127 C10.9523499,8.44200127 11.1951697,8.48279159 11.3975196,8.74792862 C12.1057441,9.46175908 15.424282,12.9493308 15.424282,12.9493308 L18.5,13.5 L11.3165796,5.72944551 Z" id="Fill-21"></path>
                    <path d="M21.08084,12.5153814 C21.08084,12.5566186 21.08084,13.3401237 20.74084,13.8968247 C20.40084,14.5153814 19.70084,14.9689897 19.60084,15.0720825 C19.56084,15.0720825 19.50084,15.1135258 19.36084,15.1751753 C14.46084,17.9174433 12.72084,18.7834227 12.08084,18.9896082 C11.68084,19.1341443 11.28084,19.1957938 10.88084,19.1957938 L10.84084,19.1957938 C10.44084,19.1957938 10.04084,19.1545567 9.64084,18.9896082 C8.80084,18.6803299 6.20084,17.3401237 2.38084,15.1957938 C2.28084,15.1547629 2.18084,15.092701 2.18084,15.092701 C2.14084,15.092701 1.44084,14.639299 0.98084,13.9176495 C0.64084,13.3609485 0.64084,12.5774433 0.64084,12.5362062 L0.64084,7.64940206 C0.64084,7.60816495 0.64084,6.82465979 0.98084,6.26795876 C1.32084,5.64940206 2.02084,5.19579381 2.12084,5.09270103 C2.16084,5.09270103 2.22084,5.05146392 2.32084,4.98960825 C6.16084,2.84548454 8.74084,1.50527835 9.58084,1.196 C9.98084,1.05146392 10.38084,0.989814433 10.78084,0.989814433 L10.92084,0.989814433 C11.32084,0.989814433 11.72084,1.03084536 12.12084,1.196 C12.96084,1.50527835 15.56084,2.84548454 19.38084,4.98960825 C19.48084,5.03084536 19.58084,5.09270103 19.58084,5.09270103 C19.62084,5.09270103 20.32084,5.60816495 20.78084,6.26795876 C21.12084,6.88651546 21.12084,7.64940206 21.12084,7.64940206 L21.08084,12.5153814 Z M21.82084,12.5153814 L21.82084,7.64940206 C21.82084,7.54630928 21.82084,6.61847423 21.38084,5.79373196 C20.84084,4.86589691 19.94084,4.35043299 19.94084,4.30919588 C19.90084,4.30919588 19.64084,4.16486598 19.30084,3.95868041 C17.60084,3.03084536 13.62084,0.824659794 12.38084,0.371257732 C11.88084,0.226721649 11.44084,0.123628866 10.94084,0.123628866 L10.90084,0.123628866 C10.46084,0.123628866 9.96084,0.226721649 9.46084,0.371257732 C8.22084,0.824659794 4.24084,3.03084536 2.54084,3.95868041 C2.20084,4.16486598 1.94084,4.30919588 1.84084,4.30919588 C1.80084,4.30919588 0.90084,4.86589691 0.40084,5.75249485 C0.00084,6.61847423 0.00084,7.60816495 0.00084,7.60816495 L0.00084,12.4743505 C0.00084,12.5153814 -0.03916,13.5052784 0.44084,14.3300206 C0.98084,15.2578557 1.88084,15.7733196 1.88084,15.8143505 C1.92084,15.8555876 2.18084,15.9586804 2.52084,16.164866 C4.22084,17.092701 8.14084,19.2988866 9.44084,19.752701 C9.94084,19.8970309 10.38084,20.0001237 10.88084,20.0001237 L10.92084,20.0001237 C11.36084,20.0001237 11.86084,19.8970309 12.36084,19.752701 C13.60084,19.2988866 17.58084,17.092701 19.28084,16.164866 C19.62084,15.9586804 19.88084,15.8143505 19.98084,15.8143505 C20.02084,15.8143505 20.92084,15.2578557 21.42084,14.3710515 C21.88084,13.5052784 21.82084,12.5153814 21.82084,12.5153814 L21.82084,12.5153814 Z" id="Fill-23"></path>
                    <path d="M16.25,5 C16.9404167,5 17.5,5.55979167 17.5,6.25 C17.5,6.94041667 16.9404167,7.5 16.25,7.5 C15.5597917,7.5 15,6.94041667 15,6.25 C15,5.55979167 15.5597917,5 16.25,5" id="Fill-26"></path>
                </g>
            </g>
        </g>
    </g>
</svg>