<?xml version="1.0" encoding="UTF-8"?>
<svg width="63px" height="20px" viewBox="0 0 63 20" version="1.1" xmlns="http://www.w3.org/2000/svg" xmlns:xlink="http://www.w3.org/1999/xlink">
    <!-- Generator: Sketch 54.1 (76490) - https://sketchapp.com -->
    <title>brllnt</title>
    <desc>Created with Sketch.</desc>
    <g id="Page-1" stroke="none" stroke-width="1" fill="none" fill-rule="evenodd">
        <g id="home4" transform="translate(-1089.000000, -723.000000)" fill="#FFFFFF">
            <g id="Group-2" transform="translate(581.000000, 721.000000)">
                <g id="brllnt" transform="translate(508.000000, 2.000000)">
                    <path d="M1.38269764,9.70645635 C1.51072873,9.70655458 1.54114225,9.61637701 1.58617388,9.55714273 C2.51005803,8.3396473 3.79861005,7.74602741 5.24864803,7.48806848 C6.64502088,7.23973635 8.02265507,7.41174171 9.30669412,8.01616719 C10.3460515,8.50546401 11.1580924,9.27639382 11.7256479,10.2979151 C12.4250607,11.55657 12.6484528,12.9166993 12.5489712,14.3230961 C12.4609682,15.5679002 12.035179,16.7048448 11.2376581,17.6958158 C10.1417904,19.0574185 8.72530541,19.7874835 7.00134956,19.9530055 C6.98506362,19.9545773 6.96867956,19.9545773 6.95239361,19.9565419 C6.17733948,20.0521223 6.17733948,20.0521223 6.17900732,19.2901316 C6.17920353,19.2083039 6.17606407,19.1262796 6.18018462,19.0446483 C6.19715732,18.7093802 6.21913354,18.6818751 6.54573546,18.6633091 C7.51259097,18.6083971 8.39909592,18.3296128 9.19671492,17.7650698 C10.2090926,17.0484626 10.8085332,16.0636803 11.0676367,14.8714307 C11.3019189,13.7934256 11.2035165,12.7239668 10.8362978,11.6865318 C10.2375439,9.99526033 9.02198436,9.09682454 7.25907959,8.83051584 C6.23954003,8.67648705 5.2700356,8.80694 4.32515632,9.13277769 C2.65878993,9.70743868 1.60913118,11.1050928 1.46599143,12.9245579 C1.3012679,15.0167168 1.43047629,17.1090722 1.38475791,19.2007399 C1.37053223,19.8502542 1.38152034,19.8518259 0.745583522,19.8513348 C-0.0500733162,19.8507454 0.000648580864,19.9141054 0.000648580864,19.1104641 C0.000648580864,12.9895879 0.000550472746,6.86861341 0.000746688982,0.747737159 C0.000746688982,-0.00177793884 0.00133533769,-0.00177793884 0.767461632,0.000186714104 C0.865471642,0.000481412045 0.963677868,0.00441071793 1.06158977,0.00175843646 C1.28871006,-0.00433198767 1.39005575,0.106474438 1.38191278,0.331230735 C1.37720359,0.461978389 1.38259953,0.59302074 1.38259953,0.723964859 C1.38269764,3.5389196 1.38269764,6.35397257 1.38269764,9.16882907 L1.38269764,9.70645635 Z" id="Fill-1"></path>
                    <path d="M42.4974686,9.59012472 C42.895808,9.0595605 43.3202832,8.59888217 43.8475456,8.22573272 C44.4735665,7.78289342 45.2004118,7.57480404 45.9551492,7.49266607 C47.1452087,7.36308804 48.3279336,7.39131684 49.4241932,7.94501299 C50.8839789,8.68219634 51.6629926,9.8540836 51.9091655,11.391181 C52.0057545,11.9941795 51.9958374,12.5932574 51.9972836,13.1951777 C52.0019323,15.2030491 51.9990398,17.2109205 51.9990398,19.21889 C51.9990398,19.3331774 52.0016224,19.4474648 51.9983167,19.5616542 C51.9860235,19.9739123 51.9699081,19.9944958 51.5166112,19.9975344 C50.4780983,20.0044935 50.5476218,20.0509534 50.548035,19.1122478 C50.549068,16.8105225 50.5311965,14.508601 50.5542332,12.2070717 C50.5683858,10.7880844 49.4742956,9.086025 47.6721612,8.78119317 C46.1792151,8.52860422 44.8262456,8.7660986 43.7539524,9.8493788 C43.0627469,10.5475515 42.7322781,11.4214681 42.599946,12.3636043 C42.5433355,12.7668449 42.4631718,13.1683211 42.4957125,13.5786189 C42.5157534,13.8308158 42.3834213,13.9339293 42.1248519,13.9249118 C41.9015091,13.9169724 41.6775466,13.9206971 41.4539972,13.9219713 C41.2373692,13.9231475 41.1423297,13.8172895 41.1451189,13.6182176 C41.1464619,13.520299 41.1429495,13.4223803 41.1429495,13.3244617 C41.1428462,11.626617 41.1427429,9.92896834 41.1431561,8.23122166 C41.1431561,8.11703224 41.1457387,8.00274481 41.1503874,7.88865341 C41.1568955,7.72957236 41.2530714,7.65605986 41.4141219,7.64792447 C41.4312704,7.64704232 41.4485221,7.64674827 41.4655672,7.64498397 C42.4595561,7.54089027 42.4974686,7.57362784 42.4974686,8.53781779 L42.4974686,9.59012472 Z" id="Fill-4"></path>
                    <path d="M29.1423809,9.99922843 L29.1423809,19.1600467 C29.1423809,19.2750051 29.1436,19.3899636 29.1421371,19.5048235 C29.1358791,19.9851469 29.1304338,19.9941111 28.7259363,19.9980514 C27.9470126,20.0056364 28.0007343,20.0335141 28.0008155,19.1110884 C28.0013845,12.9874583 28.0010594,6.86382814 28.0012219,0.740198014 C28.0012219,-0.000284060064 28.0018721,-0.000284060064 28.6038638,1.14629141e-05 C29.1412431,0.000208478232 29.1421371,0.000208478232 29.1422184,0.641394832 C29.1425435,3.76063986 29.1423809,6.8799834 29.1423809,9.99922843" id="Fill-6"></path>
                    <path d="M57.1443575,11.698408 C57.1443575,9.1763022 57.1443575,6.65429156 57.1443575,4.13228092 C57.1443575,4.02128313 57.1401082,3.90999975 57.1459121,3.79919236 C57.1629092,3.47295786 57.1883013,3.43459413 57.5323896,3.43269022 C58.6717158,3.42659772 58.4969769,3.34863272 58.5038172,4.26127063 C58.5119012,5.35573167 58.5030918,6.45019271 58.5070301,7.54465375 C58.5086884,7.98417072 58.5218508,7.99578456 59.0034708,7.99740288 C60.091391,8.0010203 61.1794148,7.99730768 62.267335,7.99911639 C62.8515597,8.00006835 62.8515597,8.00244823 62.8562235,8.51774071 C62.8619238,9.15231297 62.8619238,9.15316973 62.1873241,9.15364571 C61.1339164,9.15431207 60.0805087,9.1517418 59.0271009,9.15469285 C58.5129377,9.15621598 58.5069265,9.16040458 58.5067192,9.63266875 C58.5048536,12.8526518 58.506201,16.0726348 58.5052682,19.2926178 C58.5050609,20.0232422 58.5806153,20.002204 57.7581198,19.9993481 C57.1464303,19.9971586 57.144772,19.9967779 57.1446684,19.407233 C57.1440465,16.8376247 57.1443575,14.2680164 57.1443575,11.698408" id="Fill-8"></path>
                    <path d="M34.8573284,9.96594125 C34.8573284,6.88745275 34.8572413,3.80896425 34.8575026,0.730475748 C34.8575026,0.5830945 34.8588962,0.435713252 34.8633384,0.288528643 C34.8682161,0.130725505 34.946695,0.0528562932 35.0836193,0.0444007979 C35.0980782,0.0435159205 35.1126242,0.0431226417 35.126996,0.0412545672 C35.9616941,-0.0657172795 35.9994092,-0.0271759524 35.9994092,0.934882429 C35.9994092,7.05921729 35.9993221,13.1834538 35.9994092,19.307592 C35.9994963,20.0258175 36.0423505,20.0018275 35.3809853,19.9993695 C35.3519804,19.9992712 35.3229754,19.9997628 35.2939705,19.9991729 C34.8691743,19.9911107 34.8585478,19.9850149 34.8581994,19.4961693 C34.8565445,16.319361 34.8573284,13.1426511 34.8573284,9.96594125" id="Fill-11"></path>
                    <path d="M18.0301709,9.60122916 C18.3856833,9.05299868 18.7438525,8.62737869 19.2431434,8.30535981 C19.7849446,7.95577733 20.3712998,7.7331775 21.007114,7.59203287 C21.6918763,7.44005288 22.3837918,7.41914257 23.0816342,7.43159371 C23.3115574,7.43568073 23.4313218,7.51713591 23.4266211,7.74030602 C23.4219205,7.96167024 23.4339787,8.18350969 23.4253949,8.40477886 C23.4128257,8.72736802 23.3299512,8.79257019 22.9914021,8.76063443 C22.0416661,8.67091016 21.1383235,8.81310032 20.2906734,9.22883543 C19.1182696,9.80377409 18.4368795,10.7256339 18.1162133,11.9008888 C18.0150471,12.2717617 18.0007408,12.6490979 18.0052371,13.0298558 C18.0140252,13.7716017 18.043251,13.7122925 17.2480234,13.7136231 C17.1289743,13.7138132 17.0099252,13.7102965 16.8908761,13.7117222 C16.6829233,13.7140984 16.5728668,13.6258949 16.5749105,13.4270567 C16.5759324,13.3321999 16.5723558,13.2372481 16.5723558,13.1422963 C16.5721515,11.4965593 16.5722536,9.85091735 16.5722536,8.20527543 C16.5722536,8.12610137 16.5770565,8.04683226 16.5725602,7.96794333 C16.5590714,7.73232208 16.6654492,7.61313328 16.9304229,7.62187759 C17.1683167,7.62967144 17.407028,7.62967144 17.6448197,7.62159245 C17.9064212,7.61275309 18.012799,7.72386291 18.0082005,7.96319099 C18.0005364,8.35858607 18.0054414,8.75426629 18.0079961,9.14985146 C18.0088136,9.27056102 18.0195434,9.39136562 18.0301709,9.60122916" id="Fill-13"></path>
                </g>
            </g>
        </g>
    </g>
</svg>