<?xml version="1.0" encoding="UTF-8"?>
<svg width="174px" height="14px" viewBox="0 0 174 14" version="1.1" xmlns="http://www.w3.org/2000/svg" xmlns:xlink="http://www.w3.org/1999/xlink">
    <!-- Generator: Sketch 54.1 (76490) - https://sketchapp.com -->
    <title>INTERMISSION</title>
    <desc>Created with Sketch.</desc>
    <g id="Page-1" stroke="none" stroke-width="1" fill="none" fill-rule="evenodd">
        <g id="home4" transform="translate(-488.000000, -681.000000)" fill="#FFFFFF" fill-rule="nonzero">
            <path d="M488,681.277228 L491.287129,681.277228 L491.287129,694.70297 L488,694.70297 L488,681.277228 Z M496.906491,681.277228 L499.015402,681.277228 L506.668867,689.811881 L506.668867,681.277228 L508.728273,681.277228 L508.728273,694.90099 L507.312431,694.90099 L498.9956,685.475248 L498.9956,694.70297 L496.906491,694.70297 L496.906491,681.277228 Z M525.733773,681.277228 L525.733773,682.425743 L521.090209,682.425743 L521.090209,694.70297 L517.80308,694.70297 L517.80308,682.425743 L513.149615,682.425743 L513.149615,681.277228 L525.733773,681.277228 Z M540.174917,681.277228 L540.174917,682.425743 L533.442244,682.425743 L533.442244,686.851485 L539.036304,686.851485 L539.036304,688 L533.442244,688 L533.442244,693.326733 L540.174917,693.326733 L540.174917,694.70297 L530.145215,694.70297 L530.145215,681.277228 L540.174917,681.277228 Z M544.526953,681.277228 L549.576458,681.277228 C550.447749,681.277228 551.208468,681.367986 551.858636,681.549505 C552.508804,681.731024 553.050053,681.985147 553.482398,682.311881 C553.914744,682.638615 554.239823,683.0264 554.457646,683.475248 C554.675469,683.924095 554.784378,684.412539 554.784378,684.940594 C554.784378,685.323434 554.710122,685.684817 554.561606,686.024752 C554.413091,686.364688 554.205172,686.678216 553.937844,686.965347 C553.670516,687.252477 553.347087,687.5066 552.967547,687.727723 C552.588007,687.948846 552.170519,688.132012 551.715072,688.277228 L556.49725,694.70297 L552.913091,694.70297 L548.408141,688.633663 L547.823982,688.633663 L547.823982,694.70297 L544.526953,694.70297 L544.526953,681.277228 Z M547.823982,687.455446 L548.536854,687.455446 C548.939496,687.455446 549.31243,687.39934 549.655666,687.287129 C549.998902,687.174917 550.295928,687.014853 550.546755,686.806931 C550.797581,686.599009 550.993949,686.343236 551.135864,686.039604 C551.277778,685.735972 551.348735,685.392741 551.348735,685.009901 C551.348735,684.653464 551.29428,684.326734 551.185369,684.029703 C551.076457,683.732672 550.926294,683.476899 550.734873,683.262376 C550.543453,683.047854 550.312433,682.881189 550.041804,682.762376 C549.771176,682.643564 549.477449,682.584158 549.160616,682.584158 L547.823982,682.584158 L547.823982,687.455446 Z M559.9978,681.277228 L563.205721,681.277228 L567.849285,690.445545 L572.423542,681.277228 L575.562156,681.277228 L575.562156,694.70297 L572.275028,694.70297 L572.275028,685.950495 L567.888889,694.70297 L566.621562,694.70297 L562.086909,685.851485 L562.086909,694.70297 L559.9978,694.70297 L559.9978,681.277228 Z M581.191419,681.277228 L584.478548,681.277228 L584.478548,694.70297 L581.191419,694.70297 L581.191419,681.277228 Z M594.870187,694.90099 C594.064902,694.90099 593.360289,694.806932 592.756326,694.618812 C592.152362,694.430692 591.639166,694.171619 591.216722,693.841584 C590.794277,693.51155 590.457647,693.117164 590.206821,692.658416 C589.955994,692.199668 589.784379,691.696372 589.691969,691.148515 L591.979098,691.148515 C592.058306,691.48515 592.173817,691.798678 592.325633,692.089109 C592.477449,692.379539 592.670516,692.632012 592.90484,692.846535 C593.139165,693.061057 593.41639,693.229372 593.736524,693.351485 C594.056657,693.473598 594.427941,693.534653 594.850385,693.534653 C595.127614,693.534653 595.403189,693.504951 595.677118,693.445545 C595.951046,693.386138 596.196919,693.28878 596.414741,693.153465 C596.632564,693.018151 596.80748,692.843235 596.939494,692.628713 C597.071508,692.41419 597.137514,692.148516 597.137514,691.831683 C597.137514,691.435642 597.035205,691.08251 596.830583,690.772277 C596.625962,690.462045 596.355337,690.179869 596.018702,689.925743 C595.682067,689.671616 595.299232,689.435645 594.870187,689.217822 C594.441142,688.999999 594.002202,688.780529 593.553355,688.559406 C593.104508,688.338283 592.665569,688.105612 592.236524,687.861386 C591.807479,687.61716 591.424644,687.344886 591.088009,687.044554 C590.751373,686.744223 590.480749,686.404292 590.276128,686.024752 C590.071506,685.645213 589.969197,685.211224 589.969197,684.722772 C589.969197,684.188116 590.086357,683.694722 590.320682,683.242574 C590.555007,682.790427 590.893287,682.397691 591.335534,682.064356 C591.77778,681.731021 592.319029,681.470298 592.959296,681.282178 C593.599563,681.094058 594.328929,681 595.147415,681 C595.820685,681 596.43124,681.092408 596.979098,681.277228 C597.526955,681.462047 598.010449,681.71782 598.429593,682.044554 C598.848737,682.371289 599.200219,682.754123 599.484048,683.193069 C599.767878,683.632015 599.985698,684.102308 600.137514,684.60396 L598.068207,684.60396 C597.949394,684.287127 597.810782,683.9835 597.652365,683.693069 C597.493949,683.402639 597.299231,683.148516 597.068207,682.930693 C596.837183,682.71287 596.556657,682.539605 596.226623,682.410891 C595.896588,682.282178 595.503853,682.217822 595.048405,682.217822 C594.61936,682.217822 594.257977,682.273927 593.964246,682.386139 C593.670516,682.49835 593.434544,682.641913 593.256326,682.816832 C593.078107,682.99175 592.949395,683.186468 592.870187,683.40099 C592.790979,683.615513 592.751375,683.825081 592.751375,684.029703 C592.751375,684.38614 592.856985,684.70957 593.068207,685 C593.279429,685.29043 593.558304,685.561055 593.90484,685.811881 C594.251377,686.062708 594.645762,686.301979 595.088009,686.529703 C595.530255,686.757427 595.980746,686.986798 596.439494,687.217822 C596.898242,687.448846 597.348733,687.691418 597.790979,687.945545 C598.233226,688.199671 598.627611,688.478546 598.974147,688.782178 C599.320684,689.08581 599.599559,689.42244 599.810781,689.792079 C600.022003,690.161718 600.127613,690.577555 600.127613,691.039604 C600.127613,691.587461 600.015403,692.095707 599.790979,692.564356 C599.566556,693.033006 599.233226,693.440592 598.790979,693.787129 C598.348733,694.133665 597.799233,694.40594 597.142464,694.60396 C596.485695,694.801981 595.728277,694.90099 594.870187,694.90099 Z M610.143014,694.90099 C609.33773,694.90099 608.633116,694.806932 608.029153,694.618812 C607.425189,694.430692 606.911993,694.171619 606.489549,693.841584 C606.067105,693.51155 605.730474,693.117164 605.479648,692.658416 C605.228822,692.199668 605.057206,691.696372 604.964796,691.148515 L607.251925,691.148515 C607.331134,691.48515 607.446644,691.798678 607.59846,692.089109 C607.750276,692.379539 607.943343,692.632012 608.177668,692.846535 C608.411992,693.061057 608.689217,693.229372 609.009351,693.351485 C609.329485,693.473598 609.700768,693.534653 610.123212,693.534653 C610.400441,693.534653 610.676016,693.504951 610.949945,693.445545 C611.223874,693.386138 611.469746,693.28878 611.687569,693.153465 C611.905392,693.018151 612.080307,692.843235 612.212321,692.628713 C612.344335,692.41419 612.410341,692.148516 612.410341,691.831683 C612.410341,691.435642 612.308032,691.08251 612.10341,690.772277 C611.898789,690.462045 611.628164,690.179869 611.291529,689.925743 C610.954894,689.671616 610.572059,689.435645 610.143014,689.217822 C609.713969,688.999999 609.27503,688.780529 608.826183,688.559406 C608.377335,688.338283 607.938396,688.105612 607.509351,687.861386 C607.080306,687.61716 606.697471,687.344886 606.360836,687.044554 C606.024201,686.744223 605.753576,686.404292 605.548955,686.024752 C605.344333,685.645213 605.242024,685.211224 605.242024,684.722772 C605.242024,684.188116 605.359185,683.694722 605.593509,683.242574 C605.827834,682.790427 606.166114,682.397691 606.608361,682.064356 C607.050607,681.731021 607.591856,681.470298 608.232123,681.282178 C608.87239,681.094058 609.601756,681 610.420242,681 C611.093513,681 611.704068,681.092408 612.251925,681.277228 C612.799783,681.462047 613.283276,681.71782 613.70242,682.044554 C614.121564,682.371289 614.473046,682.754123 614.756876,683.193069 C615.040705,683.632015 615.258525,684.102308 615.410341,684.60396 L613.341034,684.60396 C613.222222,684.287127 613.083609,683.9835 612.925193,683.693069 C612.766776,683.402639 612.572058,683.148516 612.341034,682.930693 C612.11001,682.71287 611.829485,682.539605 611.49945,682.410891 C611.169415,682.282178 610.77668,682.217822 610.321232,682.217822 C609.892187,682.217822 609.530805,682.273927 609.237074,682.386139 C608.943343,682.49835 608.707372,682.641913 608.529153,682.816832 C608.350934,682.99175 608.222223,683.186468 608.143014,683.40099 C608.063806,683.615513 608.024202,683.825081 608.024202,684.029703 C608.024202,684.38614 608.129812,684.70957 608.341034,685 C608.552256,685.29043 608.831131,685.561055 609.177668,685.811881 C609.524204,686.062708 609.91859,686.301979 610.360836,686.529703 C610.803083,686.757427 611.253573,686.986798 611.712321,687.217822 C612.171069,687.448846 612.62156,687.691418 613.063806,687.945545 C613.506053,688.199671 613.900438,688.478546 614.246975,688.782178 C614.593511,689.08581 614.872386,689.42244 615.083608,689.792079 C615.294831,690.161718 615.40044,690.577555 615.40044,691.039604 C615.40044,691.587461 615.28823,692.095707 615.063806,692.564356 C614.839383,693.033006 614.506053,693.440592 614.063806,693.787129 C613.62156,694.133665 613.07206,694.40594 612.415292,694.60396 C611.758523,694.801981 611.001104,694.90099 610.143014,694.90099 Z M620.643564,681.277228 L623.930693,681.277228 L623.930693,694.70297 L620.643564,694.70297 L620.643564,681.277228 Z M636.837184,695 C635.75467,695 634.744779,694.825084 633.807481,694.475248 C632.870182,694.125411 632.058309,693.635317 631.371837,693.00495 C630.685365,692.374584 630.145767,691.625417 629.753025,690.757426 C629.360284,689.889435 629.163916,688.937299 629.163916,687.90099 C629.163916,686.884483 629.360284,685.952149 629.753025,685.10396 C630.145767,684.255771 630.685365,683.528056 631.371837,682.920792 C632.058309,682.313528 632.870182,681.841586 633.807481,681.50495 C634.744779,681.168315 635.75467,681 636.837184,681 C637.919697,681 638.927938,681.169965 639.861936,681.509901 C640.795934,681.849837 641.607807,682.323429 642.29758,682.930693 C642.987352,683.537957 643.530251,684.262372 643.926293,685.10396 C644.322334,685.945549 644.520352,686.867982 644.520352,687.871287 C644.520352,688.584162 644.431244,689.255772 644.253025,689.886139 C644.074807,690.516505 643.820684,691.095707 643.490649,691.623762 C643.160614,692.151818 642.764579,692.62376 642.30253,693.039604 C641.840482,693.455448 641.323985,693.808579 640.753025,694.09901 C640.182065,694.38944 639.56656,694.61221 638.906491,694.767327 C638.246421,694.922443 637.556659,695 636.837184,695 Z M636.837184,693.871287 C637.490652,693.871287 638.068204,693.721124 638.569857,693.420792 C639.07151,693.120461 639.490647,692.706273 639.827283,692.178218 C640.163918,691.650162 640.419691,691.021456 640.594609,690.292079 C640.769528,689.562703 640.856986,688.765681 640.856986,687.90099 C640.856986,687.049501 640.769528,686.270631 640.594609,685.564356 C640.419691,684.858082 640.163918,684.250828 639.827283,683.742574 C639.490647,683.234321 639.07151,682.838285 638.569857,682.554455 C638.068204,682.270626 637.490652,682.128713 636.837184,682.128713 C636.177114,682.128713 635.596262,682.270626 635.094609,682.554455 C634.592957,682.838285 634.173819,683.234321 633.837184,683.742574 C633.500548,684.250828 633.246426,684.858082 633.074807,685.564356 C632.903189,686.270631 632.817382,687.049501 632.817382,687.90099 C632.817382,688.765681 632.903189,689.562703 633.074807,690.292079 C633.246426,691.021456 633.500548,691.650162 633.837184,692.178218 C634.173819,692.706273 634.592957,693.120461 635.094609,693.420792 C635.596262,693.721124 636.177114,693.871287 636.837184,693.871287 Z M649.723872,681.277228 L651.832783,681.277228 L659.486249,689.811881 L659.486249,681.277228 L661.545655,681.277228 L661.545655,694.90099 L660.129813,694.90099 L651.812981,685.475248 L651.812981,694.70297 L649.723872,694.70297 L649.723872,681.277228 Z" id="INTERMISSION"></path>
        </g>
    </g>
</svg>