<?xml version="1.0" encoding="UTF-8"?>
<svg width="80px" height="20px" viewBox="0 0 80 20" version="1.1" xmlns="http://www.w3.org/2000/svg" xmlns:xlink="http://www.w3.org/1999/xlink">
    <!-- Generator: Sketch 54.1 (76490) - https://sketchapp.com -->
    <title>mica</title>
    <desc>Created with Sketch.</desc>
    <g id="Page-1" stroke="none" stroke-width="1" fill="none" fill-rule="evenodd">
        <g id="home4" transform="translate(-1260.000000, -723.000000)" fill="#FFFFFF">
            <g id="Group-2" transform="translate(581.000000, 721.000000)">
                <g id="mica" transform="translate(679.000000, 2.000000)">
                    <path d="M-2.84217094e-13,6.58802067 L-2.84217094e-13,3.41741773 L9.95291136,3.41741773 C10.316129,4.42764007 10.6661516,5.40091793 11.0762648,6.54149154 C11.5384445,5.43402855 11.9410686,4.46928974 12.349577,3.49060962 L20.9334236,3.49060962 L20.9334236,6.70077103 C20.5488088,6.76141574 20.1518906,6.82380311 19.6775858,6.89838913 L19.6775858,12.9802866 C20.087699,13.037446 20.4610803,13.0893774 20.9311056,13.1550758 L20.9311056,16.3431054 L12.4836662,16.3431054 L12.4836662,13.2740998 C12.8613269,13.2249566 13.2313203,13.1768591 13.7034853,13.1155173 L13.7034853,8.36884904 C12.8081905,11.0706754 11.9344711,13.7069775 11.0536194,16.3650629 L8.50931305,16.3650629 C7.63202752,13.7892312 6.75599016,11.2163621 5.87977448,8.64349289 C5.83305725,8.65220621 5.78651832,8.66091953 5.73980108,8.66963285 L5.73980108,12.953101 C6.20822163,13.0039868 6.61191562,13.047902 7.09014323,13.0998333 L7.09014323,16.2205961 L0.0137298752,16.2205961 L0.0137298752,13.069511 C0.427230922,12.9916139 0.849469163,12.9121484 1.32395225,12.8227498 L1.32395225,6.7434663 C0.916870369,6.69571731 0.516742576,6.64866538 -2.84217094e-13,6.58802067 Z M54.3665614,11.0808177 L58.038144,11.0808177 C58.4903383,13.0430574 57.5326349,15.1816547 55.7070964,16.0529867 C52.8917588,17.3969292 50.0266726,17.3148497 47.2172192,16.0041921 C46.08709,15.4768619 45.2786321,14.5860121 44.7526174,13.4644335 C43.494105,10.7812537 43.7670977,5.73240748 47.7928041,4.10998727 C50.151668,3.15918978 52.4855685,3.11980557 54.4380637,5.3453618 C54.4835328,4.79311157 54.5179466,4.37783473 54.5577097,3.89337413 L58.1012657,3.89337413 L58.1012657,9.84648873 L54.323232,9.84648873 C54.2503032,9.37492384 54.1993065,8.98421856 54.1281608,8.59717288 C53.9329113,7.53223089 53.3138187,6.89842399 52.4406343,6.85660005 C51.4923814,6.81111652 50.69801,7.36632928 50.5812169,8.47971733 C50.450159,9.7283361 50.4665636,11.0198244 50.6405942,12.2628667 C50.7983986,13.3905446 51.6690867,13.9593501 52.621619,13.8666404 C53.6886265,13.7627776 54.2417443,13.1185147 54.3205574,11.8866255 C54.3351788,11.6581623 54.3467689,11.4293505 54.3665614,11.0808177 Z M69.7024397,10.3704904 L70.9277865,10.3704904 C70.7232648,9.67481889 70.5472728,9.0767366 70.3074458,8.26116983 C70.075286,9.07098581 69.9035734,9.66941663 69.7024397,10.3704904 Z M68.5038394,3.86913368 L74.5275101,3.86913368 C75.5898815,7.05855738 76.6424458,10.2187043 77.6868079,13.3542797 C78.2754094,13.4079538 78.7413336,13.450649 79.2857143,13.500315 L79.2857143,16.6885188 L70.6191318,16.6885188 L70.6191318,13.5370852 C70.9536414,13.4738265 71.263901,13.4150987 71.6795417,13.3365046 C71.5746954,12.937086 71.4762682,12.5615419 71.365716,12.1399914 L69.2349107,12.1399914 C69.1147297,12.4869558 68.9863465,12.8574462 68.8301468,13.3084477 C69.268433,13.3880874 69.6305807,13.4537858 70.0608429,13.5320315 L70.0608429,16.695838 L64.1011855,16.695838 L64.1011855,13.5283719 C64.4870485,13.461105 64.803014,13.4060368 65.2051032,13.3359818 C66.2920813,10.2166131 67.3885099,7.07005897 68.5038394,3.86913368 Z M37.256266,3.69559919 L37.256266,6.83605404 C36.7992573,6.88868249 36.3684602,6.93799989 35.8800689,6.99411367 L35.8800689,13.1453692 C36.2976711,13.1992175 36.6965507,13.2506261 37.1845854,13.3135362 L37.1845854,16.5263116 L28.4495318,16.5263116 L28.4495318,13.3278261 C28.9445205,13.2675299 29.3458965,13.2185611 29.8128906,13.1614017 L29.8128906,7.03419494 C29.4024208,6.96884504 29.004611,6.9052378 28.5326243,6.83012898 L28.5326243,3.69559919 L37.256266,3.69559919 Z M24.4090435,19.6428571 L24.4090435,0.357142857 L24.9439737,0.357142857 L24.9439737,19.6428571 L24.4090435,19.6428571 Z M40.4148684,19.6428571 L40.4148684,0.357142857 L40.9497986,0.357142857 L40.9497986,19.6428571 L40.4148684,19.6428571 Z M59.4421218,19.2027648 L58.9362561,19.0325065 L65.3600546,0.797270085 L65.8659203,0.96752836 L59.4421218,19.2027648 Z" id="Combined-Shape"></path>
                </g>
            </g>
        </g>
    </g>
</svg>