<?xml version="1.0" encoding="UTF-8"?>
<svg width="96px" height="12px" viewBox="0 0 96 12" version="1.1" xmlns="http://www.w3.org/2000/svg" xmlns:xlink="http://www.w3.org/1999/xlink">
    <!-- Generator: Sketch 52.1 (67048) - http://www.bohemiancoding.com/sketch -->
    <title>Group 7</title>
    <desc>Created with Sketch.</desc>
    <g id="Page-1" stroke="none" stroke-width="1" fill="none" fill-rule="evenodd">
        <g id="home4" transform="translate(-581.000000, -727.000000)" fill="#A7C5C5">
            <g id="Group-2" transform="translate(581.000000, 721.000000)">
                <g id="Group-7" transform="translate(0.000000, 6.000000)">
                    <path d="M84.0440229,9.90516 C82.2856919,9.90516 80.7985197,8.72298857 80.3443585,7.11053143 L90.1119116,7.11053143 L91.4579302,5.01636 L80.3416143,5.01584571 C80.7962901,3.39910286 82.2815756,2.21401714 84.0440229,2.21401714 L90.7485605,2.21487429 L92.0956082,0.120702857 L83.8874334,0.120702857 C80.6081425,0.120702857 77.9459483,2.77956 77.9459483,6.05984571 C77.9459483,9.34047429 80.6081425,11.9977886 83.8874334,11.9977886 L90.9385948,11.9977886 L92.2815261,9.90516 L84.0440229,9.90516 Z M56.090984,11.9977886 C52.8108355,11.9977886 50.1488129,9.34047429 50.1488129,6.05984571 C50.1488129,2.77956 52.8108355,0.120702857 56.090984,0.120702857 L64.2989873,0.120702857 L62.9539978,2.21487429 L56.2453439,2.21401714 C54.1194647,2.21401714 52.3968079,3.93584571 52.3968079,6.05984571 C52.3968079,8.18401714 54.1194647,9.90516 56.2453439,9.90516 L64.4842192,9.90516 L63.1419739,11.9977886 L56.090984,11.9977886 Z M12.695435,9.90516 C14.8202851,9.90516 16.5415698,8.18401714 16.5415698,6.05984571 C16.5415698,3.93584571 14.8202851,2.21487429 12.695435,2.21487429 L6.09517609,2.21401714 C3.97084049,2.21401714 2.24818371,3.93584571 2.24818371,6.05984571 C2.24818371,8.18401714 3.97084049,9.90516 6.09517609,9.90516 L12.695435,9.90516 Z M5.94218825,11.9977886 C2.66152529,11.9977886 1.71511029e-05,9.34047429 1.71511029e-05,6.05984571 C1.71511029e-05,2.77956 2.66152529,0.120702857 5.94218825,0.120702857 L12.8491089,0.120702857 C16.1304579,0.120702857 18.7905939,2.77956 18.7905939,6.05984571 C18.7905939,9.34133143 16.1304579,12.0000171 12.8491089,12.0000171 L5.94218825,11.9977886 Z M30.0062146,8.15247429 C32.2241953,8.15247429 34.0233459,6.35367429 34.0233459,4.13676 C34.0233459,1.91898857 32.2241953,0.120702857 30.0062146,0.120702857 L20.0060926,0.120702857 L20.0060926,11.9977886 L22.2897619,11.9977886 L22.2897619,2.21401714 L29.848939,2.21401714 C30.913508,2.21401714 31.7715777,3.07373143 31.7715777,4.13676 C31.7715777,5.19790286 30.913508,6.05984571 29.848939,6.05984571 L23.4090429,6.05778857 L30.2284929,11.9977886 L33.5484319,11.9977886 L28.9599974,8.15058857 L30.0062146,8.15247429 Z M67.8113616,9.90361714 L67.8113616,0.120702857 L65.5247766,0.120702857 L65.5247766,10.8600171 C65.5247766,11.1574457 65.6455203,11.4409886 65.857851,11.6533886 C66.0818444,11.8747029 66.3770149,11.9977886 66.6951678,11.9977886 L77.1156634,11.9977886 L78.4601384,9.90361714 L67.8113616,9.90361714 Z M39.8353402,7.80738857 L45.9329003,7.80738857 L42.7120947,2.61858857 L36.7985659,11.9977886 L34.1034416,12.0000171 L41.3021025,0.736817143 C41.6072206,0.27876 42.1344455,0.00344571429 42.7078069,0.00344571429 C43.2741363,0.00344571429 43.7939862,0.270874286 44.1006479,0.71676 L51.3236634,12.0000171 L48.6269955,11.9977886 L47.3621017,9.90156 L41.1832454,9.90156 L39.8353402,7.80738857 Z" id="Fill-1"></path>
                    <path d="M94.3710954,1.2381 C94.4671739,1.23676667 94.5740497,1.22976667 94.6364549,1.1471 C94.6624418,1.11093333 94.6732392,1.07193333 94.6732392,1.02193333 C94.6732392,0.943433333 94.6274876,0.8796 94.5526379,0.8456 C94.4808993,0.8206 94.4075137,0.8206 94.2596444,0.8206 L94.1712523,0.8206 L94.1712523,1.2381 L94.3710954,1.2381 Z M94.2596444,0.580766667 C94.4794353,0.580766667 94.5694745,0.582766667 94.6778144,0.619766667 C94.9585464,0.705933333 94.9874614,0.941433333 94.9874614,1.0276 C94.9874614,1.04576667 94.9845333,1.0951 94.9708078,1.1471 C94.9541542,1.2021 94.918834,1.31326667 94.7722458,1.3966 C94.7557752,1.40776667 94.7464418,1.41543333 94.7006902,1.4306 L95.0716444,2.0351 L94.7129516,2.0351 L94.387932,1.47926667 L94.1712523,1.47926667 L94.1712523,2.0351 L93.8583111,2.0351 L93.8583111,0.580766667 L94.2596444,0.580766667 Z M94.3939712,2.64943333 C95.1814484,2.64943333 95.8206902,2.06776667 95.8206902,1.35143333 C95.8206902,0.6336 95.1814484,0.0534333333 94.3939712,0.0534333333 C93.6079582,0.0534333333 92.9701804,0.6336 92.9701804,1.35143333 C92.9701804,2.06776667 93.6079582,2.64943333 94.3939712,2.64943333 Z M93.2739712,1.34643333 C93.2739712,0.7836 93.7743111,0.3271 94.3939712,0.3271 C95.0134484,0.3271 95.5125072,0.7836 95.5125072,1.34643333 C95.5125072,1.9121 95.0134484,2.3686 94.3939712,2.3686 C93.7743111,2.3686 93.2739712,1.9121 93.2739712,1.34643333 Z" id="Fill-4"></path>
                </g>
            </g>
        </g>
    </g>
</svg>