<?xml version="1.0" encoding="UTF-8"?>
<svg width="90px" height="20px" viewBox="0 0 90 20" version="1.1" xmlns="http://www.w3.org/2000/svg" xmlns:xlink="http://www.w3.org/1999/xlink">
    <!-- Generator: Sketch 52.1 (67048) - http://www.bohemiancoding.com/sketch -->
    <title>Group 26</title>
    <desc>Created with Sketch.</desc>
    <g id="Page-1" stroke="none" stroke-width="1" fill="none" fill-rule="evenodd">
        <g id="home4" transform="translate(-967.000000, -723.000000)" fill="#A7C5C5">
            <g id="Group-2" transform="translate(581.000000, 721.000000)">
                <g id="Group-26" transform="translate(386.000000, 2.000000)">
                    <path d="M1.94190728,5.44629306 C1.26443321,5.21494418 0.657357108,5.00773185 0.0442017366,4.79834723 C-0.0184147648,4.38874988 -0.0151319579,4.01777102 0.0580624767,3.60201886 C3.48348906,2.39844952 6.89201527,1.20067295 10.3088093,0 C13.8276135,0.997925886 17.0657985,1.9206982 20.5633253,2.91258994 C20.5432231,3.07446578 17.8119684,4.05976215 12.3695609,5.86847907 C12.3891767,4.10407176 12.3993899,2.74199316 12.4002004,1.78224326 C11.7502047,1.53653312 11.0887799,1.32171778 10.4025517,1.17315728 C7.62444596,2.16649722 4.84913672,3.1588717 1.96914241,4.18865784 C5.39639278,5.14712046 8.72394309,6.07770535 12.0085737,6.99634265 C15.4177079,5.83102975 18.7796669,4.68188835 22.1434496,3.53202285 C22.2840024,3.99387583 22.3214507,10.6877874 22.1981631,11.4871902 C21.7114566,11.8117062 21.1183628,11.9647319 20.5633253,12.1901673 C19.1232673,12.7752374 17.667768,13.3226545 16.2200502,13.8887774 C14.9977518,14.3668019 13.777034,14.8490503 12.5566809,15.3317814 C12.1661485,15.4862554 11.792638,15.4919274 11.3771806,15.3658139 C8.6145162,14.52731 5.84334086,13.7162011 3.07763687,12.8873517 C2.71361006,12.7781338 2.33791105,12.6885872 1.95528167,12.4706341 C1.93607118,10.1430254 1.96014509,7.79948654 1.94190728,5.44629306 Z" id="Fill-1"></path>
                    <path d="M47.6477512,5.14705441 C48.4102187,4.45287653 49.198019,4.08898694 50.1739526,4.11611688 C51.1596964,4.14349571 51.9230332,4.51186547 52.4242252,5.35413795 C52.7983806,5.07462495 53.1166549,4.8190062 53.452687,4.5892729 C54.2001287,4.07803541 55.0610712,4.0138196 55.8991646,4.15793182 C57.0452253,4.35505942 57.7058649,5.08968331 57.9693756,6.33790921 C58.1337904,7.11633923 58.0852359,7.90223619 58.0902031,8.68663977 C58.0944253,9.36874607 58.0910724,10.0507279 58.0910724,10.7047087 C58.3807852,10.9503715 58.7024124,10.7685512 59.042915,10.9366821 C59.1100966,11.4731828 59.107613,12.0552319 59.0300002,12.708466 C58.262938,12.708466 57.5234439,12.7367159 56.7876752,12.6972655 C56.3833439,12.6757358 56.1110163,12.3858935 56.0080708,11.9931317 C55.9195302,11.6556254 55.8434076,11.3153811 55.8483748,10.9554739 C55.8638974,9.81576775 55.8542113,8.67556379 55.8539629,7.53560872 C55.8539629,7.39050091 55.8596752,7.24489529 55.8502375,7.10040972 C55.8032973,6.38544882 55.2574004,5.9860912 54.5572715,6.16368027 C53.7025379,6.38047085 53.2733706,7.01740208 53.0158205,7.79682769 C52.906045,8.12873382 52.8659348,8.4771917 52.8712745,8.83548107 C52.8867971,9.89230404 52.8790979,10.9496248 52.8748757,12.0066967 C52.8740065,12.2105445 52.9146135,12.4208638 52.7819888,12.6937809 C52.1711456,12.7522721 51.5213096,12.7175507 50.9037606,12.7119505 C50.6909155,12.4773637 50.7629401,12.2381723 50.7618225,12.019266 C50.7551167,10.6719785 50.7460516,9.32444214 50.7657962,7.97752799 C50.7720053,7.55589395 50.67887,7.15578964 50.607963,6.75145405 C50.5395396,6.36055897 50.2749112,6.16417807 49.8613906,6.12883448 C49.2027379,6.07258343 48.7082516,6.36802593 48.3232924,6.87727223 C47.8707792,7.47587309 47.6742016,8.16445075 47.6657574,8.9045504 C47.653836,9.94083924 47.6651365,10.977377 47.6605418,12.0136658 C47.6596725,12.2170159 47.7025147,12.4277085 47.5628118,12.696021 C46.9518444,12.7492853 46.302381,12.7191686 45.5955463,12.7109549 C45.492725,11.9767044 45.5587889,11.2769263 45.5469918,10.5820017 C45.5349463,9.87749458 45.544384,9.17261407 45.544384,8.467858 L45.544384,6.39640036 C45.2526843,6.14003491 44.9294428,6.32957111 44.5885677,6.15596442 C44.5028832,5.59668952 44.5745353,4.98502149 44.5565291,4.43022677 C44.7013234,4.23882383 44.8530719,4.25736677 44.9953826,4.25649562 C45.4296413,4.25375774 45.8662595,4.22774785 46.2977863,4.26296698 C46.8667808,4.3092621 47.4018741,4.45474327 47.6477512,5.14705441" id="Fill-4"></path>
                    <path d="M41.1141651,8.95360595 C40.7671876,9.08652558 40.4192594,9.08385748 40.072876,9.06833402 C39.7482382,9.05378078 39.4439199,9.14825559 39.1462559,9.24285167 C38.7676702,9.36315849 38.5161115,9.64185311 38.4065521,10.0320013 C38.4624012,10.2181616 38.4864045,10.4001984 38.6102232,10.5634373 C38.7625606,10.6625206 38.9282067,10.7703359 39.0748403,10.8657809 C40.3862253,10.9415791 41.1021635,10.2943236 41.1141651,8.95360595 M41.1420897,7.34814058 C41.127355,7.13299512 41.1227207,6.97157539 41.1040647,6.81173226 C41.0421554,6.28090269 40.7324898,5.97128242 40.2210545,5.92131628 C40.2014479,5.91925457 40.1814848,5.92034607 40.1617593,5.91901202 C39.235258,5.85861606 39.1504149,5.93392909 39.0842277,6.86667076 C39.0800688,6.92439862 39.0551149,6.98054989 39.0248138,7.09358009 C38.4540833,7.17228888 37.87147,7.12535467 37.2181541,7.1241419 C37.1617108,6.49107578 37.1424607,5.89136085 37.2211248,5.29928638 C37.2648535,4.9696554 37.5133226,4.73716733 37.8021933,4.57126035 C38.3455934,4.25921454 38.9177498,4.06893087 39.5514591,4.09294373 C40.0826199,4.11307571 40.6166326,4.05340741 41.139119,4.21919312 C42.2751139,4.57974974 43.1246147,5.45815929 43.1315067,6.83077275 C43.1367351,7.88078931 43.129962,8.93092714 43.135428,9.9809437 C43.1364975,10.1770487 43.085758,10.3845537 43.2167063,10.5852672 C43.4561446,10.7155187 43.7567792,10.5721692 44.0372131,10.7206123 C44.1181349,11.2727867 44.0981718,11.8255674 44.0394709,12.4421398 C43.3152147,12.4955017 42.6117534,12.4682144 41.9061532,12.4580271 C41.7043834,12.2735647 41.5146152,12.1001386 41.2902681,11.8950591 C41.0145873,12.1596856 40.6867411,12.3352947 40.348438,12.4906506 C39.2994251,12.972363 37.7760512,12.7045833 36.9501971,11.814895 C36.1917185,10.9978516 36.1343246,9.20428558 36.9810924,8.45333818 C37.5799851,7.92214478 38.2338951,7.65497147 38.9759755,7.48457724 C39.6777732,7.32352134 40.3888395,7.40404929 41.1420897,7.34814058" id="Fill-6"></path>
                    <path d="M70.9486017,10.3619134 C71.5227178,10.959539 72.0591375,11.0644813 72.752123,10.7270886 C73.3798936,10.4214819 73.8072451,9.65170236 73.6819674,9.07688512 C73.2430557,9.07688512 72.8046466,9.04109553 72.3750333,9.08574153 C71.8164984,9.14385412 71.2410001,9.22016481 70.9330205,9.77460018 C70.8919314,9.96313247 70.8857743,10.1425657 70.9486017,10.3619134 M73.7370042,7.31627985 C73.8278525,6.96323675 73.630826,6.71416546 73.6247946,6.48147245 C73.2053593,5.82949528 72.5799761,5.88772919 71.9725615,5.93880518 C71.6863202,5.96282667 71.5514927,6.1685865 71.5340267,6.44628946 C71.5214613,6.64428477 71.5748645,6.85028723 71.4376496,7.09947985 C70.8559942,7.17300016 70.2399094,7.12883944 69.5485575,7.12495718 C69.4925155,6.49129943 69.469395,5.89124749 69.5540863,5.29883875 C69.6013324,4.96896791 69.8652072,4.73760943 70.1701711,4.57152146 C70.7447898,4.25875682 71.3503196,4.08102207 72.0204359,4.09133432 C72.7726047,4.10298111 73.5184907,4.07265094 74.2225338,4.42156913 C75.2503889,4.93087322 75.789573,5.72297575 75.8021385,6.83597139 C75.8136987,7.84596581 75.8027667,8.85620286 75.806662,9.86643991 C75.8075416,10.0850597 75.7672065,10.3110801 75.8673532,10.4977926 C76.1185369,10.7566908 76.4608202,10.5572397 76.7522133,10.7335186 C76.8725905,11.2621127 76.7896584,11.8171546 76.7984542,12.4334636 C76.0538247,12.5010392 75.3515409,12.4977635 74.6501366,12.4397722 C74.4402933,12.4224234 74.2624919,12.2600963 73.8903029,11.8888552 C73.4686058,12.2401998 73.0219035,12.5466557 72.4430125,12.6485651 C71.3569793,12.8396451 70.3472185,12.7043726 69.4955312,12.0036245 C68.273791,10.9984829 68.357477,9.03005535 69.731008,8.12124236 C70.0957835,7.87981427 70.4992606,7.72149082 70.9251042,7.61169563 C71.572854,7.44475842 72.2266352,7.33569115 72.9024059,7.36662792 C73.1685425,7.37875998 73.4422183,7.40314543 73.7370042,7.31627985" id="Fill-8"></path>
                    <path d="M35.0575439,5.22467182 C35.220638,5.7868044 35.3009396,6.29519303 35.1786487,6.87681384 C34.5922216,6.94120974 34.012081,6.91373254 33.47049,6.89678625 C33.2546127,6.67587929 33.3956446,6.4174484 33.2235358,6.14654988 C32.7027022,5.81585518 32.1188846,5.85507373 31.583936,6.11725701 C31.4604589,6.26505285 31.439227,6.3638255 31.4450391,6.46538218 C31.4507326,6.5637917 31.4718458,6.6613539 31.4866726,6.76327371 C32.0294498,7.16247984 32.6426836,7.39101263 33.2499867,7.61942439 C33.7966782,7.82495865 34.2745736,8.13531781 34.7162917,8.50632046 C35.6781318,9.31429526 35.6699474,10.9456176 34.8671686,11.7330147 C33.7637035,12.8151562 32.5002283,12.8816099 31.1354568,12.5540624 C30.473354,12.3952514 29.87554,12.094939 29.4104549,11.5620993 C29.2773701,11.4095827 29.1536558,11.2576713 29.0909091,11.0131606 C29.4231466,10.5594843 29.7180208,10.0427435 30.1787171,9.60105066 C30.9646528,10.6345321 31.9095311,11.1806868 33.1649406,10.7486775 C33.2234172,10.6830711 33.2613737,10.6578938 33.2740654,10.6231539 C33.3217481,10.4926675 33.361128,10.3590339 33.3929165,10.2597771 C33.3457082,9.94481821 33.1401503,9.82788883 32.9203587,9.72257975 C32.2063031,9.38062787 31.4875029,9.04872272 30.7813943,8.69042978 C30.2752688,8.43357247 29.9042446,8.01572543 29.6068795,7.53142473 C28.9065831,6.39069747 29.6092518,4.99359708 30.5008725,4.53955761 C31.7112087,3.92319691 32.9372019,3.99364505 34.16877,4.43787989 C34.5547396,4.57696049 34.7746498,4.94118463 35.0575439,5.22467182" id="Fill-10"></path>
                    <path d="M66.8513563,9.59310334 C67.197204,10.049309 67.4992978,10.5287115 67.7272727,11.0922028 C67.2027031,11.8575796 66.5038349,12.3513593 65.6221803,12.568347 C64.7797368,12.7757901 63.9225892,12.7865428 63.0862426,12.5627894 C62.0062604,12.2739155 61.1601111,11.6378131 60.5921461,10.6521867 C59.8595658,9.38070676 59.853469,8.02815854 60.3182653,6.69675333 C60.7139639,5.56324664 61.5530601,4.78035137 62.6883922,4.38793721 C63.8745315,3.97812537 65.0666482,3.97280941 66.2333014,4.4948604 C66.5648036,4.64322389 66.8490849,4.85984907 67.0880582,5.13603712 C67.2223088,5.29104555 67.3312155,5.46768026 67.3379101,5.67282781 C67.352973,6.13193306 67.3838159,6.59321301 67.3138813,7.04289452 C66.8789715,7.17422278 66.1988721,7.19282863 65.5321618,7.09629571 C65.3358666,6.88208687 65.5084916,6.58427254 65.3565482,6.31605842 C65.2723875,6.19028775 65.1050225,6.1258922 64.9313216,6.0780486 C64.7591748,6.03056745 64.5836807,5.9950472 64.3677799,5.94442481 C64.2522981,5.97281684 64.1007133,6.02972173 63.9450639,6.04506551 C62.642845,6.17276926 61.9382385,7.55648831 62.1143304,8.70896329 C62.3855812,10.4836467 64.0672403,11.1841447 65.548181,10.5275033 C65.7835679,10.4232381 66.0239757,10.3200603 66.2243354,10.1472917 C66.4196743,9.97899339 66.5637277,9.75221956 66.8513563,9.59310334" id="Fill-12"></path>
                    <path d="M89.9624742,10.6831789 C90.0182185,11.3643473 90.0027947,11.9628874 89.9743761,12.5306087 C89.6565485,12.821082 89.3171034,12.7003548 89.0063199,12.7123668 C88.4287166,12.7346922 87.8746742,12.5859369 87.3805052,12.3062623 C86.4619995,11.7867106 86.0206601,10.9479294 85.9882337,9.91331539 C85.9573861,8.92408021 85.9832544,7.9332677 85.9797324,6.94318319 C85.9788823,6.72247685 86.0096084,6.49861583 85.9367401,6.26856678 C85.7010109,6.06678852 85.3880413,6.2375053 85.0485962,6.08523127 C84.9762136,5.56203956 84.994795,4.99516764 85.0388804,4.45341184 C85.3335115,4.25005624 85.6490315,4.43363441 85.9417194,4.24520289 C86.0566085,3.64484282 85.9113576,2.99522119 86.0274612,2.33188883 C86.6854625,2.22693502 87.3203888,2.296338 87.9732894,2.28335528 C88.1397936,2.96585839 87.9814263,3.61645069 88.0875713,4.26728565 C88.6498721,4.43933711 89.2243177,4.26425231 89.831797,4.39723425 C89.9149883,4.94942476 89.8664094,5.50367796 89.8631304,6.07224855 C89.2839483,6.27487614 88.7079239,6.08231926 88.1778066,6.2009838 C88.0310983,6.31673633 88.0533231,6.46561301 88.0529588,6.6038123 C88.0506513,7.51308845 88.0517443,8.42236459 88.0517443,9.33164074 C88.0517443,9.37204492 88.047858,9.41305578 88.0533231,9.45273196 C88.1818143,10.3988936 88.4765669,10.849649 89.6113702,10.7524605 C89.7090138,10.7440885 89.8048357,10.7149684 89.9624742,10.6831789" id="Fill-14"></path>
                    <path d="M80.8156196,5.45058093 C81.6275336,4.61195842 82.5167844,4.41317027 83.5856286,4.62237683 C83.6763459,5.24161387 83.6169316,5.8698323 83.6208598,6.47709416 C83.3807473,6.68713898 83.1223441,6.61421007 82.8895971,6.60522868 C82.2287968,6.57972153 81.764162,6.8752692 81.4160235,7.39247763 C81.0953826,7.86873091 80.9095286,8.37635918 80.9215588,8.96110768 C80.9423047,9.97660374 80.9272056,10.9928183 80.9272056,12.0086736 L80.9272056,12.5856382 C80.4723914,12.7544884 79.42994,12.776403 78.7256838,12.6295872 L78.7256838,6.63360988 C78.4060249,6.39698014 78.0877163,6.57553021 77.7678119,6.3978184 C77.7183409,5.84971399 77.7006639,5.26939631 77.7937136,4.63087922 C78.6182715,4.57124277 79.398637,4.46550185 80.1691819,4.74584103 C80.4705501,4.85553377 80.6688024,5.07503899 80.8156196,5.45058093" id="Fill-16"></path>
                    <path d="M5.2265072,4.09090909 C7.13500697,3.40153195 8.3623335,2.94662366 10.2277817,2.27272727 C10.4813479,2.34682524 10.8206555,2.4521669 11.2457045,2.58875227 L11.2457045,5.70547643 C9.75260632,5.28201342 7.74620722,4.7438243 5.2265072,4.09090909 Z" id="Fill-18"></path>
                    <path d="M19.5454545,15.0052327 C19.8430726,14.015417 20.3479158,13.5584331 21.0250893,13.6471989 C21.7631203,13.743905 22.2727273,14.2856253 22.2727273,14.9863893 C22.2727273,15.7205737 21.8070663,16.1968752 21.042239,16.3428825 C20.3689956,16.4713499 19.8552203,16.0007371 19.5454545,15.0052327" id="Fill-20"></path>
                    <path d="M4.53921464,15.9224721 C4.61781579,16.7301784 3.94261092,17.2026306 3.14771513,17.2689668 C2.4245105,17.3294674 1.80915109,16.6510989 1.81828215,15.8716183 C1.82654947,15.1653815 2.42068533,14.5548975 3.10896982,14.5456081 C3.92916112,14.5345322 4.5415591,15.1239362 4.53921464,15.9224721" id="Fill-22"></path>
                    <path d="M10.4545455,18.6694982 C10.4931565,17.9966615 10.7614974,17.5265925 11.403845,17.2881517 C12.3050926,17.2113552 12.789728,17.4166001 13.0538325,18.0102867 C13.3134586,18.5936926 13.1713603,19.2489403 12.6886614,19.6943601 C12.2387639,20.1095568 11.6761801,20.1018772 10.9049272,19.6704541 C10.6335604,19.3763978 10.5001767,19.0187985 10.4545455,18.6694982" id="Fill-24"></path>
                </g>
            </g>
        </g>
    </g>
</svg>