<?xml version="1.0" encoding="UTF-8"?>
<svg width="74px" height="24px" viewBox="0 0 74 24" version="1.1" xmlns="http://www.w3.org/2000/svg" xmlns:xlink="http://www.w3.org/1999/xlink">
    <!-- Generator: Sketch 52.1 (67048) - http://www.bohemiancoding.com/sketch -->
    <title>Group 9</title>
    <desc>Created with Sketch.</desc>
    <g id="Page-1" stroke="none" stroke-width="1" fill="none" fill-rule="evenodd">
        <g id="home4" transform="translate(-861.000000, -721.000000)" fill="#A7C5C5">
            <g id="Group-2" transform="translate(581.000000, 721.000000)">
                <g id="Group-9" transform="translate(280.000000, 0.000000)">
                    <path d="M59.2356165,10.8793804 C58.8706734,9.16423117 59.5723594,7.23197439 60.723589,5.87062993 C61.0885321,7.64005608 60.1902744,9.4368217 59.2356165,10.8793804 M36.1264244,19.0735805 C35.9016527,19.2637506 35.8178816,18.9642227 35.7896815,18.8556689 C35.6490954,17.0315638 37.1656828,14.5271886 38.6814408,13.2478625 C38.6536554,14.8267165 38.7660412,15.5343261 38.7660412,15.9701494 C38.4006834,16.4598474 38.0921406,17.1678591 36.1264244,19.0735805 M71.5623989,13.9011953 C71.3936127,14.6361444 69.87744,16.5145263 69.5406971,16.6504195 C69.6526683,16.43291 69.596268,16.4871869 69.736854,16.0513636 C70.2701686,14.6361444 70.354769,13.0026114 69.736854,11.7236874 C69.4001111,11.0972921 68.3890528,9.9538592 67.5749809,9.60005438 C67.2660234,10.1444313 66.9010803,10.7161478 66.6481084,11.151971 C66.3955512,11.5600527 66.0306081,11.941197 66.0024079,11.9685364 C66.0024079,11.9685364 66.5361372,12.430895 66.507937,12.4855739 C65.9746225,13.5743278 64.9639789,15.2894771 63.9529207,16.4055705 C63.2508199,17.1678591 62.6611051,17.6852986 61.7906328,17.6852986 C60.723589,17.6575571 60.2466747,17.3857707 59.7407309,16.5418658 C59.3198022,15.8338541 58.8988735,15.0715655 59.2634019,14.2007232 C59.544574,13.520051 59.8253313,13.1119693 60.3022456,12.2129834 C61.7346472,9.5457775 63.4469768,6.6329185 62.436748,3.55682681 C62.1277905,2.57702869 60.6958036,2.52234976 60.0496884,3.09406619 C57.9438009,4.89042975 56.3712279,8.48396099 56.6241998,12.3223412 C56.6801854,13.1389067 56.8489716,13.6559442 56.5400141,14.2276606 C56.1186707,15.0715655 55.2199983,15.9154704 54.0969689,16.5418658 C53.5914397,16.8409917 52.9457393,16.5418658 52.6931821,15.8069167 C52.5807962,15.4527098 52.4966105,14.5271886 52.4684103,14.5271886 C51.8504953,14.554528 50.9240375,14.6088049 50.2223514,14.6361444 C49.7450225,16.3239542 49.2954789,15.343754 47.6669204,17.1135822 C48.6497785,15.2621377 50.4467085,13.6016673 52.1034672,12.6761461 C52.2718387,12.5945297 53.029925,12.430895 52.8897537,12.2676623 C52.328239,11.5327132 51.373581,10.2807266 50.7274659,10.4986382 C49.7450225,10.852443 48.7339642,11.4510969 47.6951205,12.4586365 C47.4703488,12.7034855 47.0772055,13.0572904 46.8806339,13.2478625 C46.0947621,14.0644279 44.1290459,16.9503495 43.1184023,17.2768149 C43.0902022,17.2768149 43.0620021,17.3037523 43.0342166,17.3037523 C42.697059,17.3310918 42.6128732,17.2494754 42.3881015,17.1678591 C41.6300151,16.8140543 41.0403003,15.1805213 41.1804716,14.3366164 C41.2368719,13.9281327 41.4052433,13.6016673 41.5740295,13.1389067 C42.5004873,10.6888083 43.4269451,7.58577921 43.0060165,4.70025966 C42.9496162,4.18282011 42.1073441,3.72005949 41.601815,4.01958743 C39.1027842,5.57110198 38.5694696,8.91938215 38.6254552,11.5873921 C37.8113833,11.9954738 36.9691112,12.6218692 36.322996,13.2478625 C35.003395,14.4998491 33.9363512,16.133382 32.953493,17.7391735 C32.8411072,17.8481293 32.7287213,17.9844245 32.5043642,17.8211919 C32.3919783,17.712236 32.3919783,17.712236 32.3077926,17.6032802 C31.4655205,16.4598474 30.9040058,14.8809934 30.3424911,13.5743278 C30.1455048,13.0842278 29.8087618,12.1044296 29.4716042,12.1044296 C29.4716042,12.1044296 28.9946899,12.1044296 28.9100894,12.1317691 C28.4331752,12.2407249 28.2361888,13.1119693 28.0396172,13.6290068 C27.7028743,14.6904212 26.8606022,16.6230801 25.8217585,17.5490034 C25.9897153,16.6504195 26.0179154,14.7177607 25.9341444,13.2478625 C25.9059442,13.220523 25.9059442,13.1658441 25.9059442,13.1389067 C25.5405864,12.8667182 24.0244138,12.1317691 23.5752849,12.2129834 C23.5752849,12.2407249 23.4069135,13.2478625 23.2945276,13.7922395 C22.9573699,15.5343261 22.1150979,16.7324379 20.9356681,17.6852986 C20.6271253,17.9570851 20.0374105,18.5288015 19.6160671,18.6104178 C19.1951384,18.7193736 18.6054235,18.3108899 18.4088519,17.712236 C18.296466,17.3584312 18.2400657,16.43291 18.1840801,16.43291 C17.5661651,16.4598474 16.6397073,16.4871869 15.9376066,16.5418658 C15.4602776,18.2292735 15.0111488,17.2494754 13.3825902,19.0189016 C14.3654483,17.1678591 16.1623783,15.4796472 17.819137,14.5818675 C17.9875085,14.4729117 18.7455948,14.3366164 18.6054235,14.1460443 C18.0439088,13.4384346 17.1170363,12.186046 16.4431357,12.4039576 C15.4602776,12.7577624 14.4778342,13.3294788 13.4107903,14.3639559 C13.1860186,14.5818675 12.7928753,14.9626097 12.5963037,15.1535839 C12.0065888,15.7795772 11.1083312,17.4943244 10.1536732,18.5830784 C9.53575821,19.2910901 8.07557113,21.0331768 8.18795701,21.0605162 C9.2268007,21.9860375 8.35632848,21.7411884 10.2938445,20.4071835 C10.3220447,20.380246 10.2938445,21.713849 10.3502448,21.7411884 C10.7993737,21.9591001 11.8664175,22.8572818 12.0065888,22.6663076 C12.4843325,21.9591001 14.5620199,19.5359391 15.881621,19.1278574 C17.0328506,18.7740526 16.1905785,19.9713602 17.2858225,20.5977556 C17.7909369,20.8972835 17.9033228,20.924221 18.5212378,20.9515604 C19.9810102,20.9788999 20.8514824,19.9713602 21.8903261,18.9099458 C22.1150979,18.6377573 22.2834693,18.4198457 22.4240554,18.2292735 C22.3116695,18.7740526 22.3398696,18.9915621 22.143298,19.6452969 C21.9185262,20.4614603 21.5817833,21.0878557 21.4971828,21.6591701 C21.3852117,22.1223327 22.7330129,23.0747914 23.0697558,22.8842192 C25.0914576,21.7681259 26.467459,19.9170834 27.8994459,18.1749967 C28.404975,17.5759408 28.7977036,16.9772869 29.2754472,16.3508916 C29.7527762,16.7863128 30.061319,17.4396455 30.3984767,18.1207198 C31.3249345,19.9170834 31.5779064,20.3525045 32.8975075,19.9170834 C32.9257076,21.414321 35.4247384,22.7209866 35.6772956,22.5304144 C36.4635821,21.9591001 38.5694696,19.590618 39.4117417,18.1476572 C39.9172708,19.0189016 40.6753572,19.6175554 41.6300151,19.8897439 C42.697059,20.2170134 43.7641028,19.7811901 44.6063749,19.2094737 C44.634575,19.1821343 44.5499746,19.8081276 44.634575,19.835467 C45.0837039,20.0529766 46.1225475,20.9515604 46.290919,20.7609883 C46.7686627,20.0529766 48.8463501,17.6306197 50.1659512,17.222136 C51.3171807,16.8683311 50.4749087,18.0660409 51.5701527,18.6924362 C52.0752671,18.9915621 52.187653,19.045839 52.805568,19.045839 C54.2935405,19.0735805 55.2763986,17.9028082 56.3712279,16.8140543 C56.399428,16.7863128 56.8489716,16.3239542 56.9331573,16.3508916 C57.0733286,16.3786331 57.1015288,16.7050985 57.2139147,16.8956706 C57.3822861,17.2768149 57.6070579,17.8211919 57.8878153,18.2570151 C58.3087439,18.9372852 58.6459016,19.345769 59.4039879,19.6452969 C59.8531168,19.835467 60.3304457,19.9444228 60.9201606,19.8628065 C62.4927336,19.6722343 63.7003635,18.9642227 65.4131078,16.8956706 C66.0306081,16.133382 66.7045087,14.9626097 67.1818376,14.0917674 C67.0976519,14.2550001 67.4348096,13.6290068 67.5749809,14.1460443 C67.6873668,14.6904212 67.6591666,15.3710935 67.3784093,16.0513636 C66.985266,16.9772869 66.3113654,18.0113619 65.7776361,18.5830784 C65.4690933,18.9099458 66.3395656,19.9170834 66.4515367,19.9170834 C68.6980103,19.6175554 70.6919267,18.0660409 71.786756,16.0791052 C72.0393132,15.6432819 72.3764708,15.2894771 72.5448423,14.4729117 C72.5730424,14.3908933 71.6179698,13.6016673 71.5623989,13.9011953" id="Fill-1"></path>
                    <path d="M10.1116066,16.1168086 C8.88555424,12.7339128 7.03300254,9.85060931 5.66421946,6.49596909 C5.49327946,6.07950557 5.66421946,5.33134545 6.23472117,5.22037042 C6.60523151,5.16467815 7.11847254,5.83011887 7.54582253,5.52544939 C8.65777458,4.69334137 10.653478,2.58645368 11.251768,1.44967618 C11.3090287,1.33829164 11.4799687,1.00618554 11.4513383,0.922647134 C11.3090287,0.590131526 10.824418,0.229360281 10.4534866,0.0631024771 C9.96929698,-0.214130364 7.03300254,0.395618085 4.95182912,2.42019588 C3.69756742,3.63969277 1.95869503,5.63601493 2.58561536,7.93741606 C3.52620638,11.4587236 5.80695014,14.3145904 7.08984219,17.5586651 C7.06121185,17.5029728 6.63386186,18.5291848 6.60523151,18.5291848 C6.34840048,18.5844675 6.29156083,17.8911807 6.09199048,17.8080518 C5.40823049,17.5865112 1.90143434,19.6655528 0.105722297,21.4403344 C-0.436149074,21.9395173 1.24588366,24.15738 1.95869503,23.9911222 C5.12276912,23.3535276 8.80050527,20.026324 9.82656629,18.5566214 C10.482117,17.641794 10.4534866,17.1426111 10.1116066,16.1168086" id="Fill-3"></path>
                    <path d="M72.2586769,18.7727911 C72.37763,18.7727911 72.496144,18.7727911 72.496144,18.6240255 C72.496144,18.5055397 72.407039,18.47526 72.288086,18.47526 L72.1098759,18.47526 L72.1098759,18.7727911 L72.2586769,18.7727911 Z M72.0804669,19.2774531 L71.9316659,19.2774531 L71.9610749,18.3567741 L72.317934,18.3567741 C72.55584,18.3567741 72.644945,18.4458579 72.644945,18.6240255 C72.644945,18.8021932 72.525992,18.8618749 72.407039,18.8917158 L72.644945,19.3077328 L72.496144,19.3077328 L72.2586769,18.8917158 L72.1098759,18.8917158 L72.0804669,19.2774531 Z M72.2586769,19.4859005 C72.615097,19.5153025 72.9122601,19.2480511 72.9122601,18.832034 C72.9421081,18.47526 72.6743541,18.1487656 72.288086,18.1487656 C71.9316659,18.1487656 71.6345028,18.4164559 71.6046548,18.8021932 C71.6046548,19.1888081 71.8719699,19.4859005 72.2586769,19.4859005 Z M71.4562928,18.8021932 C71.4562928,18.3269332 71.8425609,18 72.288086,18 C72.7340501,18.0298409 73.0909091,18.386615 73.0909091,18.8618749 C73.0610611,19.3077328 72.6743541,19.6640681 72.228829,19.634666 C71.7828649,19.634666 71.4264448,19.2774531 71.4562928,18.8021932 Z" id="Fill-6"></path>
                </g>
            </g>
        </g>
    </g>
</svg>