<?xml version="1.0" encoding="UTF-8"?>
<svg width="24px" height="36px" viewBox="0 0 24 36" version="1.1" xmlns="http://www.w3.org/2000/svg" xmlns:xlink="http://www.w3.org/1999/xlink">
    <!-- Generator: Sketch 54.1 (76490) - https://sketchapp.com -->
    <title>Combined Shape</title>
    <desc>Created with Sketch.</desc>
    <g id="Page-1" stroke="none" stroke-width="1" fill="none" fill-rule="evenodd">
        <g id="home4" transform="translate(-540.000000, -717.000000)" fill="#FFFFFF">
            <path d="M552,729 C558.627417,729 564,734.372583 564,741 C564,747.627417 558.627417,753 552,753 L552,741 C545.372583,741 540,735.627417 540,729 C540,722.372583 545.372583,717 552,717 L552,729 Z M552,738 L552,741 L552,744 C553.656854,744 555,742.656854 555,741 C555,739.343146 553.656854,738 552,738 Z M552,729 L552,726 C550.343146,726 549,727.343146 549,729 C549,730.656854 550.343146,732 552,732 L552,729 Z" id="Combined-Shape"></path>
        </g>
    </g>
</svg>