<?xml version="1.0" encoding="UTF-8"?>
<svg width="20px" height="16px" viewBox="0 0 20 16" version="1.1" xmlns="http://www.w3.org/2000/svg" xmlns:xlink="http://www.w3.org/1999/xlink">
    <!-- Generator: Sketch 45.1 (43504) - http://www.bohemiancoding.com/sketch -->
    <title>twitter</title>
    <desc>Created with Sketch.</desc>
    <defs></defs>
    <g id="home3" stroke="none" stroke-width="1" fill="none" fill-rule="evenodd">
        <g id="inner" transform="translate(-48.000000, -88.000000)" fill="#FFFFFF">
            <g id="Group-3" transform="translate(48.000000, 88.000000)">
                <g id="twitter">
                    <path d="M6.16658824,15.9355294 C13.5660392,15.9355294 17.6124706,9.8052549 17.6124706,4.48956863 C17.6124706,4.31537255 17.6089412,4.14196078 17.6010196,3.9694902 C18.3864314,3.40172549 19.0691765,2.6932549 19.6078431,1.88658824 C18.8870588,2.2067451 18.1112941,2.42258824 17.2976471,2.51992157 C18.1281569,2.02196078 18.7658824,1.23388235 19.0665882,0.294588235 C18.289098,0.755372549 17.428549,1.09058824 16.5122353,1.27098039 C15.7781176,0.489098039 14.7326275,0 13.5757647,0 C11.3539608,0 9.55231373,1.80164706 9.55231373,4.02258824 C9.55231373,4.33835294 9.58768627,4.6452549 9.65670588,4.93984314 C6.31341176,4.77176471 3.34862745,3.17082353 1.36478431,0.736784314 C1.01898039,1.33113725 0.819921569,2.02196078 0.819921569,2.7587451 C0.819921569,4.15443137 1.53019608,5.3865098 2.61011765,6.10729412 C1.95027451,6.08698039 1.33027451,5.90564706 0.788078431,5.604 C0.787215686,5.62086275 0.787215686,5.63764706 0.787215686,5.65529412 C0.787215686,7.60384314 2.17403922,9.23035294 4.01466667,9.59921569 C3.67678431,9.69113725 3.3212549,9.74070588 2.95419608,9.74070588 C2.69498039,9.74070588 2.44290196,9.71505882 2.19796078,9.66815686 C2.71003922,11.2664314 4.19505882,12.4294902 5.95607843,12.4622745 C4.57890196,13.5413333 2.84447059,14.1843137 0.959686275,14.1843137 C0.635058824,14.1843137 0.314901961,14.1657255 0,14.128549 C1.78047059,15.2695686 3.89435294,15.9355294 6.16658824,15.9355294" id="Fill-1"></path>
                </g>
            </g>
        </g>
    </g>
</svg>