<?xml version="1.0" encoding="UTF-8"?>
<svg width="69px" height="24px" viewBox="0 0 69 24" version="1.1" xmlns="http://www.w3.org/2000/svg" xmlns:xlink="http://www.w3.org/1999/xlink">
    <!-- Generator: Sketch 54.1 (76490) - https://sketchapp.com -->
    <title>Group 7</title>
    <desc>Created with Sketch.</desc>
    <g id="Page-1" stroke="none" stroke-width="1" fill="none" fill-rule="evenodd">
        <g id="home4" transform="translate(-1355.000000, -721.000000)" fill="#FFFFFF">
            <g id="Group-7" transform="translate(1355.000000, 721.000000)">
                <g id="Page-1">
                    <polygon id="Fill-1" points="14.8092397 5.1291969 12.9195057 13.466807 12.8724853 13.466807 10.2981179 5.1291969 7.51094272 5.1291969 4.72376749 13.4903172 4.65283153 13.4903172 2.99941562 5.1291969 -0.000162139338 5.1291969 2.76350289 17.6471645 5.73957044 17.6471645 8.83359437 8.64843125 8.88061478 8.64843125 11.738726 17.6471645 14.7618139 17.6471645 17.761797 5.1291969"></polygon>
                    <g id="Group-10" transform="translate(18.500000, 0.211024)">
                        <path d="M8.83855707,9.80732217 C8.69668515,8.22484222 7.72830795,7.25646502 6.0752974,7.25646502 C4.51632766,7.25646502 3.52444025,8.41373455 3.40607854,9.80732217 L8.83855707,9.80732217 Z M11.3894142,15.0034826 C10.3501011,16.5154319 8.81504687,17.7902525 6.21676397,17.7902525 C2.76846559,17.7902525 0.288544405,15.2393954 0.288544405,11.1769942 C0.288544405,7.1145931 2.81589134,4.56373596 6.0752974,4.56373596 C9.33470345,4.56373596 11.8146246,7.1145931 11.8146246,11.1769942 L11.8146246,12.098351 L3.40607854,12.098351 C3.5005247,14.0351054 4.4924121,15.0744186 6.16974356,15.0744186 C7.77573371,15.0744186 8.62574919,13.9876797 9.24025728,13.1137486 L11.3894142,15.0034826 Z" id="Fill-2"></path>
                        <polygon id="Fill-4" points="14.0223139 17.4360591 17.0928276 17.4360591 17.0928276 7.50218719 14.0223139 7.50218719"></polygon>
                        <polygon id="Fill-6" points="20.399254 17.4360591 23.4697678 17.4360591 23.4697678 5.59583392 20.399254 5.59583392"></polygon>
                        <path d="M34.5106866,9.87817706 C34.5106866,8.508505 33.4948836,7.32731992 31.8175521,7.32731992 C30.094011,7.32731992 28.7474438,8.57903561 28.7474438,11.1773185 C28.7474438,13.7516859 30.094011,15.0269118 31.8175521,15.0269118 C33.4948836,15.0269118 34.5106866,13.846132 34.5106866,12.4529498 L34.5106866,9.87817706 Z M28.8654001,18.4046795 C29.573949,19.7508414 30.3773495,20.4358801 31.8653833,20.4358801 C33.353417,20.4358801 34.5106866,19.7273312 34.5106866,17.814087 L34.5106866,16.231607 L34.4636662,16.231607 C34.0145402,17.0110919 32.7863347,17.7905768 31.3453213,17.7905768 C28.2752129,17.7905768 25.67693,15.4525275 25.67693,11.1773185 C25.67693,6.9021095 28.4641053,4.56365489 31.2983009,4.56365489 C33.0226528,4.56365489 34.0619659,5.39056552 34.6051327,6.12262463 L34.6525585,6.12262463 L34.6525585,4.91833469 L37.5812003,4.91833469 L37.5812003,17.4363023 C37.5812003,21.2388752 35.0773635,23.1050989 31.8653833,23.1050989 C29.1256338,23.1050989 27.3542615,21.7585317 26.5747766,19.9871595 L28.8654001,18.4046795 Z" id="Fill-7"></path>
                        <path d="M39.952407,0.194323997 L43.0229208,0.194323997 L43.0229208,6.12254356 L43.0699412,6.12254356 C43.5425773,5.34346404 44.8182086,4.56357382 46.11735,4.56357382 C48.7861635,4.56357382 50.4865999,6.33535144 50.4865999,9.09861112 L50.4865999,17.4362213 L47.4160861,17.4362213 L47.4160861,9.78364982 C47.4160861,8.48450837 46.754963,7.39776946 45.1959932,7.39776946 C43.7079595,7.39776946 43.0229208,8.36655201 43.0229208,9.57124729 L43.0229208,17.4362213 L39.952407,17.4362213 L39.952407,0.194323997 Z" id="Fill-8"></path>
                        <path d="M18.7456355,1.28369768 L18.7456355,1.28369768 C17.6674089,1.99427333 16.4043434,2.37286868 15.1129036,2.37286868 L14.0221112,2.37286868 L14.0221112,5.27800028 L15.1129036,5.27800028 C16.4043434,5.27800028 17.6674089,4.89940493 18.7456355,4.18882928 C19.8242674,3.47825362 21.0873329,3.09925292 22.3787727,3.09925292 L23.4695651,3.09925292 L23.4695651,0.194121323 L22.3787727,0.194121323 C21.0873329,0.194121323 19.8242674,0.573122027 18.7456355,1.28369768" id="Fill-9"></path>
                    </g>
                </g>
            </g>
        </g>
    </g>
</svg>