<?xml version="1.0" encoding="UTF-8"?>
<svg width="16px" height="16px" viewBox="0 0 16 16" version="1.1" xmlns="http://www.w3.org/2000/svg" xmlns:xlink="http://www.w3.org/1999/xlink">
    <!-- Generator: Sketch 45.1 (43504) - http://www.bohemiancoding.com/sketch -->
    <title>dribbble</title>
    <desc>Created with Sketch.</desc>
    <defs></defs>
    <g id="home3" stroke="none" stroke-width="1" fill="none" fill-rule="evenodd">
        <g id="inner" transform="translate(-186.000000, -88.000000)" fill="#FFFFFF">
            <g id="Group-3" transform="translate(48.000000, 88.000000)">
                <g id="dribbble" transform="translate(138.000000, 0.000000)">
                    <path d="M11.773933,13.6240259 C11.7041384,13.2099286 11.3418465,11.2170205 10.4513816,8.77014486 C12.5847438,8.42869622 14.4589924,8.98774486 14.6919005,9.06117189 C14.3884195,10.9554854 13.3011978,12.5913773 11.773933,13.6240259 M7.9702573,14.7883935 C6.3964627,14.7883935 4.94582486,14.2513989 3.79157622,13.3512476 C3.91404108,13.1007827 5.2924627,10.4379503 9.13228973,9.09983135 C9.14725189,9.09472865 9.16221405,9.08979892 9.17717622,9.0847827 C10.1329384,11.5684151 10.5282681,13.6500584 10.6295438,14.2473341 C9.81207351,14.5954422 8.91330595,14.7883935 7.9702573,14.7883935 M1.16238703,7.98052324 C1.16238703,7.91090162 1.16377081,7.84171243 1.16593297,7.77252324 C1.46379243,7.77866378 4.76281946,7.82112865 8.16251676,6.80370162 C8.35737081,7.18510703 8.54348973,7.57230703 8.71447351,7.95907459 C8.62435459,7.98441514 8.53492757,8.01139892 8.44610595,8.04011243 C4.93510054,9.17498811 3.06673297,12.2684368 2.91252757,12.53248 C1.82521946,11.3255611 1.16238703,9.72910703 1.16238703,7.98052324 M5.07590054,1.81965838 C5.25536,2.06571243 6.47196541,3.75159351 7.59992216,5.7567827 C4.41548973,6.60244757 1.61073297,6.59025297 1.30621405,6.58618811 C1.74764108,4.47375568 3.17129514,2.71790703 5.07590054,1.81965838 M7.9702573,1.17273946 C9.70007351,1.17273946 11.2808735,1.82164757 12.4830357,2.88819892 C12.3605708,3.06264216 11.3358789,4.44002595 8.91503568,5.34735568 C7.79953297,3.29779892 6.56303568,1.61399351 6.37484108,1.36205838 C6.88684108,1.23855568 7.42089514,1.17273946 7.9702573,1.17273946 M13.2398789,3.67548541 C14.1880303,4.83388541 14.7622141,6.30943135 14.7772627,7.91626378 C14.5527438,7.8687827 12.301933,7.41230703 10.0367654,7.69710703 C9.98902486,7.58060973 9.94024649,7.46350703 9.89017081,7.34579892 C9.74876541,7.0137773 9.59689514,6.68400432 9.43845189,6.35968 C11.9556411,5.33204757 13.0963978,3.86964757 13.2398789,3.67548541 M7.9702573,-1.72972973e-05 C3.57544649,-1.72972973e-05 8.64864865e-06,3.57533405 8.64864865e-06,7.97014486 C8.64864865e-06,12.3649557 3.57544649,15.9403935 7.9702573,15.9403935 C12.3650681,15.9403935 15.9404195,12.3649557 15.9404195,7.97014486 C15.9404195,3.57533405 12.3650681,-1.72972973e-05 7.9702573,-1.72972973e-05" id="Fill-1"></path>
                </g>
            </g>
        </g>
    </g>
</svg>