<?xml version="1.0" encoding="UTF-8"?>
<svg width="16px" height="16px" viewBox="0 0 16 16" version="1.1" xmlns="http://www.w3.org/2000/svg" xmlns:xlink="http://www.w3.org/1999/xlink">
    <!-- Generator: Sketch 45.1 (43504) - http://www.bohemiancoding.com/sketch -->
    <title>github</title>
    <desc>Created with Sketch.</desc>
    <defs></defs>
    <g id="home3" stroke="none" stroke-width="1" fill="none" fill-rule="evenodd">
        <g id="inner" transform="translate(-218.000000, -88.000000)" fill="#FEFEFE">
            <g id="Group-3" transform="translate(48.000000, 88.000000)">
                <g id="github" transform="translate(170.000000, 0.000000)">
                    <path d="M7.89750303,0.484606061 C3.53629091,0.484606061 -0.000193939394,4.02109091 -0.000193939394,8.38327273 C-0.000193939394,11.8722424 2.26259394,14.8327273 5.40150303,15.8770909 C5.79665455,15.9493333 5.94065455,15.7059394 5.94065455,15.4964848 C5.94065455,15.3088485 5.93386667,14.8123636 5.92998788,14.1529697 C3.73313939,14.6305455 3.26962424,13.0945455 3.26962424,13.0945455 C2.91035152,12.1820606 2.39253333,11.9391515 2.39253333,11.9391515 C1.67544242,11.4489697 2.44683636,11.4591515 2.44683636,11.4591515 C3.23956364,11.5149091 3.65653333,12.2727273 3.65653333,12.2727273 C4.36101818,13.48 5.50477576,13.1313939 5.9552,12.9292121 C6.02695758,12.4186667 6.23059394,12.0705455 6.45653333,11.8732121 C4.70283636,11.6739394 2.85895758,10.9966061 2.85895758,7.96969697 C2.85895758,7.10763636 3.16683636,6.40266667 3.67204848,5.85042424 C3.59059394,5.65066667 3.31956364,4.84775758 3.74913939,3.76072727 C3.74913939,3.76072727 4.41241212,3.54787879 5.92126061,4.56993939 C6.55107879,4.39490909 7.22695758,4.30715152 7.89847273,4.30424242 C8.56901818,4.30715152 9.24489697,4.39490909 9.87568485,4.56993939 C11.3835636,3.54787879 12.0453818,3.76072727 12.0453818,3.76072727 C12.4764121,4.84775758 12.2053818,5.65066667 12.1239273,5.85042424 C12.6301091,6.40266667 12.9360485,7.10763636 12.9360485,7.96969697 C12.9360485,11.0038788 11.0892606,11.6715152 9.32974545,11.8673939 C9.61338182,12.1107879 9.86598788,12.5932121 9.86598788,13.329697 C9.86598788,14.385697 9.85629091,15.2375758 9.85629091,15.4964848 C9.85629091,15.7073939 9.99835152,15.9532121 10.3993212,15.8761212 C13.5348364,14.8298182 15.7961697,11.8712727 15.7961697,8.38327273 C15.7961697,4.02109091 12.2596848,0.484606061 7.89750303,0.484606061" id="Fill-1"></path>
                </g>
            </g>
        </g>
    </g>
</svg>