<?xml version="1.0" encoding="UTF-8"?>
<svg width="19px" height="16px" viewBox="0 0 19 16" version="1.1" xmlns="http://www.w3.org/2000/svg" xmlns:xlink="http://www.w3.org/1999/xlink">
    <!-- Generator: Sketch 45.1 (43504) - http://www.bohemiancoding.com/sketch -->
    <title>medium</title>
    <desc>Created with Sketch.</desc>
    <defs></defs>
    <g id="home3" stroke="none" stroke-width="1" fill="none" fill-rule="evenodd">
        <g id="inner" transform="translate(-119.000000, -88.000000)" fill="#FFFFFF">
            <g id="Group-3" transform="translate(48.000000, 88.000000)">
                <g id="medium" transform="translate(71.000000, 0.000000)">
                    <path d="M18.756782,2.91365393 C18.7530067,2.91077753 18.7501303,2.90700225 18.745636,2.90484494 L18.739164,2.90160899 L13.0638382,0.0638561798 C13.0253663,0.0448 12.9850966,0.0316764045 12.9442876,0.0212494382 C12.8930517,0.00794606742 12.8409169,3.59550562e-05 12.7884225,3.59550562e-05 C12.5710742,3.59550562e-05 12.3546247,0.109159551 12.2374112,0.299361798 L8.96999551,5.60920449 L13.0704899,12.2725753 L18.7740404,3.00426067 C18.7930966,2.9735191 18.7839281,2.93522697 18.756782,2.91365393" id="Fill-1"></path>
                    <polygon id="Fill-3" points="7.17022921 4.39978427 7.17022921 10.4438292 12.5428135 13.1300315"></polygon>
                    <path d="M13.3498247,13.5336449 L17.7722966,15.7447011 C18.3477573,16.0325213 18.8142742,15.831173 18.8142742,15.2949034 L18.8142742,4.65418427 L13.3498247,13.5336449 Z" id="Fill-5"></path>
                    <path d="M6.23764494,2.92224719 L0.694633708,0.150651685 C0.594498876,0.100674157 0.499217978,0.0769438202 0.413105618,0.0769438202 C0.170229213,0.0769438202 -1.79775281e-05,0.264808989 -1.79775281e-05,0.579955056 L-1.79775281e-05,12.5475955 C-1.79775281e-05,12.8679551 0.234408989,13.2472809 0.520970787,13.3905618 L5.40294831,15.8315506 C5.52825169,15.8941124 5.6474427,15.9237753 5.75512809,15.9237753 C6.05858876,15.9237753 6.27126292,15.6889888 6.27126292,15.2949213 L6.27126292,2.9767191 C6.27126292,2.95370787 6.2583191,2.93249438 6.23764494,2.92224719" id="Fill-8"></path>
                </g>
            </g>
        </g>
    </g>
</svg>